<?xml version="1.0" encoding="utf-8"?>
<!-- Generator: Adobe Illustrator 24.0.0, SVG Export Plug-In . SVG Version: 6.00 Build 0)  -->
<svg version="1.1" id="Calque_1" xmlns="http://www.w3.org/2000/svg" xmlns:xlink="http://www.w3.org/1999/xlink" x="0px" y="0px"
	 viewBox="0 0 1920 1080" style="enable-background:new 0 0 1920 1080;" xml:space="preserve">
<style type="text/css">
	.st0{fill:#EADACC;}
</style>
<g id="Groupe_39" transform="translate(2 3)">
	<g transform="matrix(1, 0, 0, 1, -2, -3)">
		<path id="Tracé_581-2" class="st0" d="M1066.5,227.3H926.9c-18.3,0.1-33.3-14.7-33.4-33s14.7-33.3,33-33.4c0.1,0,0.2,0,0.4,0
			h138.5c18.3,0.1,33.3-14.7,33.4-33s-14.7-33.3-33-33.4c-0.1,0-0.2,0-0.4,0h-563c-18.6,1.1-33.2,15.8-33.2,34.3
			c0,18.3,14.9,33.2,33.2,33.2h283.2c18.3-0.1,33.3,14.7,33.4,33s-14.7,33.3-33,33.4c-0.1,0-0.2,0-0.4,0H666.7
			c-18.3-0.1-33.3,14.7-33.4,33s14.7,33.3,33,33.4c0.1,0,0.2,0,0.4,0h399.7c18.3,0,33.2-14.9,33.2-33.2
			C1099.1,242.5,1084.5,227.3,1066.5,227.3z"/>
	</g>
</g>
<g id="Groupe_39_1_" transform="translate(2 3)">
	<g transform="matrix(1, 0, 0, 1, -2, -3)">
		<path id="Tracé_581-2_1_" class="st0" d="M1557.7,632.3h-139.6c-18.3,0.1-33.3-14.7-33.4-33c-0.1-18.3,14.7-33.3,33-33.4
			c0.1,0,0.2,0,0.4,0h138.5c18.3,0.1,33.3-14.7,33.4-33s-14.7-33.3-33-33.4c-0.1,0-0.2,0-0.4,0h-563c-18.6,1.1-33.2,15.7-33.2,34.3
			c0,18.3,14.9,33.2,33.2,33.2h283.2c18.3-0.1,33.3,14.7,33.4,33c0.1,18.3-14.7,33.3-33,33.4c-0.1,0-0.2,0-0.4,0H1158
			c-18.3-0.1-33.3,14.7-33.4,33c-0.1,18.3,14.7,33.3,33,33.4c0.1,0,0.2,0,0.4,0h399.7c18.3,0,33.2-14.9,33.2-33.2
			C1590.4,647.5,1575.7,632.3,1557.7,632.3z"/>
	</g>
</g>
<g id="Groupe_39_2_" transform="translate(2 3)">
	<g transform="matrix(1, 0, 0, 1, -2, -3)">
		<path id="Tracé_581-2_2_" class="st0" d="M241.4,945.3c0,16.6,13.5,30,30.1,30h361.7c0.1,0,0.2,0,0.3,0
			c16.6-0.1,30-13.6,29.9-30.2c-0.1-16.6-13.6-30-30.2-29.9H525.7c-0.1,0-0.2,0-0.3,0c-16.6-0.1-30-13.6-29.9-30.2
			c0.1-16.6,13.6-30,30.2-29.9h256.3c16.6,0,30-13.5,30.1-30c0-16.8-13.2-30-30.1-31.1H272.5c-0.1,0-0.2,0-0.3,0
			c-16.6,0.1-30,13.6-29.9,30.2c0.1,16.6,13.6,30,30.2,29.9h125.3c0.1,0,0.2,0,0.3,0c16.6,0.1,30,13.6,29.9,30.2
			c-0.1,16.6-13.6,30-30.2,29.9H271.4C255.1,914.2,241.9,928,241.4,945.3z"/>
	</g>
</g>
<g id="Groupe_39_3_" transform="translate(2 3)">
	<g transform="matrix(1, 0, 0, 1, -2, -3)">
		<path id="Tracé_581-2_3_" class="st0" d="M1863.5,988h-128c-16.8,0.1-30.5-13.5-30.6-30.3s13.5-30.5,30.3-30.6c0.1,0,0.2,0,0.3,0
			h126.9c16.8,0.1,30.5-13.5,30.6-30.3c0.1-16.8-13.5-30.5-30.3-30.6c-0.1,0-0.2,0-0.3,0h-516c-17,1-30.4,14.4-30.4,31.4
			c0,16.8,13.7,30.4,30.4,30.4H1606c16.8-0.1,30.5,13.5,30.6,30.3s-13.5,30.5-30.3,30.6c-0.1,0-0.2,0-0.3,0h-108.9
			c-16.8-0.1-30.5,13.5-30.6,30.3c-0.1,16.8,13.5,30.5,30.3,30.6c0.1,0,0.2,0,0.3,0h366.4c16.8,0,30.4-13.6,30.4-30.4
			C1893.4,1001.9,1880,988,1863.5,988z"/>
	</g>
</g>
<g id="Groupe_39_4_" transform="translate(2 3)">
	<g transform="matrix(1, 0, 0, 1, -2, -3)">
		<path id="Tracé_581-2_4_" class="st0" d="M1390.9,146c0,14.2,11.5,25.7,25.7,25.7H1726c0.1,0,0.2,0,0.3,0
			c14.2-0.1,25.6-11.6,25.5-25.8s-11.6-25.6-25.8-25.5h-92c-0.1,0-0.2,0-0.3,0c-14.2-0.1-25.6-11.6-25.5-25.8s11.6-25.6,25.8-25.5
			h219.2c14.2,0,25.7-11.5,25.7-25.7c0-14.4-11.3-25.7-25.7-26.6h-435.8c-0.1,0-0.2,0-0.3,0c-14.2,0.1-25.6,11.6-25.5,25.8
			s11.6,25.6,25.8,25.5h107.2c0.1,0,0.2,0,0.3,0c14.2,0.1,25.6,11.6,25.5,25.8s-11.6,25.6-25.8,25.5h-108.1
			C1402.7,119.5,1391.3,131.2,1390.9,146z"/>
	</g>
</g>
<g id="Groupe_39_5_" transform="translate(2 3)">
	<g transform="matrix(1, 0, 0, 1, -2, -3)">
		<path id="Tracé_581-2_5_" class="st0" d="M597.7,499.8H458.1c-18.3,0.1-33.3-14.7-33.4-33c-0.1-18.3,14.7-33.3,33-33.4
			c0.1,0,0.2,0,0.4,0h138.5c18.3,0.1,33.3-14.7,33.4-33c0.1-18.3-14.7-33.3-33-33.4c-0.1,0-0.2,0-0.4,0h-563
			C15,368.2,0.4,382.8,0.4,401.4c0,18.3,14.9,33.2,33.2,33.2h283.2c18.3-0.1,33.3,14.7,33.4,33s-14.7,33.3-33,33.4
			c-0.1,0-0.2,0-0.4,0H198c-18.3-0.1-33.3,14.7-33.4,33c-0.1,18.3,14.7,33.3,33,33.4c0.1,0,0.2,0,0.4,0h399.7
			c18.3,0,33.2-14.9,33.2-33.2C630.4,515,615.7,499.8,597.7,499.8z"/>
	</g>
</g>
</svg>
