<?xml version="1.0" encoding="utf-8"?>
<!-- Generator: Adobe Illustrator 23.0.3, SVG Export Plug-In . SVG Version: 6.00 Build 0)  -->
<svg version="1.1" id="Capa_1" xmlns="http://www.w3.org/2000/svg" xmlns:xlink="http://www.w3.org/1999/xlink" x="0px" y="0px"
	 viewBox="0 0 119.9 119.9" style="enable-background:new 0 0 119.9 119.9;" xml:space="preserve">
<style type="text/css">
	.st0{fill:#FFFFFF;}
</style>
<g>
	<path class="st0" d="M92.7,119.9H28.5c-6,0-11-4.9-11-11L8.4,66.2c-3.4-1.7-5.7-5.2-5.7-9.1c0-5.7,4.6-10.3,10.3-10.3h93.9
		c5.7,0,10.3,4.6,10.3,10.3c0,3.3-1.6,6.4-4.3,8.3l-9.3,44.2C103.6,115,98.7,119.9,92.7,119.9z M13,53.7c-1.9,0-3.5,1.6-3.5,3.5
		c0,1.5,1.1,2.9,2.7,3.3c1.2,0.3,2.2,1.3,2.5,2.6l9.5,45.2c0.1,3,2,4.9,4.3,4.9h64.2c2.3,0,4.2-1.9,4.2-4.2l9.7-46.3
		c0.2-1,0.9-1.9,1.8-2.3c1.2-0.6,2-1.8,2-3.1c0-1.9-1.6-3.5-3.5-3.5L13,53.7L13,53.7z"/>
	<path class="st0" d="M37.1,100.1c0,1.3-1.1,2.4-2.4,2.4h-0.7c-1.3,0-2.4-1.1-2.4-2.4V72.4c0-1.3,1.1-2.4,2.4-2.4h0.7
		c1.3,0,2.4,1.1,2.4,2.4V100.1z"/>
	<path class="st0" d="M54.5,100.1c0,1.3-1.1,2.4-2.4,2.4h-0.7c-1.3,0-2.4-1.1-2.4-2.4V72.4c0-1.3,1.1-2.4,2.4-2.4h0.7
		c1.3,0,2.4,1.1,2.4,2.4V100.1z"/>
	<path class="st0" d="M71.8,100.1c0,1.3-1.1,2.4-2.4,2.4h-0.7c-1.3,0-2.4-1.1-2.4-2.4V72.4c0-1.3,1.1-2.4,2.4-2.4h0.7
		c1.3,0,2.4,1.1,2.4,2.4V100.1z"/>
	<path class="st0" d="M89.2,100.1c0,1.3-1.1,2.4-2.4,2.4h-0.7c-1.3,0-2.4-1.1-2.4-2.4V72.4c0-1.3,1.1-2.4,2.4-2.4h0.7
		c1.3,0,2.4,1.1,2.4,2.4L89.2,100.1L89.2,100.1z"/>
	<path class="st0" d="M28,34.9C30.3,19.2,43.7,7.1,60,7.1c16.3,0,29.7,12.1,32,27.7c0.3,5.3,7.2,4.5,7.2,0C96.9,15.2,80.3,0,60,0
		C39.8,0,23.1,15.2,20.8,34.9C20.8,40.4,28.1,40.6,28,34.9z"/>
</g>
</svg>
