<svg id="Flowers" xmlns="http://www.w3.org/2000/svg" width="2099.76" height="434" viewBox="0 0 2099.76 434">
  <path id="Tracé_1" data-name="Tracé 1" d="M1964.07,2174.79a19.934,19.934,0,0,1,.25,3.85c0,10.56-7.69,19.68-18.86,21.61a22.056,22.056,0,0,1-3.97.24h-129l121.06-42.74a21.545,21.545,0,0,1,3.73-.96,22.056,22.056,0,0,1,3.97-.24C1952.41,2156.55,1962.09,2163.99,1964.07,2174.79Z" transform="translate(128 -2023)" fill="#bc383d"/>
  <path id="Tracé_2" data-name="Tracé 2" d="M1943.48,2120.05a21.792,21.792,0,0,1,2.98,11.05,21.353,21.353,0,0,1-11.42,18.96,25.419,25.419,0,0,1-3.72,1.68l-120.82,42.74,98.74-80.19a36.235,36.235,0,0,1,3.23-2.16,23.64,23.64,0,0,1,11.41-2.88A22.41,22.41,0,0,1,1943.48,2120.05Z" transform="translate(128 -2023)" fill="#bc383d"/>
  <path id="Tracé_3" data-name="Tracé 3" d="M1890.14,2070.35a23.492,23.492,0,0,1,14.64,5.04,21.357,21.357,0,0,1,8.18,16.81,21.764,21.764,0,0,1-5.21,14.16,13.723,13.723,0,0,1-2.73,2.65l-98.98,80.43,64.5-108.05a35.1,35.1,0,0,1,2.23-3.12A22.644,22.644,0,0,1,1890.14,2070.35Z" transform="translate(128 -2023)" fill="#bc383d"/>
  <path id="Tracé_4" data-name="Tracé 4" d="M1844.99,2045.14a22.89,22.89,0,0,1,22.57,22.09,19.749,19.749,0,0,1-1.49,7.44,23.621,23.621,0,0,1-1.73,3.6l-64.51,108.05,22.33-122.93a19.243,19.243,0,0,1,1-3.61A23.928,23.928,0,0,1,1844.99,2045.14Z" transform="translate(128 -2023)" fill="#bc383d"/>
  <path id="Tracé_5" data-name="Tracé 5" d="M1793.63,2036.25a22.535,22.535,0,0,1,22.83,21.85,19.831,19.831,0,0,1-.25,3.84l-22.33,122.94-22.33-122.94a18.635,18.635,0,0,1-.25-3.84C1770.81,2046.1,1780.98,2036.25,1793.63,2036.25Z" transform="translate(128 -2023)" fill="#bc383d"/>
  <path id="Tracé_6" data-name="Tracé 6" d="M1734.34,2046.34a21.8,21.8,0,0,1,7.69-1.44c9.18,0,18.11,5.52,21.34,14.4a19.993,19.993,0,0,1,.99,3.61l22.33,122.93-64.51-108.05a21.441,21.441,0,0,1-1.73-3.36,19.749,19.749,0,0,1-1.49-7.44A23.43,23.43,0,0,1,1734.34,2046.34Z" transform="translate(128 -2023)" fill="#bc383d"/>
  <path id="Tracé_7" data-name="Tracé 7" d="M1682.24,2075.39a23.492,23.492,0,0,1,14.64-5.04,22.609,22.609,0,0,1,17.36,7.92,12.144,12.144,0,0,1,2.24,3.12l64.5,108.05-98.74-80.19a14.281,14.281,0,0,1-2.73-2.65,21.818,21.818,0,0,1-5.21-14.16A22.341,22.341,0,0,1,1682.24,2075.39Z" transform="translate(128 -2023)" fill="#bc383d"/>
  <path id="Tracé_8" data-name="Tracé 8" d="M1643.79,2120.05a23.145,23.145,0,0,1,19.6-11.04,25.125,25.125,0,0,1,11.41,2.88,36,36,0,0,1,3.22,2.16l98.74,80.19-121.07-42.5a15.3,15.3,0,0,1-3.47-1.68,22.145,22.145,0,0,1-11.41-18.96A18.133,18.133,0,0,1,1643.79,2120.05Z" transform="translate(128 -2023)" fill="#bc383d"/>
  <path id="Tracé_9" data-name="Tracé 9" d="M1622.7,2178.64a19.934,19.934,0,0,1,.25-3.85,22.622,22.622,0,0,1,22.32-18.24,22,22,0,0,1,3.97.24,16.956,16.956,0,0,1,3.73.96l121.06,42.74h-129a23.474,23.474,0,0,1-3.97-.24A22.3,22.3,0,0,1,1622.7,2178.64Z" transform="translate(128 -2023)" fill="#bc383d"/>
  <path id="Tracé_10" data-name="Tracé 10" d="M1623.19,2232.9a20.644,20.644,0,0,1-.24-3.84c0-10.57,7.69-19.69,18.85-21.61a22.056,22.056,0,0,1,3.97-.24h129.01l-121.57,42.5a21.213,21.213,0,0,1-3.72.96,22.056,22.056,0,0,1-3.97.24C1634.61,2251.15,1624.93,2243.7,1623.19,2232.9Z" transform="translate(128 -2023)" fill="#bc383d"/>
  <path id="Tracé_11" data-name="Tracé 11" d="M1643.79,2287.64a21.683,21.683,0,0,1-2.98-11.04,21.378,21.378,0,0,1,11.41-18.97c1.24-.72,2.48-1.2,3.47-1.68l121.07-42.74-98.74,80.2a35.95,35.95,0,0,1-3.22,2.16,23.7,23.7,0,0,1-11.41,2.88A22.1,22.1,0,0,1,1643.79,2287.64Z" transform="translate(128 -2023)" fill="#bc383d"/>
  <path id="Tracé_12" data-name="Tracé 12" d="M1696.88,2337.35a23.5,23.5,0,0,1-14.64-5.05,21.318,21.318,0,0,1-8.19-16.8,21.823,21.823,0,0,1,5.21-14.17,14.231,14.231,0,0,1,2.73-2.64l98.74-80.2-64.5,108.05a37.271,37.271,0,0,1-2.23,3.12A22.337,22.337,0,0,1,1696.88,2337.35Z" transform="translate(128 -2023)" fill="#bc383d"/>
  <path id="Tracé_13" data-name="Tracé 13" d="M1742.28,2362.56a21.8,21.8,0,0,1-7.69-1.44,22.239,22.239,0,0,1-14.89-20.65,20,20,0,0,1,1.49-7.45,23.721,23.721,0,0,1,1.74-3.6l64.5-108.05-22.33,122.94a19.317,19.317,0,0,1-.99,3.6A23.948,23.948,0,0,1,1742.28,2362.56Z" transform="translate(128 -2023)" fill="#bc383d"/>
  <path id="Tracé_14" data-name="Tracé 14" d="M1793.63,2371.44a22.709,22.709,0,0,1-22.57-18.73h1.48l-1.73-3.84c0-.96.25-2.16.25-3.12l22.32-122.93,22.33,122.93a18.636,18.636,0,0,1,.25,3.84C1816.21,2361.6,1806.04,2371.44,1793.63,2371.44Z" transform="translate(128 -2023)" fill="#bc383d"/>
  <path id="Tracé_15" data-name="Tracé 15" d="M1852.68,2361.36a21.8,21.8,0,0,1-7.69,1.44,22.918,22.918,0,0,1-21.34-14.41,19.317,19.317,0,0,1-.99-3.6l-22.33-122.94,64.5,108.05a16.234,16.234,0,0,1,1.74,3.6,26.643,26.643,0,0,1,1.49,7.45A22.672,22.672,0,0,1,1852.68,2361.36Z" transform="translate(128 -2023)" fill="#bc383d"/>
  <path id="Tracé_16" data-name="Tracé 16" d="M1904.78,2332.3a23.5,23.5,0,0,1-14.64,5.05,22.654,22.654,0,0,1-17.37-7.93,25.126,25.126,0,0,1-2.23-3.12l-64.5-108.05,98.74,80.2a14.224,14.224,0,0,1,2.73,2.64,21.823,21.823,0,0,1,5.21,14.17A21.156,21.156,0,0,1,1904.78,2332.3Z" transform="translate(128 -2023)" fill="#bc383d"/>
  <path id="Tracé_17" data-name="Tracé 17" d="M1943.48,2287.64a23.157,23.157,0,0,1-19.6,11.05,24.364,24.364,0,0,1-11.41-2.88,36.129,36.129,0,0,1-3.23-2.16l-98.74-80.44,121.07,42.74a25.419,25.419,0,0,1,3.72,1.68,22.14,22.14,0,0,1,11.41,18.97A25.688,25.688,0,0,1,1943.48,2287.64Z" transform="translate(128 -2023)" fill="#bc383d"/>
  <path id="Tracé_18" data-name="Tracé 18" d="M1964.07,2232.9a22.836,22.836,0,0,1-22.33,18.25,22.056,22.056,0,0,1-3.97-.24,21.213,21.213,0,0,1-3.72-.96l-121.31-42.74h129a22.056,22.056,0,0,1,3.97.24c10.92,1.92,18.86,11.04,18.86,21.61C1964.32,2230.26,1964.32,2231.7,1964.07,2232.9Z" transform="translate(128 -2023)" fill="#bc383d"/>
  <path id="Tracé_19" data-name="Tracé 19" d="M1955.39,2203.85a28.409,28.409,0,0,0,15.87-25.21,34.528,34.528,0,0,0-.49-5.05,28.814,28.814,0,0,0-25.31-23.29,28.2,28.2,0,0,0,7.69-19.2,26.658,26.658,0,0,0-3.97-14.17,29.974,29.974,0,0,0-32-13.45,28.043,28.043,0,0,0,2.23-10.8,27.729,27.729,0,0,0-10.42-21.85,29.192,29.192,0,0,0-18.85-6.72,29.588,29.588,0,0,0-15.88,4.56v-1.2a28.716,28.716,0,0,0-19.35-26.89,29.158,29.158,0,0,0-10.17-1.69,29.635,29.635,0,0,0-23.32,11.05c-3.47-11.77-14.64-20.17-27.79-20.17a29.308,29.308,0,0,0-28.03,19.93,29.635,29.635,0,0,0-23.32-11.05,31.143,31.143,0,0,0-10.17,1.69,28.415,28.415,0,0,0-19.35,26.65v1.2a31.17,31.17,0,0,0-15.88-4.56,29.238,29.238,0,0,0-18.86,6.72,27.759,27.759,0,0,0-10.42,21.85,27.18,27.18,0,0,0,2.24,10.8,27.959,27.959,0,0,0-6.45-.72,29.637,29.637,0,0,0-25.56,14.17,27.262,27.262,0,0,0-3.97,14.17,28.247,28.247,0,0,0,7.69,19.2,29.342,29.342,0,0,0-25.3,23.29c0,2.16-.25,3.85-.25,5.53a28.13,28.13,0,0,0,15.88,25.21,28.377,28.377,0,0,0-15.88,25.21,34.42,34.42,0,0,0,.5,5.04c2.23,12.49,12.65,21.61,25.3,23.29a28.271,28.271,0,0,0-7.69,19.21,26.707,26.707,0,0,0,3.97,14.17,29.984,29.984,0,0,0,32,13.44,28.24,28.24,0,0,0-2.23,10.81,27.758,27.758,0,0,0,10.42,21.85,29.239,29.239,0,0,0,18.86,6.72,29.579,29.579,0,0,0,15.87-4.56v1.2a28.739,28.739,0,0,0,19.35,26.89,29.205,29.205,0,0,0,10.18,1.68,29.6,29.6,0,0,0,23.32-11.05,29.676,29.676,0,0,0,56.06,0,29.619,29.619,0,0,0,23.32,11.05,31.222,31.222,0,0,0,10.18-1.68,28.739,28.739,0,0,0,19.35-26.89v-1.2a30.46,30.46,0,0,0,15.88,4.56,29.232,29.232,0,0,0,18.85-6.72,27.758,27.758,0,0,0,10.42-21.85,27.181,27.181,0,0,0-2.23-10.81,29.984,29.984,0,0,0,32-13.44,27.313,27.313,0,0,0,3.97-14.17,28.271,28.271,0,0,0-7.69-19.21,29.617,29.617,0,0,0,25.3-23.29,34.42,34.42,0,0,0,.5-5.04A30.341,30.341,0,0,0,1955.39,2203.85Zm8.68-29.06a19.934,19.934,0,0,1,.25,3.85c0,10.56-7.69,19.68-18.86,21.61a22.056,22.056,0,0,1-3.97.24H1833.33a70.227,70.227,0,0,0-1.24-6.97l101.71-35.77a21.213,21.213,0,0,1,3.72-.96,22.056,22.056,0,0,1,3.97-.24C1952.41,2156.55,1962.09,2163.99,1964.07,2174.79Zm-40.19-65.78a22.344,22.344,0,0,1,19.6,11.04,21.792,21.792,0,0,1,2.98,11.05,21.353,21.353,0,0,1-11.42,18.96,25.419,25.419,0,0,1-3.72,1.68l-101.71,35.78a30.75,30.75,0,0,0-3.73-6l82.87-67.23a36,36,0,0,1,3.22-2.16A24.548,24.548,0,0,1,1923.88,2109.01Zm-51.11-30.74a22.644,22.644,0,0,1,17.37-7.92,23.492,23.492,0,0,1,14.64,5.04,21.357,21.357,0,0,1,8.18,16.81,21.764,21.764,0,0,1-5.21,14.16,13.723,13.723,0,0,1-2.73,2.65l-83.11,67.47a47.97,47.97,0,0,0-5.45-4.57l54.08-90.52A35.1,35.1,0,0,1,1872.77,2078.27Zm-50.11-15.12a19.413,19.413,0,0,1,.99-3.61c3.23-8.88,12.16-14.4,21.34-14.4a22.89,22.89,0,0,1,22.57,22.09,19.749,19.749,0,0,1-1.49,7.44,23.621,23.621,0,0,1-1.73,3.6l-53.59,90.52c-2.23-.96-4.47-1.68-6.7-2.4Zm-29.03-26.9a22.535,22.535,0,0,1,22.83,21.85,19.985,19.985,0,0,1-.25,3.85l-19.1,103.24c-1.24,0-2.49-.24-3.73-.24a19.385,19.385,0,0,0-3.72.24l-18.85-103a18.783,18.783,0,0,1-.25-3.85A22.789,22.789,0,0,1,1793.63,2036.25Zm-59.29,10.09a21.8,21.8,0,0,1,7.69-1.44c9.18,0,18.11,5.52,21.34,14.4a19.993,19.993,0,0,1,.99,3.61l18.85,103a55.063,55.063,0,0,0-6.7,2.4l-54.08-90.28a22.4,22.4,0,0,1-1.74-3.36,19.93,19.93,0,0,1-1.48-7.44A22.86,22.86,0,0,1,1734.34,2046.34Zm-52.1,29.05a23.492,23.492,0,0,1,14.64-5.04,22.609,22.609,0,0,1,17.36,7.92,12.144,12.144,0,0,1,2.24,3.12l54.08,90.52a48.958,48.958,0,0,0-5.46,4.57l-82.86-67.23a13.988,13.988,0,0,1-2.73-2.65,21.818,21.818,0,0,1-5.21-14.16A22.341,22.341,0,0,1,1682.24,2075.39Zm-41.68,55.71a22.344,22.344,0,0,1,2.98-11.05,23.17,23.17,0,0,1,19.6-11.04,25.125,25.125,0,0,1,11.41,2.88,36,36,0,0,1,3.22,2.16l82.87,67.23a29.567,29.567,0,0,0-3.48,6l-101.47-35.54a15.3,15.3,0,0,1-3.47-1.68A21.891,21.891,0,0,1,1640.56,2131.1Zm-17.86,47.54a19.934,19.934,0,0,1,.25-3.85,22.622,22.622,0,0,1,22.32-18.24,22,22,0,0,1,3.97.24,16.956,16.956,0,0,1,3.73.96l101.71,35.77a59.648,59.648,0,0,0-1.24,6.97H1645.27a23.3,23.3,0,0,1-3.96-.24A22.29,22.29,0,0,1,1622.7,2178.64Zm.49,54.26a20.644,20.644,0,0,1-.24-3.84c0-10.57,7.69-19.69,18.85-21.61a22.056,22.056,0,0,1,3.97-.24h108.17a67.721,67.721,0,0,0,1.24,6.96l-101.97,35.54a21.213,21.213,0,0,1-3.72.96,22.056,22.056,0,0,1-3.97.24C1634.61,2251.15,1624.93,2243.7,1623.19,2232.9Zm40.2,65.79a22.321,22.321,0,0,1-19.6-11.05,21.683,21.683,0,0,1-2.98-11.04,21.378,21.378,0,0,1,11.41-18.97c1.24-.72,2.48-1.2,3.47-1.68l101.72-35.78a47.051,47.051,0,0,0,3.47,6.01l-82.86,67.23a35.95,35.95,0,0,1-3.22,2.16A22.749,22.749,0,0,1,1663.39,2298.69Zm50.85,30.73a22.619,22.619,0,0,1-17.36,7.93,23.5,23.5,0,0,1-14.64-5.05,21.318,21.318,0,0,1-8.19-16.8,21.823,21.823,0,0,1,5.21-14.17,14.231,14.231,0,0,1,2.73-2.64l82.86-67.23a49.954,49.954,0,0,0,5.46,4.56l-54.08,90.76A7.935,7.935,0,0,1,1714.24,2329.42Zm50.37,15.13a19.358,19.358,0,0,1-1,3.6,22.9,22.9,0,0,1-21.33,14.41,21.8,21.8,0,0,1-7.69-1.44,22.239,22.239,0,0,1-14.89-20.65,20,20,0,0,1,1.49-7.45,23.721,23.721,0,0,1,1.74-3.6l54.08-90.76c2.23.96,4.47,1.68,6.7,2.4Zm6.2,4.8v0Zm22.82,22.09a22.709,22.709,0,0,1-22.57-18.73h1.48l-1.73-3.84c0-.96.25-2.16.25-3.12l18.85-103.01c1.24,0,2.48.24,3.72.24a19.385,19.385,0,0,0,3.72-.24l18.86,103.01a18.636,18.636,0,0,1,.25,3.84C1816.21,2361.6,1806.04,2371.44,1793.63,2371.44Zm59.05-10.08a21.8,21.8,0,0,1-7.69,1.44,22.918,22.918,0,0,1-21.34-14.41,19.317,19.317,0,0,1-.99-3.6l-18.86-103.01a53.838,53.838,0,0,0,6.7-2.4l54.09,90.76a16.21,16.21,0,0,1,1.73,3.6,26.643,26.643,0,0,1,1.49,7.45C1867.81,2349.59,1862.11,2357.99,1852.68,2361.36Zm52.1-29.06a23.5,23.5,0,0,1-14.64,5.05,22.654,22.654,0,0,1-17.37-7.93,25.126,25.126,0,0,1-2.23-3.12l-54.08-90.52a48.926,48.926,0,0,0,5.45-4.56l82.87,67.23a14.224,14.224,0,0,1,2.73,2.64,21.823,21.823,0,0,1,5.21,14.17A21.156,21.156,0,0,1,1904.78,2332.3Zm41.68-55.7a22.441,22.441,0,0,1-2.98,11.04,23.157,23.157,0,0,1-19.6,11.05,24.364,24.364,0,0,1-11.41-2.88,36.129,36.129,0,0,1-3.23-2.16l-82.86-67.23a48.431,48.431,0,0,0,3.72-6.01l101.72,35.78a25.4,25.4,0,0,1,3.72,1.68A21.226,21.226,0,0,1,1946.46,2276.6Zm17.61-43.7a22.836,22.836,0,0,1-22.33,18.25,22.056,22.056,0,0,1-3.97-.24,21.213,21.213,0,0,1-3.72-.96l-101.72-35.78a30.705,30.705,0,0,0,1.24-6.96h108.17a22.056,22.056,0,0,1,3.97.24c10.92,1.92,18.86,11.04,18.86,21.61C1964.32,2230.26,1964.32,2231.7,1964.07,2232.9Z" transform="translate(128 -2023)" fill="#b58d6f"/>
  <path id="Tracé_20" data-name="Tracé 20" d="M1760.64,2203.85c0,17.76,14.88,32.17,33.24,32.17s33.24-14.41,33.24-32.17-14.88-32.18-33.24-32.42C1775.77,2171.67,1760.88,2186.08,1760.64,2203.85Z" transform="translate(128 -2023)" fill="#bc383d"/>
  <path id="Tracé_21" data-name="Tracé 21" d="M220.07,2168.02a19.99,19.99,0,0,1,.248,3.84c0,10.57-7.691,19.69-18.855,21.61a22.045,22.045,0,0,1-3.969.24H68.487l121.068-42.73a21.223,21.223,0,0,1,3.721-.96,22.056,22.056,0,0,1,3.97-.24C208.41,2149.78,218.085,2157.22,220.07,2168.02Z" transform="translate(128 -2023)" fill="#bc383d"/>
  <path id="Tracé_22" data-name="Tracé 22" d="M199.479,2113.28a21.74,21.74,0,0,1,2.977,11.04,21.365,21.365,0,0,1-11.412,18.97,25.445,25.445,0,0,1-3.722,1.68L66.5,2187.71l98.74-80.19a36.506,36.506,0,0,1,3.225-2.16,23.668,23.668,0,0,1,11.412-2.89A22.416,22.416,0,0,1,199.479,2113.28Z" transform="translate(128 -2023)" fill="#bc383d"/>
  <path id="Tracé_23" data-name="Tracé 23" d="M146.139,2063.58a23.481,23.481,0,0,1,14.638,5.04,21.325,21.325,0,0,1,8.187,16.81,21.8,21.8,0,0,1-5.21,14.16,14.025,14.025,0,0,1-2.729,2.64l-98.988,80.44,64.5-108.05a35.074,35.074,0,0,1,2.233-3.12A22.63,22.63,0,0,1,146.139,2063.58Z" transform="translate(128 -2023)" fill="#bc383d"/>
  <path id="Tracé_24" data-name="Tracé 24" d="M100.987,2038.37a22.9,22.9,0,0,1,22.576,22.09,19.9,19.9,0,0,1-1.488,7.44,23.961,23.961,0,0,1-1.737,3.6l-64.5,108.05,22.328-122.94a19.479,19.479,0,0,1,.992-3.6A23.941,23.941,0,0,1,100.987,2038.37Z" transform="translate(128 -2023)" fill="#bc383d"/>
  <path id="Tracé_25" data-name="Tracé 25" d="M49.632,2029.48a22.527,22.527,0,0,1,22.824,21.85,19.981,19.981,0,0,1-.248,3.84L49.88,2178.11,27.552,2055.17a18.775,18.775,0,0,1-.248-3.84C26.808,2039.33,36.98,2029.48,49.632,2029.48Z" transform="translate(128 -2023)" fill="#bc383d"/>
  <path id="Tracé_26" data-name="Tracé 26" d="M-9.661,2039.57a21.8,21.8,0,0,1,7.691-1.44c9.179,0,18.111,5.52,21.336,14.4a19.482,19.482,0,0,1,.992,3.6l22.328,122.94-64.5-108.05a21.664,21.664,0,0,1-1.737-3.36,19.9,19.9,0,0,1-1.489-7.44A23.442,23.442,0,0,1-9.661,2039.57Z" transform="translate(128 -2023)" fill="#bc383d"/>
  <path id="Tracé_27" data-name="Tracé 27" d="M-61.76,2068.62a23.478,23.478,0,0,1,14.637-5.04,22.63,22.63,0,0,1,17.366,7.92,12.194,12.194,0,0,1,2.233,3.12l64.5,108.05-98.74-80.2a13.991,13.991,0,0,1-2.729-2.64,21.8,21.8,0,0,1-5.21-14.16A22.324,22.324,0,0,1-61.76,2068.62Z" transform="translate(128 -2023)" fill="#bc383d"/>
  <path id="Tracé_28" data-name="Tracé 28" d="M-100.214,2113.28a23.175,23.175,0,0,1,19.6-11.05,25.145,25.145,0,0,1,11.412,2.89,36.348,36.348,0,0,1,3.225,2.16l98.74,80.19-121.068-42.5a15.364,15.364,0,0,1-3.473-1.68,22.141,22.141,0,0,1-11.412-18.97A18.179,18.179,0,0,1-100.214,2113.28Z" transform="translate(128 -2023)" fill="#bc383d"/>
  <path id="Tracé_29" data-name="Tracé 29" d="M-121.3,2171.86a19.91,19.91,0,0,1,.249-3.84,22.628,22.628,0,0,1,22.328-18.24,22.049,22.049,0,0,1,3.969.24,16.761,16.761,0,0,1,3.721.96l121.068,42.73H-98.974a23.46,23.46,0,0,1-3.969-.24A22.286,22.286,0,0,1-121.3,2171.86Z" transform="translate(128 -2023)" fill="#bc383d"/>
  <path id="Tracé_30" data-name="Tracé 30" d="M-120.805,2226.13a19.988,19.988,0,0,1-.248-3.84c0-10.57,7.69-19.69,18.854-21.61a22.056,22.056,0,0,1,3.97-.24H30.778l-121.564,42.5a21.228,21.228,0,0,1-3.721.96,22.049,22.049,0,0,1-3.969.24C-109.393,2244.38-119.069,2236.93-120.805,2226.13Z" transform="translate(128 -2023)" fill="#bc383d"/>
  <path id="Tracé_31" data-name="Tracé 31" d="M-100.214,2280.87a21.731,21.731,0,0,1-2.977-11.04,21.363,21.363,0,0,1,11.412-18.97c1.24-.72,2.481-1.2,3.473-1.68l121.068-42.74-98.74,80.2a36.3,36.3,0,0,1-3.225,2.16,23.658,23.658,0,0,1-11.412,2.88A22.109,22.109,0,0,1-100.214,2280.87Z" transform="translate(128 -2023)" fill="#bc383d"/>
  <path id="Tracé_32" data-name="Tracé 32" d="M-47.123,2330.57a23.48,23.48,0,0,1-14.637-5.04,21.321,21.321,0,0,1-8.187-16.8,21.805,21.805,0,0,1,5.21-14.17,13.992,13.992,0,0,1,2.729-2.64l98.74-80.2-64.5,108.05A35.083,35.083,0,0,1-30,2322.89,22.32,22.32,0,0,1-47.123,2330.57Z" transform="translate(128 -2023)" fill="#bc383d"/>
  <path id="Tracé_33" data-name="Tracé 33" d="M-1.722,2355.79a21.592,21.592,0,0,1-7.691-1.45A22.213,22.213,0,0,1-24.3,2333.7a19.906,19.906,0,0,1,1.489-7.45,23.875,23.875,0,0,1,1.737-3.6l64.5-108.05L21.1,2337.54a19.474,19.474,0,0,1-.992,3.6A23.95,23.95,0,0,1-1.722,2355.79Z" transform="translate(128 -2023)" fill="#bc383d"/>
  <path id="Tracé_34" data-name="Tracé 34" d="M49.632,2364.67a22.719,22.719,0,0,1-22.576-18.73h1.489l-1.737-3.84c0-.96.248-2.16.248-3.12l22.328-122.94,22.328,122.94a18.776,18.776,0,0,1,.248,3.84C72.209,2354.82,62.037,2364.67,49.632,2364.67Z" transform="translate(128 -2023)" fill="#bc383d"/>
  <path id="Tracé_35" data-name="Tracé 35" d="M108.678,2354.58a21.593,21.593,0,0,1-7.691,1.45,22.916,22.916,0,0,1-21.336-14.41,19.482,19.482,0,0,1-.992-3.6L56.331,2215.08l64.5,108.05a16.315,16.315,0,0,1,1.737,3.6,26.431,26.431,0,0,1,1.488,7.45A22.651,22.651,0,0,1,108.678,2354.58Z" transform="translate(128 -2023)" fill="#bc383d"/>
  <path id="Tracé_36" data-name="Tracé 36" d="M160.777,2325.53a23.482,23.482,0,0,1-14.638,5.04,22.631,22.631,0,0,1-17.366-7.92,24.35,24.35,0,0,1-2.233-3.12l-64.5-108.05,98.74,80.2a14.026,14.026,0,0,1,2.729,2.64,21.8,21.8,0,0,1,5.209,14.16A21.11,21.11,0,0,1,160.777,2325.53Z" transform="translate(128 -2023)" fill="#bc383d"/>
  <path id="Tracé_37" data-name="Tracé 37" d="M199.479,2280.87a23.153,23.153,0,0,1-19.6,11.05,24.38,24.38,0,0,1-11.412-2.88,36.452,36.452,0,0,1-3.225-2.16L66.5,2206.44l121.068,42.74a25.421,25.421,0,0,1,3.722,1.68,22.142,22.142,0,0,1,11.412,18.97A25.754,25.754,0,0,1,199.479,2280.87Z" transform="translate(128 -2023)" fill="#bc383d"/>
  <path id="Tracé_38" data-name="Tracé 38" d="M220.07,2226.13a22.839,22.839,0,0,1-22.328,18.25,22.056,22.056,0,0,1-3.97-.24,21.246,21.246,0,0,1-3.721-.96L68.735,2200.44H197.742a22.045,22.045,0,0,1,3.969.24c10.916,1.92,18.855,11.04,18.855,21.61C220.318,2223.49,220.318,2224.93,220.07,2226.13Z" transform="translate(128 -2023)" fill="#bc383d"/>
  <path id="Tracé_39" data-name="Tracé 39" d="M211.387,2197.08a28.407,28.407,0,0,0,15.878-25.21,34.545,34.545,0,0,0-.5-5.05,28.817,28.817,0,0,0-25.305-23.29,28.244,28.244,0,0,0,7.691-19.21,26.657,26.657,0,0,0-3.969-14.16,29.98,29.98,0,0,0-32-13.45,28.065,28.065,0,0,0,2.233-10.8,27.738,27.738,0,0,0-10.42-21.85,29.222,29.222,0,0,0-18.855-6.72,29.585,29.585,0,0,0-15.877,4.56v-1.2a28.741,28.741,0,0,0-19.351-26.9,29.169,29.169,0,0,0-10.172-1.68,29.634,29.634,0,0,0-23.321,11.05C73.945,2031.4,62.781,2023,49.632,2023A29.316,29.316,0,0,0,21.6,2042.93a29.634,29.634,0,0,0-23.32-11.05,31.163,31.163,0,0,0-10.172,1.68,28.44,28.44,0,0,0-19.351,26.66v1.2a31.16,31.16,0,0,0-15.878-4.57,29.233,29.233,0,0,0-18.855,6.73,27.739,27.739,0,0,0-10.42,21.85,27.2,27.2,0,0,0,2.233,10.8,27.911,27.911,0,0,0-6.45-.72,29.633,29.633,0,0,0-25.553,14.17,27.262,27.262,0,0,0-3.97,14.16,28.244,28.244,0,0,0,7.691,19.21,29.344,29.344,0,0,0-25.305,23.29c0,2.16-.248,3.84-.248,5.53a28.135,28.135,0,0,0,15.878,25.21A28.382,28.382,0,0,0-128,2222.29a34.689,34.689,0,0,0,.5,5.04c2.233,12.48,12.653,21.61,25.305,23.29a28.266,28.266,0,0,0-7.69,19.21,26.656,26.656,0,0,0,3.969,14.16,29.633,29.633,0,0,0,25.553,14.17,29.525,29.525,0,0,0,6.45-.72,28.073,28.073,0,0,0-2.233,10.8,27.74,27.74,0,0,0,10.42,21.85,29.18,29.18,0,0,0,18.855,6.73A29.59,29.59,0,0,0-31,2332.26v1.2a28.729,28.729,0,0,0,19.351,26.89,29.166,29.166,0,0,0,10.172,1.68,29.6,29.6,0,0,0,23.32-11.05,29.315,29.315,0,0,0,28.034,19.93,29.316,29.316,0,0,0,28.034-19.93,29.6,29.6,0,0,0,23.32,11.05,31.172,31.172,0,0,0,10.172-1.68,28.729,28.729,0,0,0,19.351-26.89v-1.2a30.469,30.469,0,0,0,15.877,4.56,29.179,29.179,0,0,0,18.855-6.73,27.738,27.738,0,0,0,10.42-21.85,27.189,27.189,0,0,0-2.233-10.8,29.98,29.98,0,0,0,32-13.45,27.261,27.261,0,0,0,3.969-14.16,28.262,28.262,0,0,0-7.691-19.21,29.632,29.632,0,0,0,25.306-23.29,34.689,34.689,0,0,0,.5-5.04A30.322,30.322,0,0,0,211.387,2197.08Zm8.683-29.06a20.042,20.042,0,0,1,.248,3.85c0,10.56-7.691,19.68-18.855,21.6a22.045,22.045,0,0,1-3.969.24H89.327a68.253,68.253,0,0,0-1.241-6.96L189.8,2150.98a21.246,21.246,0,0,1,3.721-.96,22.056,22.056,0,0,1,3.97-.24C208.41,2149.78,218.085,2157.22,220.07,2168.02Zm-40.191-65.79a22.353,22.353,0,0,1,19.6,11.05,21.74,21.74,0,0,1,2.977,11.04,21.365,21.365,0,0,1-11.412,18.97,25.445,25.445,0,0,1-3.722,1.68L85.605,2180.75a30.414,30.414,0,0,0-3.721-6l82.862-67.23a36.36,36.36,0,0,1,3.225-2.16A24.556,24.556,0,0,1,179.879,2102.23Zm-51.106-30.73a22.63,22.63,0,0,1,17.366-7.92,23.481,23.481,0,0,1,14.638,5.04,21.325,21.325,0,0,1,8.187,16.81,21.8,21.8,0,0,1-5.21,14.16,14.025,14.025,0,0,1-2.729,2.64l-83.11,67.47a49.222,49.222,0,0,0-5.458-4.56l54.083-90.52A35.074,35.074,0,0,1,128.773,2071.5Zm-50.114-15.13a19.472,19.472,0,0,1,.992-3.6c3.225-8.88,12.156-14.4,21.336-14.4a22.9,22.9,0,0,1,22.576,22.09,19.9,19.9,0,0,1-1.488,7.44,23.961,23.961,0,0,1-1.737,3.6l-53.587,90.52c-2.233-.96-4.466-1.68-6.7-2.4Zm-29.026-26.89a22.527,22.527,0,0,1,22.824,21.85,19.981,19.981,0,0,1-.248,3.84l-19.1,103.25c-1.24,0-2.481-.24-3.721-.24a19.4,19.4,0,0,0-3.721.24L26.808,2055.41a18.775,18.775,0,0,1-.248-3.84A22.788,22.788,0,0,1,49.632,2029.48Zm-59.293,10.09a21.8,21.8,0,0,1,7.691-1.44c9.179,0,18.111,5.52,21.336,14.4a19.482,19.482,0,0,1,.992,3.6l18.855,103.01a54.594,54.594,0,0,0-6.7,2.4l-54.084-90.28a21.664,21.664,0,0,1-1.737-3.36,19.9,19.9,0,0,1-1.488-7.44A22.876,22.876,0,0,1-9.661,2039.57Zm-52.1,29.05a23.478,23.478,0,0,1,14.637-5.04,22.63,22.63,0,0,1,17.366,7.92,12.2,12.2,0,0,1,2.233,3.12l54.084,90.52a49.2,49.2,0,0,0-5.458,4.56l-82.862-67.23a13.994,13.994,0,0,1-2.729-2.64,21.8,21.8,0,0,1-5.21-14.16A22.324,22.324,0,0,1-61.76,2068.62Zm-41.679,55.7a22.385,22.385,0,0,1,2.977-11.04,23.175,23.175,0,0,1,19.6-11.05,25.145,25.145,0,0,1,11.412,2.89,36.348,36.348,0,0,1,3.225,2.16l82.862,67.23a29.25,29.25,0,0,0-3.473,6l-101.469-35.54a15.364,15.364,0,0,1-3.473-1.68A21.889,21.889,0,0,1-103.439,2124.32Zm-17.863,47.55a19.962,19.962,0,0,1,.249-3.85,22.628,22.628,0,0,1,22.328-18.24,22.049,22.049,0,0,1,3.969.24,16.761,16.761,0,0,1,3.721.96l101.717,35.77a58.228,58.228,0,0,0-1.24,6.96H-98.725a23.462,23.462,0,0,1-3.97-.24A22.272,22.272,0,0,1-121.3,2171.87Zm.5,54.26a19.988,19.988,0,0,1-.248-3.84c0-10.57,7.69-19.69,18.854-21.61a22.056,22.056,0,0,1,3.97-.24H9.938a68.23,68.23,0,0,0,1.24,6.96l-101.965,35.54a21.228,21.228,0,0,1-3.721.96,22.049,22.049,0,0,1-3.969.24C-109.393,2244.38-119.069,2236.93-120.805,2226.13Zm40.19,65.79a22.33,22.33,0,0,1-19.6-11.05,21.731,21.731,0,0,1-2.977-11.04,21.363,21.363,0,0,1,11.412-18.97c1.241-.72,2.481-1.2,3.473-1.68L13.411,2213.4a48,48,0,0,0,3.473,6.01l-82.862,67.23a36.31,36.31,0,0,1-3.225,2.16A22.757,22.757,0,0,1-80.615,2291.92Zm50.858,30.73a22.63,22.63,0,0,1-17.366,7.92,23.48,23.48,0,0,1-14.637-5.04,21.321,21.321,0,0,1-8.187-16.8,21.805,21.805,0,0,1,5.21-14.17,14,14,0,0,1,2.729-2.64l82.862-67.23a49.16,49.16,0,0,0,5.458,4.56l-54.084,90.76A7.987,7.987,0,0,1-29.756,2322.65Zm50.362,15.13a19.474,19.474,0,0,1-.992,3.6,22.916,22.916,0,0,1-21.336,14.41,21.8,21.8,0,0,1-7.691-1.44A22.236,22.236,0,0,1-24.3,2333.7a19.906,19.906,0,0,1,1.489-7.45,23.875,23.875,0,0,1,1.737-3.6l54.084-90.76c2.233.96,4.466,1.68,6.7,2.4Zm6.2,4.8v0Zm22.824,22.09a22.719,22.719,0,0,1-22.576-18.73h1.489l-1.737-3.84c0-.96.248-2.16.248-3.12l18.855-103.01c1.24,0,2.481.24,3.721.24a19.4,19.4,0,0,0,3.721-.24l18.855,103.01a18.777,18.777,0,0,1,.248,3.84C72.209,2354.83,62.037,2364.67,49.632,2364.67Zm59.046-10.08a21.8,21.8,0,0,1-7.691,1.44,22.916,22.916,0,0,1-21.336-14.41,19.482,19.482,0,0,1-.992-3.6L59.8,2235.01a54.552,54.552,0,0,0,6.7-2.4l54.084,90.76a16.352,16.352,0,0,1,1.737,3.6,26.5,26.5,0,0,1,1.488,7.45C123.811,2342.82,118.105,2351.22,108.678,2354.59Zm52.1-29.06a23.482,23.482,0,0,1-14.638,5.04,22.631,22.631,0,0,1-17.366-7.92,24.35,24.35,0,0,1-2.233-3.12l-54.083-90.52a49.2,49.2,0,0,0,5.458-4.56l82.862,67.23a14.026,14.026,0,0,1,2.729,2.64,21.8,21.8,0,0,1,5.209,14.16A21.11,21.11,0,0,1,160.777,2325.53Zm41.679-55.7a22.4,22.4,0,0,1-2.977,11.04,23.153,23.153,0,0,1-19.6,11.05,24.38,24.38,0,0,1-11.412-2.88,36.452,36.452,0,0,1-3.225-2.16L82.38,2219.65a49.426,49.426,0,0,0,3.721-6.01l101.716,35.78a25.419,25.419,0,0,1,3.722,1.68A21.218,21.218,0,0,1,202.456,2269.83Zm17.614-43.7a22.839,22.839,0,0,1-22.328,18.25,22.045,22.045,0,0,1-3.969-.24,21.234,21.234,0,0,1-3.722-.96L88.334,2207.4a31.487,31.487,0,0,0,1.241-6.96H197.742a22.045,22.045,0,0,1,3.969.24c10.916,1.92,18.855,11.04,18.855,21.61C220.318,2223.49,220.318,2224.93,220.07,2226.13Z" transform="translate(128 -2023)" fill="#b58d6f"/>
  <path id="Tracé_40" data-name="Tracé 40" d="M16.636,2197.08c0,17.76,14.885,32.17,33.244,32.17s33.244-14.41,33.244-32.17-14.885-32.18-33.244-32.42C31.77,2164.9,16.884,2179.31,16.636,2197.08Z" transform="translate(128 -2023)" fill="#bc383d"/>
  <path id="Tracé_41" data-name="Tracé 41" d="M489.07,2181.57a19.989,19.989,0,0,1,.248,3.84c0,10.56-7.691,19.69-18.855,21.61a22.045,22.045,0,0,1-3.969.24H337.487l121.068-42.74a21.224,21.224,0,0,1,3.721-.96,22.056,22.056,0,0,1,3.97-.24C477.41,2163.32,487.085,2170.76,489.07,2181.57Z" transform="translate(128 -2023)" fill="#edd6cb"/>
  <path id="Tracé_42" data-name="Tracé 42" d="M468.479,2126.82a21.749,21.749,0,0,1,2.977,11.05,21.361,21.361,0,0,1-11.412,18.96,25.521,25.521,0,0,1-3.722,1.69L335.5,2201.25l98.74-80.19a36.553,36.553,0,0,1,3.225-2.16,23.661,23.661,0,0,1,11.412-2.88A22.406,22.406,0,0,1,468.479,2126.82Z" transform="translate(128 -2023)" fill="#edd6cb"/>
  <path id="Tracé_43" data-name="Tracé 43" d="M415.139,2077.12a23.482,23.482,0,0,1,14.638,5.04,21.34,21.34,0,0,1,8.187,16.81,21.846,21.846,0,0,1-5.21,14.17,14.019,14.019,0,0,1-2.729,2.64l-98.988,80.43,64.5-108.05a35.3,35.3,0,0,1,2.233-3.12A22.63,22.63,0,0,1,415.139,2077.12Z" transform="translate(128 -2023)" fill="#edd6cb"/>
  <path id="Tracé_44" data-name="Tracé 44" d="M369.987,2051.91A22.9,22.9,0,0,1,392.563,2074a19.9,19.9,0,0,1-1.488,7.44,23.975,23.975,0,0,1-1.737,3.6l-64.5,108.05,22.328-122.93a19.8,19.8,0,0,1,.992-3.61A23.941,23.941,0,0,1,369.987,2051.91Z" transform="translate(128 -2023)" fill="#edd6cb"/>
  <path id="Tracé_45" data-name="Tracé 45" d="M318.632,2043.02a22.527,22.527,0,0,1,22.825,21.85,20.013,20.013,0,0,1-.249,3.85L318.88,2191.65l-22.328-122.93a18.882,18.882,0,0,1-.248-3.85C295.808,2052.87,305.98,2043.02,318.632,2043.02Z" transform="translate(128 -2023)" fill="#edd6cb"/>
  <path id="Tracé_46" data-name="Tracé 46" d="M259.339,2053.11a21.8,21.8,0,0,1,7.691-1.44c9.179,0,18.11,5.52,21.335,14.4a19.72,19.72,0,0,1,.993,3.61l22.328,122.93-64.5-108.05a21.67,21.67,0,0,1-1.736-3.36,19.884,19.884,0,0,1-1.489-7.44A23.443,23.443,0,0,1,259.339,2053.11Z" transform="translate(128 -2023)" fill="#edd6cb"/>
  <path id="Tracé_47" data-name="Tracé 47" d="M207.24,2082.16a23.477,23.477,0,0,1,14.637-5.04,22.631,22.631,0,0,1,17.367,7.92,12.2,12.2,0,0,1,2.232,3.12l64.5,108.05-98.74-80.19a13.991,13.991,0,0,1-2.729-2.64,21.846,21.846,0,0,1-5.21-14.17A22.34,22.34,0,0,1,207.24,2082.16Z" transform="translate(128 -2023)" fill="#edd6cb"/>
  <path id="Tracé_48" data-name="Tracé 48" d="M168.786,2126.82a23.165,23.165,0,0,1,19.6-11.04,25.129,25.129,0,0,1,11.412,2.88,36.213,36.213,0,0,1,3.225,2.16l98.74,80.19-121.068-42.49a15.386,15.386,0,0,1-3.473-1.69,22.139,22.139,0,0,1-11.412-18.96A18.191,18.191,0,0,1,168.786,2126.82Z" transform="translate(128 -2023)" fill="#edd6cb"/>
  <path id="Tracé_49" data-name="Tracé 49" d="M147.7,2185.41a19.909,19.909,0,0,1,.249-3.84,22.627,22.627,0,0,1,22.328-18.25,22.045,22.045,0,0,1,3.969.24,16.759,16.759,0,0,1,3.721.96l121.068,42.74H170.027a23.463,23.463,0,0,1-3.97-.24A22.294,22.294,0,0,1,147.7,2185.41Z" transform="translate(128 -2023)" fill="#edd6cb"/>
  <path id="Tracé_50" data-name="Tracé 50" d="M148.2,2239.67a19.988,19.988,0,0,1-.248-3.84c0-10.57,7.69-19.69,18.854-21.61a22.056,22.056,0,0,1,3.97-.24H299.777l-121.564,42.5a21.2,21.2,0,0,1-3.721.96,22.045,22.045,0,0,1-3.969.24C159.607,2257.92,149.931,2250.48,148.2,2239.67Z" transform="translate(128 -2023)" fill="#edd6cb"/>
  <path id="Tracé_51" data-name="Tracé 51" d="M168.786,2294.41a21.729,21.729,0,0,1-2.977-11.04,21.374,21.374,0,0,1,11.412-18.97c1.241-.72,2.481-1.2,3.473-1.68l121.068-42.74-98.74,80.2a36.213,36.213,0,0,1-3.225,2.16,23.656,23.656,0,0,1-11.412,2.88A22.11,22.11,0,0,1,168.786,2294.41Z" transform="translate(128 -2023)" fill="#edd6cb"/>
  <path id="Tracé_52" data-name="Tracé 52" d="M221.877,2344.12a23.428,23.428,0,0,1-14.637-5.05,21.321,21.321,0,0,1-8.187-16.8,21.807,21.807,0,0,1,5.21-14.17,13.963,13.963,0,0,1,2.729-2.64l98.74-80.2-64.5,108.05a34.9,34.9,0,0,1-2.233,3.12A22.294,22.294,0,0,1,221.877,2344.12Z" transform="translate(128 -2023)" fill="#edd6cb"/>
  <path id="Tracé_53" data-name="Tracé 53" d="M267.278,2369.33a21.8,21.8,0,0,1-7.691-1.44,22.225,22.225,0,0,1-14.885-20.65,19.991,19.991,0,0,1,1.488-7.45,23.782,23.782,0,0,1,1.737-3.6l64.5-108.04L290.1,2351.08a19.479,19.479,0,0,1-.992,3.6A23.936,23.936,0,0,1,267.278,2369.33Z" transform="translate(128 -2023)" fill="#edd6cb"/>
  <path id="Tracé_54" data-name="Tracé 54" d="M318.632,2378.21a22.719,22.719,0,0,1-22.576-18.73h1.489l-1.737-3.84c0-.96.248-2.16.248-3.12l22.328-122.93,22.328,122.93a18.785,18.785,0,0,1,.248,3.84C341.208,2368.37,331.037,2378.21,318.632,2378.21Z" transform="translate(128 -2023)" fill="#edd6cb"/>
  <path id="Tracé_55" data-name="Tracé 55" d="M377.678,2368.13a21.8,21.8,0,0,1-7.691,1.44,22.9,22.9,0,0,1-21.336-14.41,19.482,19.482,0,0,1-.992-3.6l-22.328-122.93,64.5,108.04a16.316,16.316,0,0,1,1.737,3.6,26.571,26.571,0,0,1,1.488,7.45A22.663,22.663,0,0,1,377.678,2368.13Z" transform="translate(128 -2023)" fill="#edd6cb"/>
  <path id="Tracé_56" data-name="Tracé 56" d="M429.777,2339.07a23.433,23.433,0,0,1-14.638,5.05,22.607,22.607,0,0,1-17.366-7.93,24.347,24.347,0,0,1-2.233-3.12l-64.5-108.05,98.74,80.2a14.02,14.02,0,0,1,2.729,2.64,21.806,21.806,0,0,1,5.209,14.17A21.1,21.1,0,0,1,429.777,2339.07Z" transform="translate(128 -2023)" fill="#edd6cb"/>
  <path id="Tracé_57" data-name="Tracé 57" d="M468.479,2294.41a23.154,23.154,0,0,1-19.6,11.05,24.38,24.38,0,0,1-11.412-2.88,36.5,36.5,0,0,1-3.225-2.16l-98.74-80.44,121.068,42.74a25.444,25.444,0,0,1,3.722,1.68,22.155,22.155,0,0,1,11.412,18.97A25.752,25.752,0,0,1,468.479,2294.41Z" transform="translate(128 -2023)" fill="#edd6cb"/>
  <path id="Tracé_58" data-name="Tracé 58" d="M489.07,2239.67a22.829,22.829,0,0,1-22.328,18.25,22.056,22.056,0,0,1-3.97-.24,21.246,21.246,0,0,1-3.721-.96l-121.316-42.74H466.742a22.045,22.045,0,0,1,3.969.24c10.916,1.92,18.855,11.04,18.855,21.61C489.318,2237.03,489.318,2238.47,489.07,2239.67Z" transform="translate(128 -2023)" fill="#edd6cb"/>
  <path id="Tracé_59" data-name="Tracé 59" d="M480.387,2210.62a28.4,28.4,0,0,0,15.878-25.21,34.818,34.818,0,0,0-.5-5.05,28.828,28.828,0,0,0-25.3-23.29,28.239,28.239,0,0,0,7.691-19.2,26.666,26.666,0,0,0-3.969-14.17,29.98,29.98,0,0,0-32-13.45,28.066,28.066,0,0,0,2.233-10.8,27.752,27.752,0,0,0-10.42-21.85,29.222,29.222,0,0,0-18.855-6.72,29.585,29.585,0,0,0-15.877,4.56v-1.2a28.719,28.719,0,0,0-19.351-26.89,29.172,29.172,0,0,0-10.172-1.68,29.625,29.625,0,0,0-23.321,11.04c-3.473-11.76-14.637-20.17-27.786-20.17a29.33,29.33,0,0,0-28.034,19.93,29.625,29.625,0,0,0-23.32-11.04,31.168,31.168,0,0,0-10.172,1.68,28.419,28.419,0,0,0-19.351,26.65v1.2a31.152,31.152,0,0,0-15.878-4.56,29.224,29.224,0,0,0-18.855,6.72,27.754,27.754,0,0,0-10.419,21.85,27.205,27.205,0,0,0,2.232,10.8,27.9,27.9,0,0,0-6.45-.72,29.655,29.655,0,0,0-25.553,14.17,27.271,27.271,0,0,0-3.97,14.17,28.239,28.239,0,0,0,7.691,19.2,29.356,29.356,0,0,0-25.3,23.29c0,2.17-.248,3.85-.248,5.53a28.124,28.124,0,0,0,15.878,25.21A28.382,28.382,0,0,0,141,2235.83a34.689,34.689,0,0,0,.5,5.04c2.233,12.49,12.653,21.61,25.3,23.29a28.267,28.267,0,0,0-7.69,19.21,26.715,26.715,0,0,0,3.969,14.17,29.99,29.99,0,0,0,32,13.44,28.114,28.114,0,0,0-2.233,10.81,27.766,27.766,0,0,0,10.42,21.85,29.222,29.222,0,0,0,18.854,6.72A29.591,29.591,0,0,0,238,2345.8v1.2a28.728,28.728,0,0,0,19.351,26.89,29.163,29.163,0,0,0,10.172,1.68,29.625,29.625,0,0,0,23.32-11.04,29.687,29.687,0,0,0,56.069,0,29.625,29.625,0,0,0,23.32,11.04,31.166,31.166,0,0,0,10.172-1.68A28.728,28.728,0,0,0,399.758,2347v-1.2a30.469,30.469,0,0,0,15.877,4.56,29.222,29.222,0,0,0,18.855-6.72,27.766,27.766,0,0,0,10.42-21.85,27.237,27.237,0,0,0-2.233-10.81,29.99,29.99,0,0,0,32-13.44,27.321,27.321,0,0,0,3.969-14.17,28.263,28.263,0,0,0-7.691-19.21,29.619,29.619,0,0,0,25.306-23.29,34.691,34.691,0,0,0,.5-5.04A30.322,30.322,0,0,0,480.387,2210.62Zm8.683-29.05a19.989,19.989,0,0,1,.248,3.84c0,10.56-7.691,19.69-18.855,21.61a22.045,22.045,0,0,1-3.969.24H358.327a68.466,68.466,0,0,0-1.241-6.97L458.8,2164.52a21.246,21.246,0,0,1,3.721-.96,22.056,22.056,0,0,1,3.97-.24C477.41,2163.32,487.085,2170.76,489.07,2181.57Zm-40.191-65.79a22.343,22.343,0,0,1,19.6,11.04,21.749,21.749,0,0,1,2.977,11.05,21.361,21.361,0,0,1-11.412,18.96,25.521,25.521,0,0,1-3.722,1.69l-101.717,35.77a30.368,30.368,0,0,0-3.721-6l82.862-67.23a36.409,36.409,0,0,1,3.225-2.16A24.544,24.544,0,0,1,448.879,2115.78Zm-51.106-30.74a22.63,22.63,0,0,1,17.366-7.92,23.482,23.482,0,0,1,14.638,5.04,21.34,21.34,0,0,1,8.187,16.81,21.846,21.846,0,0,1-5.21,14.17,14.019,14.019,0,0,1-2.729,2.64l-83.11,67.47a49.4,49.4,0,0,0-5.458-4.57l54.083-90.52A35.1,35.1,0,0,1,397.773,2085.04Zm-50.114-15.12a19.8,19.8,0,0,1,.992-3.61c3.225-8.88,12.157-14.4,21.336-14.4A22.9,22.9,0,0,1,392.563,2074a19.9,19.9,0,0,1-1.488,7.44,23.975,23.975,0,0,1-1.737,3.6l-53.587,90.52c-2.233-.96-4.466-1.68-6.7-2.4Zm-29.027-26.9a22.527,22.527,0,0,1,22.825,21.85,20.013,20.013,0,0,1-.249,3.85l-19.1,103.24c-1.241,0-2.481-.24-3.722-.24a19.4,19.4,0,0,0-3.721.24l-18.855-103a18.833,18.833,0,0,1-.248-3.85A22.788,22.788,0,0,1,318.632,2043.02Zm-59.293,10.09a21.8,21.8,0,0,1,7.691-1.44c9.179,0,18.11,5.52,21.335,14.4a19.72,19.72,0,0,1,.993,3.61l18.855,103a54.567,54.567,0,0,0-6.7,2.4l-54.083-90.28a21.592,21.592,0,0,1-1.737-3.36,19.9,19.9,0,0,1-1.489-7.44A22.877,22.877,0,0,1,259.339,2053.11Zm-52.1,29.05a23.479,23.479,0,0,1,14.637-5.04,22.631,22.631,0,0,1,17.367,7.92,12.2,12.2,0,0,1,2.232,3.12l54.084,90.52a49.308,49.308,0,0,0-5.458,4.57l-82.862-67.23a13.991,13.991,0,0,1-2.729-2.64,21.846,21.846,0,0,1-5.21-14.17A22.34,22.34,0,0,1,207.24,2082.16Zm-41.679,55.71a22.393,22.393,0,0,1,2.977-11.05,23.165,23.165,0,0,1,19.6-11.04,25.132,25.132,0,0,1,11.412,2.88,36.213,36.213,0,0,1,3.225,2.16l82.862,67.23a29.252,29.252,0,0,0-3.473,6l-101.469-35.53a15.386,15.386,0,0,1-3.473-1.69A21.885,21.885,0,0,1,165.561,2137.87ZM147.7,2185.41a19.909,19.909,0,0,1,.249-3.84,22.627,22.627,0,0,1,22.328-18.25,22.045,22.045,0,0,1,3.969.24,16.759,16.759,0,0,1,3.721.96l101.717,35.77a58.4,58.4,0,0,0-1.24,6.97H170.275a23.463,23.463,0,0,1-3.97-.24A22.283,22.283,0,0,1,147.7,2185.41Zm.5,54.26a19.988,19.988,0,0,1-.248-3.84c0-10.57,7.69-19.69,18.854-21.61a22.056,22.056,0,0,1,3.97-.24H278.938a68.282,68.282,0,0,0,1.24,6.96l-101.965,35.54a21.2,21.2,0,0,1-3.721.96,22.045,22.045,0,0,1-3.969.24C159.607,2257.92,149.931,2250.48,148.2,2239.67Zm40.19,65.79a22.33,22.33,0,0,1-19.6-11.05,21.729,21.729,0,0,1-2.977-11.04,21.374,21.374,0,0,1,11.412-18.97c1.241-.72,2.481-1.2,3.473-1.68l101.717-35.77a48.006,48.006,0,0,0,3.473,6l-82.862,67.23a36.213,36.213,0,0,1-3.225,2.16A22.753,22.753,0,0,1,188.385,2305.46Zm50.859,30.73a22.608,22.608,0,0,1-17.367,7.93,23.43,23.43,0,0,1-14.637-5.05,21.321,21.321,0,0,1-8.187-16.8,21.807,21.807,0,0,1,5.21-14.17,13.991,13.991,0,0,1,2.729-2.64l82.862-67.23a49.2,49.2,0,0,0,5.458,4.56l-54.084,90.76A7.986,7.986,0,0,1,239.244,2336.19Zm50.362,15.13a19.407,19.407,0,0,1-.993,3.6,22.9,22.9,0,0,1-21.335,14.41,21.8,21.8,0,0,1-7.691-1.44,22.225,22.225,0,0,1-14.885-20.65,19.991,19.991,0,0,1,1.488-7.45,23.782,23.782,0,0,1,1.737-3.6l54.083-90.76c2.233.96,4.466,1.68,6.7,2.4Zm6.2,4.8v0Zm22.824,22.09a22.719,22.719,0,0,1-22.576-18.73h1.489l-1.737-3.84c0-.96.248-2.16.248-3.12l18.855-103c1.24,0,2.481.24,3.721.24a19.406,19.406,0,0,0,3.722-.24l18.854,103a18.71,18.71,0,0,1,.249,3.84C341.209,2368.37,331.037,2378.21,318.632,2378.21Zm59.046-10.08a21.8,21.8,0,0,1-7.691,1.44,22.9,22.9,0,0,1-21.336-14.41,19.482,19.482,0,0,1-.992-3.6L328.8,2248.55a54.453,54.453,0,0,0,6.7-2.4l54.084,90.76a16.361,16.361,0,0,1,1.737,3.6,26.571,26.571,0,0,1,1.488,7.45C392.811,2356.36,387.105,2364.77,377.678,2368.13Zm52.1-29.06a23.433,23.433,0,0,1-14.638,5.05,22.607,22.607,0,0,1-17.366-7.93,24.347,24.347,0,0,1-2.233-3.12l-54.083-90.52a49.288,49.288,0,0,0,5.458-4.56l82.862,67.23a14.02,14.02,0,0,1,2.729,2.64,21.806,21.806,0,0,1,5.209,14.17A21.1,21.1,0,0,1,429.777,2339.07Zm41.679-55.7a22.4,22.4,0,0,1-2.977,11.04,23.154,23.154,0,0,1-19.6,11.05,24.38,24.38,0,0,1-11.412-2.88,36.5,36.5,0,0,1-3.225-2.16l-82.862-67.23a49.317,49.317,0,0,0,3.722-6l101.716,35.77a25.444,25.444,0,0,1,3.722,1.68A21.231,21.231,0,0,1,471.456,2283.37Zm17.614-43.7a22.829,22.829,0,0,1-22.328,18.25,22.045,22.045,0,0,1-3.969-.24,21.234,21.234,0,0,1-3.722-.96l-101.717-35.78a31.444,31.444,0,0,0,1.241-6.96H466.742a22.045,22.045,0,0,1,3.969.24c10.916,1.92,18.855,11.04,18.855,21.61C489.318,2237.03,489.318,2238.47,489.07,2239.67Z" transform="translate(128 -2023)" fill="#b58d6f"/>
  <path id="Tracé_60" data-name="Tracé 60" d="M285.636,2210.62c0,17.77,14.886,32.17,33.244,32.17s33.244-14.4,33.244-32.17-14.885-32.18-33.244-32.42C300.77,2178.44,285.884,2192.85,285.636,2210.62Z" transform="translate(128 -2023)" fill="#edd6cb"/>
  <path id="Tracé_61" data-name="Tracé 61" d="M1675.07,2200.91a19.835,19.835,0,0,1,.25,3.84c0,10.57-7.69,19.69-18.86,21.61a22.056,22.056,0,0,1-3.97.24h-129l121.06-42.74a21.524,21.524,0,0,1,3.73-.96,22.056,22.056,0,0,1,3.97-.24C1663.41,2182.66,1673.09,2190.11,1675.07,2200.91Z" transform="translate(128 -2023)" fill="#edd6cb"/>
  <path id="Tracé_62" data-name="Tracé 62" d="M1654.48,2146.17a21.784,21.784,0,0,1,2.98,11.04,21.357,21.357,0,0,1-11.42,18.97,25.446,25.446,0,0,1-3.72,1.68L1521.5,2220.6l98.74-80.2a36.182,36.182,0,0,1,3.23-2.16,23.64,23.64,0,0,1,11.41-2.88A22.4,22.4,0,0,1,1654.48,2146.17Z" transform="translate(128 -2023)" fill="#edd6cb"/>
  <path id="Tracé_63" data-name="Tracé 63" d="M1601.14,2096.47a23.491,23.491,0,0,1,14.64,5.04,21.338,21.338,0,0,1,8.18,16.8,21.77,21.77,0,0,1-5.21,14.17,13.682,13.682,0,0,1-2.73,2.64l-98.98,80.44,64.5-108.05a35.144,35.144,0,0,1,2.23-3.12A22.645,22.645,0,0,1,1601.14,2096.47Z" transform="translate(128 -2023)" fill="#edd6cb"/>
  <path id="Tracé_64" data-name="Tracé 64" d="M1555.99,2071.25a22.89,22.89,0,0,1,22.57,22.09,19.8,19.8,0,0,1-1.49,7.45,23.63,23.63,0,0,1-1.73,3.6l-64.51,108.05,22.33-122.94a19.366,19.366,0,0,1,1-3.6A23.937,23.937,0,0,1,1555.99,2071.25Z" transform="translate(128 -2023)" fill="#edd6cb"/>
  <path id="Tracé_65" data-name="Tracé 65" d="M1504.63,2062.37a22.528,22.528,0,0,1,22.83,21.85,19.833,19.833,0,0,1-.25,3.84L1504.88,2211l-22.33-122.94a18.638,18.638,0,0,1-.25-3.84C1481.81,2072.21,1491.98,2062.37,1504.63,2062.37Z" transform="translate(128 -2023)" fill="#edd6cb"/>
  <path id="Tracé_66" data-name="Tracé 66" d="M1445.34,2072.45a21.8,21.8,0,0,1,7.69-1.44c9.18,0,18.11,5.53,21.34,14.41a20.127,20.127,0,0,1,.99,3.6l22.33,122.94-64.51-108.05a21.439,21.439,0,0,1-1.73-3.36,19.8,19.8,0,0,1-1.49-7.45A23.453,23.453,0,0,1,1445.34,2072.45Z" transform="translate(128 -2023)" fill="#edd6cb"/>
  <path id="Tracé_67" data-name="Tracé 67" d="M1393.24,2101.51a23.491,23.491,0,0,1,14.64-5.04,22.61,22.61,0,0,1,17.36,7.92,12.149,12.149,0,0,1,2.24,3.12l64.5,108.05-98.74-80.2a14.238,14.238,0,0,1-2.73-2.64,21.824,21.824,0,0,1-5.21-14.17A22.32,22.32,0,0,1,1393.24,2101.51Z" transform="translate(128 -2023)" fill="#edd6cb"/>
  <path id="Tracé_68" data-name="Tracé 68" d="M1354.79,2146.17a23.132,23.132,0,0,1,19.6-11.05,25.125,25.125,0,0,1,11.41,2.88,35.951,35.951,0,0,1,3.22,2.16l98.74,80.2-121.07-42.5a15.31,15.31,0,0,1-3.47-1.68,22.149,22.149,0,0,1-11.41-18.97A18.122,18.122,0,0,1,1354.79,2146.17Z" transform="translate(128 -2023)" fill="#edd6cb"/>
  <path id="Tracé_69" data-name="Tracé 69" d="M1333.7,2204.75a19.835,19.835,0,0,1,.25-3.84,22.631,22.631,0,0,1,22.32-18.25,22,22,0,0,1,3.97.24,16.943,16.943,0,0,1,3.73.96l121.06,42.74h-129a23.474,23.474,0,0,1-3.97-.24A22.285,22.285,0,0,1,1333.7,2204.75Z" transform="translate(128 -2023)" fill="#edd6cb"/>
  <path id="Tracé_70" data-name="Tracé 70" d="M1334.19,2259.02a20.7,20.7,0,0,1-.24-3.85c0-10.56,7.69-19.68,18.85-21.6a21.186,21.186,0,0,1,3.97-.25h129.01l-121.57,42.5a21.213,21.213,0,0,1-3.72.96,22.056,22.056,0,0,1-3.97.24C1345.61,2277.26,1335.93,2269.82,1334.19,2259.02Z" transform="translate(128 -2023)" fill="#edd6cb"/>
  <path id="Tracé_71" data-name="Tracé 71" d="M1354.79,2313.76a21.684,21.684,0,0,1-2.98-11.04,21.367,21.367,0,0,1,11.41-18.97c1.24-.72,2.48-1.2,3.47-1.68l121.07-42.74-98.74,80.19a35.951,35.951,0,0,1-3.22,2.16,23.694,23.694,0,0,1-11.41,2.88A22.092,22.092,0,0,1,1354.79,2313.76Z" transform="translate(128 -2023)" fill="#edd6cb"/>
  <path id="Tracé_72" data-name="Tracé 72" d="M1407.88,2363.46a23.491,23.491,0,0,1-14.64-5.04,21.322,21.322,0,0,1-8.19-16.81,21.818,21.818,0,0,1,5.21-14.16,14.23,14.23,0,0,1,2.73-2.64l98.74-80.2-64.5,108.05a37.237,37.237,0,0,1-2.23,3.12A22.328,22.328,0,0,1,1407.88,2363.46Z" transform="translate(128 -2023)" fill="#edd6cb"/>
  <path id="Tracé_73" data-name="Tracé 73" d="M1453.28,2388.67a21.8,21.8,0,0,1-7.69-1.44,22.219,22.219,0,0,1-14.89-20.65,19.946,19.946,0,0,1,1.49-7.44,23.708,23.708,0,0,1,1.74-3.6l64.5-108.05-22.33,122.94a19.319,19.319,0,0,1-.99,3.6A23.938,23.938,0,0,1,1453.28,2388.67Z" transform="translate(128 -2023)" fill="#edd6cb"/>
  <path id="Tracé_74" data-name="Tracé 74" d="M1504.63,2397.56a22.718,22.718,0,0,1-22.57-18.73h1.48l-1.73-3.84c0-.96.25-2.16.25-3.12l22.32-122.94,22.33,122.94a18.635,18.635,0,0,1,.25,3.84C1527.21,2387.71,1517.04,2397.56,1504.63,2397.56Z" transform="translate(128 -2023)" fill="#edd6cb"/>
  <path id="Tracé_75" data-name="Tracé 75" d="M1563.68,2387.47a21.8,21.8,0,0,1-7.69,1.44,22.909,22.909,0,0,1-21.34-14.4,19.314,19.314,0,0,1-.99-3.6l-22.33-122.94,64.5,108.05a16.223,16.223,0,0,1,1.74,3.6,26.574,26.574,0,0,1,1.49,7.44A22.651,22.651,0,0,1,1563.68,2387.47Z" transform="translate(128 -2023)" fill="#edd6cb"/>
  <path id="Tracé_76" data-name="Tracé 76" d="M1615.78,2358.42a23.491,23.491,0,0,1-14.64,5.04,22.644,22.644,0,0,1-17.37-7.92,25.128,25.128,0,0,1-2.23-3.12l-64.5-108.05,98.74,80.2a14.23,14.23,0,0,1,2.73,2.64,21.818,21.818,0,0,1,5.21,14.16A21.161,21.161,0,0,1,1615.78,2358.42Z" transform="translate(128 -2023)" fill="#edd6cb"/>
  <path id="Tracé_77" data-name="Tracé 77" d="M1654.48,2313.76a23.17,23.17,0,0,1-19.6,11.04,24.361,24.361,0,0,1-11.41-2.88,36.182,36.182,0,0,1-3.23-2.16l-98.74-80.43,121.07,42.74a25.419,25.419,0,0,1,3.72,1.68,22.128,22.128,0,0,1,11.41,18.97A25.689,25.689,0,0,1,1654.48,2313.76Z" transform="translate(128 -2023)" fill="#edd6cb"/>
  <path id="Tracé_78" data-name="Tracé 78" d="M1675.07,2259.02a22.827,22.827,0,0,1-22.33,18.24,22.056,22.056,0,0,1-3.97-.24,21.213,21.213,0,0,1-3.72-.96l-121.31-42.74h129a21.186,21.186,0,0,1,3.97.25c10.92,1.92,18.86,11.04,18.86,21.6C1675.32,2256.38,1675.32,2257.82,1675.07,2259.02Z" transform="translate(128 -2023)" fill="#edd6cb"/>
  <path id="Tracé_79" data-name="Tracé 79" d="M1666.39,2229.96a28.386,28.386,0,0,0,15.87-25.21,34.4,34.4,0,0,0-.49-5.04,28.814,28.814,0,0,0-25.31-23.29,28.224,28.224,0,0,0,7.69-19.21,26.648,26.648,0,0,0-3.97-14.16,29.973,29.973,0,0,0-32-13.45,28.044,28.044,0,0,0,2.23-10.8,27.729,27.729,0,0,0-10.42-21.85,29.147,29.147,0,0,0-18.85-6.73,29.586,29.586,0,0,0-15.88,4.56v-1.2a28.725,28.725,0,0,0-19.35-26.89,29.15,29.15,0,0,0-10.17-1.68,29.6,29.6,0,0,0-23.32,11.05c-3.47-11.77-14.64-20.17-27.79-20.17a29.308,29.308,0,0,0-28.03,19.93,29.6,29.6,0,0,0-23.32-11.05,31.122,31.122,0,0,0-10.17,1.68,28.425,28.425,0,0,0-19.35,26.65v1.2a31.167,31.167,0,0,0-15.88-4.56,29.193,29.193,0,0,0-18.86,6.73,27.754,27.754,0,0,0-10.42,21.84,27.192,27.192,0,0,0,2.24,10.81,27.945,27.945,0,0,0-6.45-.72,29.637,29.637,0,0,0-25.56,14.17,27.252,27.252,0,0,0-3.97,14.16,28.271,28.271,0,0,0,7.69,19.21,29.33,29.33,0,0,0-25.3,23.29c0,2.16-.25,3.84-.25,5.52a28.107,28.107,0,0,0,15.88,25.21,28.4,28.4,0,0,0-15.88,25.21,34.412,34.412,0,0,0,.5,5.05c2.23,12.48,12.65,21.61,25.3,23.29a28.252,28.252,0,0,0-7.69,19.21,26.648,26.648,0,0,0,3.97,14.16,29.974,29.974,0,0,0,32,13.45,28.228,28.228,0,0,0-2.23,10.8,27.729,27.729,0,0,0,10.42,21.85,29.237,29.237,0,0,0,18.86,6.72,29.577,29.577,0,0,0,15.87-4.56v1.2a28.751,28.751,0,0,0,19.35,26.9,29.205,29.205,0,0,0,10.18,1.68,29.635,29.635,0,0,0,23.32-11.05,29.676,29.676,0,0,0,56.06,0,29.65,29.65,0,0,0,23.32,11.05,31.222,31.222,0,0,0,10.18-1.68,28.751,28.751,0,0,0,19.35-26.9v-1.2a30.458,30.458,0,0,0,15.88,4.56,29.23,29.23,0,0,0,18.85-6.72,27.729,27.729,0,0,0,10.42-21.85,27.168,27.168,0,0,0-2.23-10.8,29.974,29.974,0,0,0,32-13.45,27.252,27.252,0,0,0,3.97-14.16,28.252,28.252,0,0,0-7.69-19.21,29.629,29.629,0,0,0,25.3-23.29,34.412,34.412,0,0,0,.5-5.05A30.369,30.369,0,0,0,1666.39,2229.96Zm8.68-29.05a19.835,19.835,0,0,1,.25,3.84c0,10.57-7.69,19.69-18.86,21.61a22.056,22.056,0,0,1-3.97.24H1544.33a70.558,70.558,0,0,0-1.24-6.96l101.71-35.78a21.192,21.192,0,0,1,3.72-.96,22.056,22.056,0,0,1,3.97-.24C1663.41,2182.66,1673.09,2190.11,1675.07,2200.91Zm-40.19-65.79a22.333,22.333,0,0,1,19.6,11.05,21.784,21.784,0,0,1,2.98,11.04,21.357,21.357,0,0,1-11.42,18.97,25.446,25.446,0,0,1-3.72,1.68l-101.71,35.78a30.829,30.829,0,0,0-3.73-6.01l82.87-67.23a35.951,35.951,0,0,1,3.22-2.16A24.548,24.548,0,0,1,1634.88,2135.12Zm-51.11-30.73a22.645,22.645,0,0,1,17.37-7.92,23.491,23.491,0,0,1,14.64,5.04,21.338,21.338,0,0,1,8.18,16.8,21.77,21.77,0,0,1-5.21,14.17,13.682,13.682,0,0,1-2.73,2.64l-83.11,67.47a48.9,48.9,0,0,0-5.45-4.56l54.08-90.52A35.144,35.144,0,0,1,1583.77,2104.39Zm-50.11-15.13a19.325,19.325,0,0,1,.99-3.6c3.23-8.88,12.16-14.41,21.34-14.41a22.89,22.89,0,0,1,22.57,22.09,19.761,19.761,0,0,1-1.49,7.45,23.63,23.63,0,0,1-1.73,3.6l-53.59,90.52c-2.23-.96-4.47-1.68-6.7-2.4Zm-29.03-26.89a22.528,22.528,0,0,1,22.83,21.85,19.833,19.833,0,0,1-.25,3.84l-19.1,103.25c-1.24,0-2.49-.24-3.73-.24a19.385,19.385,0,0,0-3.72.24l-18.85-103.01a18.638,18.638,0,0,1-.25-3.84A22.782,22.782,0,0,1,1504.63,2062.37Zm-59.29,10.08a21.8,21.8,0,0,1,7.69-1.44c9.18,0,18.11,5.53,21.34,14.41a20.127,20.127,0,0,1,.99,3.6l18.85,103.01a55.063,55.063,0,0,0-6.7,2.4l-54.08-90.28a22.412,22.412,0,0,1-1.74-3.36,19.942,19.942,0,0,1-1.48-7.45A22.881,22.881,0,0,1,1445.34,2072.45Zm-52.1,29.06a23.491,23.491,0,0,1,14.64-5.04,22.61,22.61,0,0,1,17.36,7.92,12.149,12.149,0,0,1,2.24,3.12l54.08,90.52a49.926,49.926,0,0,0-5.46,4.56l-82.86-67.23a14.238,14.238,0,0,1-2.73-2.64,21.824,21.824,0,0,1-5.21-14.17A22.32,22.32,0,0,1,1393.24,2101.51Zm-41.68,55.7a22.337,22.337,0,0,1,2.98-11.04,23.157,23.157,0,0,1,19.6-11.05,25.125,25.125,0,0,1,11.41,2.88,35.951,35.951,0,0,1,3.22,2.16l82.87,67.23a29.645,29.645,0,0,0-3.48,6.01l-101.47-35.54a15.31,15.31,0,0,1-3.47-1.68A21.894,21.894,0,0,1,1351.56,2157.21Zm-17.86,47.54a19.835,19.835,0,0,1,.25-3.84,22.631,22.631,0,0,1,22.32-18.25,22,22,0,0,1,3.97.24,16.943,16.943,0,0,1,3.73.96l101.71,35.78a59.853,59.853,0,0,0-1.24,6.96H1356.27a23.3,23.3,0,0,1-3.96-.24A22.274,22.274,0,0,1,1333.7,2204.75Zm.49,54.27a20.7,20.7,0,0,1-.24-3.85c0-10.56,7.69-19.68,18.85-21.6a22.056,22.056,0,0,1,3.97-.24h108.17a67.745,67.745,0,0,0,1.24,6.96l-101.97,35.53a21.213,21.213,0,0,1-3.72.96,22.056,22.056,0,0,1-3.97.24C1345.61,2277.26,1335.93,2269.82,1334.19,2259.02Zm40.2,65.79a22.342,22.342,0,0,1-19.6-11.05,21.684,21.684,0,0,1-2.98-11.04,21.367,21.367,0,0,1,11.41-18.97c1.24-.72,2.48-1.2,3.47-1.68l101.72-35.78a47.639,47.639,0,0,0,3.47,6l-82.86,67.23a35.951,35.951,0,0,1-3.22,2.16A22.762,22.762,0,0,1,1374.39,2324.81Zm50.85,30.73a22.609,22.609,0,0,1-17.36,7.92,23.491,23.491,0,0,1-14.64-5.04,21.322,21.322,0,0,1-8.19-16.81,21.818,21.818,0,0,1,5.21-14.16,14.23,14.23,0,0,1,2.73-2.64l82.86-67.23a49.952,49.952,0,0,0,5.46,4.56l-54.08,90.76A7.933,7.933,0,0,1,1425.24,2355.54Zm50.37,15.13a19.356,19.356,0,0,1-1,3.6,22.9,22.9,0,0,1-21.33,14.4,21.8,21.8,0,0,1-7.69-1.44,22.219,22.219,0,0,1-14.89-20.65,19.946,19.946,0,0,1,1.49-7.44,23.708,23.708,0,0,1,1.74-3.6l54.08-90.76c2.23.96,4.47,1.68,6.7,2.4Zm6.2,4.8v0Zm22.82,22.09a22.718,22.718,0,0,1-22.57-18.73h1.48l-1.73-3.84c0-.96.25-2.16.25-3.12l18.85-103.01c1.24,0,2.48.24,3.72.24a19.385,19.385,0,0,0,3.72-.24l18.86,103.01a18.635,18.635,0,0,1,.25,3.84C1527.21,2387.71,1517.04,2397.56,1504.63,2397.56Zm59.05-10.09a21.8,21.8,0,0,1-7.69,1.44,22.909,22.909,0,0,1-21.34-14.4,19.314,19.314,0,0,1-.99-3.6L1514.8,2267.9a53.877,53.877,0,0,0,6.7-2.4l54.09,90.76a16.2,16.2,0,0,1,1.73,3.6,26.574,26.574,0,0,1,1.49,7.44C1578.81,2375.71,1573.11,2384.11,1563.68,2387.47Zm52.1-29.05a23.491,23.491,0,0,1-14.64,5.04,22.644,22.644,0,0,1-17.37-7.92,25.128,25.128,0,0,1-2.23-3.12l-54.08-90.52a48.924,48.924,0,0,0,5.45-4.56l82.87,67.23a14.23,14.23,0,0,1,2.73,2.64,21.818,21.818,0,0,1,5.21,14.16A21.161,21.161,0,0,1,1615.78,2358.42Zm41.68-55.7a22.442,22.442,0,0,1-2.98,11.04,23.18,23.18,0,0,1-19.6,11.05,24.373,24.373,0,0,1-11.41-2.89,36.182,36.182,0,0,1-3.23-2.16l-82.86-67.23a49.075,49.075,0,0,0,3.72-6l101.72,35.78a25.419,25.419,0,0,1,3.72,1.68A21.215,21.215,0,0,1,1657.46,2302.72Zm17.61-43.7a22.827,22.827,0,0,1-22.33,18.24,22.056,22.056,0,0,1-3.97-.24,21.213,21.213,0,0,1-3.72-.96l-101.72-35.77a30.71,30.71,0,0,0,1.24-6.96h108.17a22.056,22.056,0,0,1,3.97.24c10.92,1.92,18.86,11.04,18.86,21.6C1675.32,2256.38,1675.32,2257.82,1675.07,2259.02Z" transform="translate(128 -2023)" fill="#b58d6f"/>
  <path id="Tracé_80" data-name="Tracé 80" d="M1471.64,2229.96c0,17.77,14.88,32.18,33.24,32.18s33.24-14.41,33.24-32.18-14.88-32.17-33.24-32.41C1486.77,2197.79,1471.88,2212.2,1471.64,2229.96Z" transform="translate(128 -2023)" fill="#edd6cb"/>
  <path id="Tracé_81" data-name="Tracé 81" d="M1120.07,2206.71a19.987,19.987,0,0,1,.25,3.85c0,10.56-7.69,19.68-18.86,21.61a22.056,22.056,0,0,1-3.97.24h-129l121.063-42.74a21.545,21.545,0,0,1,3.73-.96,22.056,22.056,0,0,1,3.97-.24C1108.41,2188.47,1118.09,2195.91,1120.07,2206.71Z" transform="translate(128 -2023)" fill="#fff2e6"/>
  <path id="Tracé_82" data-name="Tracé 82" d="M1099.48,2151.97a21.792,21.792,0,0,1,2.98,11.05,21.353,21.353,0,0,1-11.42,18.96,25.419,25.419,0,0,1-3.72,1.68L966.5,2226.4l98.738-80.19a36.182,36.182,0,0,1,3.23-2.16,23.637,23.637,0,0,1,11.41-2.88A22.41,22.41,0,0,1,1099.48,2151.97Z" transform="translate(128 -2023)" fill="#fff2e6"/>
  <path id="Tracé_83" data-name="Tracé 83" d="M1046.14,2102.27a23.491,23.491,0,0,1,14.64,5.04,21.356,21.356,0,0,1,8.18,16.81,21.764,21.764,0,0,1-5.21,14.16,13.723,13.723,0,0,1-2.73,2.65l-98.983,80.43,64.5-108.05a35.108,35.108,0,0,1,2.23-3.12A22.644,22.644,0,0,1,1046.14,2102.27Z" transform="translate(128 -2023)" fill="#fff2e6"/>
  <path id="Tracé_84" data-name="Tracé 84" d="M1000.99,2077.06a22.89,22.89,0,0,1,22.57,22.09,19.75,19.75,0,0,1-1.49,7.44,23.63,23.63,0,0,1-1.73,3.6l-64.505,108.05,22.328-122.93a19.576,19.576,0,0,1,.992-3.61A23.942,23.942,0,0,1,1000.99,2077.06Z" transform="translate(128 -2023)" fill="#fff2e6"/>
  <path id="Tracé_85" data-name="Tracé 85" d="M949.632,2068.17a22.527,22.527,0,0,1,22.825,21.85,20.148,20.148,0,0,1-.248,3.85L949.88,2216.8l-22.328-122.93a18.937,18.937,0,0,1-.248-3.85C926.808,2078.02,936.98,2068.17,949.632,2068.17Z" transform="translate(128 -2023)" fill="#fff2e6"/>
  <path id="Tracé_86" data-name="Tracé 86" d="M890.339,2078.26a21.8,21.8,0,0,1,7.691-1.44c9.179,0,18.11,5.52,21.335,14.4a19.292,19.292,0,0,1,.993,3.61l22.328,122.93-64.5-108.05a21.593,21.593,0,0,1-1.737-3.36,19.9,19.9,0,0,1-1.489-7.44A23.444,23.444,0,0,1,890.339,2078.26Z" transform="translate(128 -2023)" fill="#fff2e6"/>
  <path id="Tracé_87" data-name="Tracé 87" d="M838.24,2107.31a23.478,23.478,0,0,1,14.637-5.04,22.631,22.631,0,0,1,17.367,7.92,12.2,12.2,0,0,1,2.232,3.12l64.5,108.05-98.74-80.19a14.048,14.048,0,0,1-2.729-2.65,21.8,21.8,0,0,1-5.21-14.16A22.339,22.339,0,0,1,838.24,2107.31Z" transform="translate(128 -2023)" fill="#fff2e6"/>
  <path id="Tracé_88" data-name="Tracé 88" d="M799.786,2151.97a23.165,23.165,0,0,1,19.6-11.04,25.126,25.126,0,0,1,11.412,2.88,36.2,36.2,0,0,1,3.225,2.16l98.74,80.19-121.068-42.5a15.364,15.364,0,0,1-3.473-1.68,22.139,22.139,0,0,1-11.412-18.96A18.191,18.191,0,0,1,799.786,2151.97Z" transform="translate(128 -2023)" fill="#fff2e6"/>
  <path id="Tracé_89" data-name="Tracé 89" d="M778.7,2210.56a20.064,20.064,0,0,1,.249-3.85,22.629,22.629,0,0,1,22.328-18.24,22.045,22.045,0,0,1,3.969.24,16.759,16.759,0,0,1,3.721.96l121.068,42.74H801.027a23.463,23.463,0,0,1-3.97-.24A22.3,22.3,0,0,1,778.7,2210.56Z" transform="translate(128 -2023)" fill="#fff2e6"/>
  <path id="Tracé_90" data-name="Tracé 90" d="M779.2,2264.82a19.992,19.992,0,0,1-.248-3.84c0-10.57,7.69-19.69,18.854-21.61a22.033,22.033,0,0,1,3.97-.24H930.778l-121.565,42.5a21.181,21.181,0,0,1-3.721.96,22.045,22.045,0,0,1-3.969.24C790.607,2283.07,780.931,2275.62,779.2,2264.82Z" transform="translate(128 -2023)" fill="#fff2e6"/>
  <path id="Tracé_91" data-name="Tracé 91" d="M799.786,2319.56a21.73,21.73,0,0,1-2.977-11.04,21.374,21.374,0,0,1,11.412-18.97c1.241-.72,2.481-1.2,3.473-1.68l121.068-42.74-98.74,80.2a36.2,36.2,0,0,1-3.225,2.16,23.656,23.656,0,0,1-11.412,2.88A22.11,22.11,0,0,1,799.786,2319.56Z" transform="translate(128 -2023)" fill="#fff2e6"/>
  <path id="Tracé_92" data-name="Tracé 92" d="M852.877,2369.27a23.429,23.429,0,0,1-14.637-5.05,21.321,21.321,0,0,1-8.187-16.8,21.808,21.808,0,0,1,5.21-14.17,14,14,0,0,1,2.729-2.64l98.74-80.2-64.5,108.05a34.911,34.911,0,0,1-2.233,3.12A22.327,22.327,0,0,1,852.877,2369.27Z" transform="translate(128 -2023)" fill="#fff2e6"/>
  <path id="Tracé_93" data-name="Tracé 93" d="M898.278,2394.48a21.8,21.8,0,0,1-7.691-1.44,22.236,22.236,0,0,1-14.885-20.65,19.953,19.953,0,0,1,1.488-7.45,23.777,23.777,0,0,1,1.737-3.6l64.5-108.04L921.1,2376.23a19.485,19.485,0,0,1-.992,3.6A23.952,23.952,0,0,1,898.278,2394.48Z" transform="translate(128 -2023)" fill="#fff2e6"/>
  <path id="Tracé_94" data-name="Tracé 94" d="M949.632,2403.36a22.719,22.719,0,0,1-22.576-18.73h1.489l-1.737-3.84c0-.96.248-2.16.248-3.12l22.328-122.93,22.328,122.93a18.783,18.783,0,0,1,.248,3.84C972.208,2393.52,962.037,2403.36,949.632,2403.36Z" transform="translate(128 -2023)" fill="#fff2e6"/>
  <path id="Tracé_95" data-name="Tracé 95" d="M1008.68,2393.28a21.794,21.794,0,0,1-7.69,1.44,22.918,22.918,0,0,1-21.339-14.41,19.484,19.484,0,0,1-.992-3.6l-22.328-122.93,64.5,108.04a16.227,16.227,0,0,1,1.74,3.6,26.722,26.722,0,0,1,1.49,7.45A22.672,22.672,0,0,1,1008.68,2393.28Z" transform="translate(128 -2023)" fill="#fff2e6"/>
  <path id="Tracé_96" data-name="Tracé 96" d="M1060.78,2364.22a23.441,23.441,0,0,1-14.64,5.05,22.654,22.654,0,0,1-17.37-7.93,25.146,25.146,0,0,1-2.23-3.12l-64.5-108.05,98.743,80.2a14.23,14.23,0,0,1,2.73,2.64,21.824,21.824,0,0,1,5.21,14.17A21.156,21.156,0,0,1,1060.78,2364.22Z" transform="translate(128 -2023)" fill="#fff2e6"/>
  <path id="Tracé_97" data-name="Tracé 97" d="M1099.48,2319.56a23.157,23.157,0,0,1-19.6,11.05,24.364,24.364,0,0,1-11.41-2.88,36.182,36.182,0,0,1-3.23-2.16L966.5,2245.13l121.068,42.74a25.419,25.419,0,0,1,3.72,1.68,22.14,22.14,0,0,1,11.41,18.97A25.689,25.689,0,0,1,1099.48,2319.56Z" transform="translate(128 -2023)" fill="#fff2e6"/>
  <path id="Tracé_98" data-name="Tracé 98" d="M1120.07,2264.82a22.836,22.836,0,0,1-22.33,18.25,22.056,22.056,0,0,1-3.97-.24,21.213,21.213,0,0,1-3.72-.96l-121.315-42.74H1097.74a22.033,22.033,0,0,1,3.97.24c10.92,1.92,18.86,11.04,18.86,21.61C1120.32,2262.18,1120.32,2263.62,1120.07,2264.82Z" transform="translate(128 -2023)" fill="#fff2e6"/>
  <path id="Tracé_99" data-name="Tracé 99" d="M1111.39,2235.77a28.4,28.4,0,0,0,15.87-25.21,34.528,34.528,0,0,0-.49-5.05,28.814,28.814,0,0,0-25.31-23.29,28.2,28.2,0,0,0,7.69-19.2,26.657,26.657,0,0,0-3.97-14.17,29.974,29.974,0,0,0-32-13.45,28.042,28.042,0,0,0,2.23-10.8,27.743,27.743,0,0,0-10.42-21.85,29.192,29.192,0,0,0-18.85-6.72,29.586,29.586,0,0,0-15.88,4.56v-1.2a28.716,28.716,0,0,0-19.35-26.89,29.149,29.149,0,0,0-10.17-1.68,29.625,29.625,0,0,0-23.322,11.04c-3.473-11.77-14.637-20.17-27.786-20.17a29.316,29.316,0,0,0-28.034,19.93,29.624,29.624,0,0,0-23.32-11.04,31.167,31.167,0,0,0-10.172,1.68,28.419,28.419,0,0,0-19.351,26.65v1.2a31.149,31.149,0,0,0-15.878-4.56,29.224,29.224,0,0,0-18.855,6.72,27.754,27.754,0,0,0-10.419,21.85,27.2,27.2,0,0,0,2.232,10.8,27.9,27.9,0,0,0-6.45-.72,29.655,29.655,0,0,0-25.553,14.17,27.27,27.27,0,0,0-3.97,14.17,28.239,28.239,0,0,0,7.691,19.2,29.344,29.344,0,0,0-25.3,23.29c0,2.16-.248,3.85-.248,5.53a28.124,28.124,0,0,0,15.878,25.21A28.382,28.382,0,0,0,772,2260.98a34.687,34.687,0,0,0,.5,5.04c2.233,12.49,12.653,21.61,25.305,23.29a28.267,28.267,0,0,0-7.69,19.21,26.714,26.714,0,0,0,3.969,14.17,29.988,29.988,0,0,0,32,13.44,28.077,28.077,0,0,0-2.233,10.81,27.767,27.767,0,0,0,10.42,21.85,29.222,29.222,0,0,0,18.854,6.72A29.589,29.589,0,0,0,869,2370.95v1.2a28.729,28.729,0,0,0,19.351,26.89,29.168,29.168,0,0,0,10.172,1.68,29.6,29.6,0,0,0,23.32-11.05,29.682,29.682,0,0,0,56.069,0,29.6,29.6,0,0,0,23.315,11.05,31.221,31.221,0,0,0,10.18-1.68,28.739,28.739,0,0,0,19.35-26.89v-1.2a30.458,30.458,0,0,0,15.88,4.56,29.23,29.23,0,0,0,18.85-6.72,27.758,27.758,0,0,0,10.42-21.85,27.182,27.182,0,0,0-2.23-10.81,29.982,29.982,0,0,0,32-13.44,27.312,27.312,0,0,0,3.97-14.17,28.271,28.271,0,0,0-7.69-19.21,29.617,29.617,0,0,0,25.3-23.29,34.417,34.417,0,0,0,.5-5.04A30.341,30.341,0,0,0,1111.39,2235.77Zm8.68-29.06a19.987,19.987,0,0,1,.25,3.85c0,10.56-7.69,19.69-18.86,21.61a22.056,22.056,0,0,1-3.97.24H989.327a68.015,68.015,0,0,0-1.241-6.97l101.714-35.77a21.213,21.213,0,0,1,3.72-.96,22.056,22.056,0,0,1,3.97-.24C1108.41,2188.47,1118.09,2195.91,1120.07,2206.71Zm-40.19-65.78a22.344,22.344,0,0,1,19.6,11.04,21.792,21.792,0,0,1,2.98,11.05,21.353,21.353,0,0,1-11.42,18.96,25.419,25.419,0,0,1-3.72,1.68L985.6,2219.44a30.427,30.427,0,0,0-3.721-6l82.866-67.23a35.951,35.951,0,0,1,3.22-2.16A24.546,24.546,0,0,1,1079.88,2140.93Zm-51.11-30.74a22.644,22.644,0,0,1,17.37-7.92,23.491,23.491,0,0,1,14.64,5.04,21.356,21.356,0,0,1,8.18,16.81,21.764,21.764,0,0,1-5.21,14.16,13.452,13.452,0,0,1-2.73,2.65l-83.105,67.47a48.29,48.29,0,0,0-5.458-4.57l54.083-90.52A35.108,35.108,0,0,1,1028.77,2110.19Zm-50.111-15.12a19.581,19.581,0,0,1,.992-3.61c3.225-8.88,12.157-14.4,21.339-14.4a22.89,22.89,0,0,1,22.57,22.09,19.75,19.75,0,0,1-1.49,7.44,23.63,23.63,0,0,1-1.73,3.6l-53.59,90.52c-2.232-.96-4.465-1.68-6.7-2.4Zm-29.027-26.9a22.528,22.528,0,0,1,22.825,21.85,20.071,20.071,0,0,1-.249,3.85l-19.1,103.24c-1.241,0-2.481-.24-3.722-.24a19.4,19.4,0,0,0-3.721.24l-18.855-103a18.937,18.937,0,0,1-.248-3.85A22.788,22.788,0,0,1,949.632,2068.17Zm-59.293,10.09a21.8,21.8,0,0,1,7.691-1.44c9.179,0,18.11,5.52,21.335,14.4a19.5,19.5,0,0,1,.993,3.61l18.855,103a54.568,54.568,0,0,0-6.7,2.4l-54.083-90.28a21.588,21.588,0,0,1-1.737-3.36,19.906,19.906,0,0,1-1.489-7.44A22.877,22.877,0,0,1,890.339,2078.26Zm-52.1,29.05a23.478,23.478,0,0,1,14.637-5.04,22.631,22.631,0,0,1,17.367,7.92,12.2,12.2,0,0,1,2.232,3.12l54.084,90.52a48.2,48.2,0,0,0-5.458,4.57l-82.862-67.23a13.764,13.764,0,0,1-2.729-2.65,21.8,21.8,0,0,1-5.21-14.16A22.339,22.339,0,0,1,838.24,2107.31Zm-41.679,55.71a22.394,22.394,0,0,1,2.977-11.05,23.164,23.164,0,0,1,19.6-11.04,25.13,25.13,0,0,1,11.412,2.88,36.217,36.217,0,0,1,3.225,2.16l82.862,67.23a29.265,29.265,0,0,0-3.473,6l-101.469-35.54a15.364,15.364,0,0,1-3.473-1.68A21.885,21.885,0,0,1,796.561,2163.02ZM778.7,2210.56a20.064,20.064,0,0,1,.249-3.85,22.629,22.629,0,0,1,22.328-18.24,22.045,22.045,0,0,1,3.969.24,16.759,16.759,0,0,1,3.721.96l101.717,35.77a58.043,58.043,0,0,0-1.24,6.97H801.275a23.463,23.463,0,0,1-3.97-.24A22.283,22.283,0,0,1,778.7,2210.56Zm.5,54.26a19.992,19.992,0,0,1-.248-3.84c0-10.57,7.69-19.69,18.854-21.61a22.033,22.033,0,0,1,3.97-.24H909.938a68.286,68.286,0,0,0,1.24,6.96l-101.965,35.54a21.181,21.181,0,0,1-3.721.96,22.045,22.045,0,0,1-3.969.24C790.607,2283.07,780.931,2275.62,779.2,2264.82Zm40.19,65.79a22.33,22.33,0,0,1-19.6-11.05,21.73,21.73,0,0,1-2.977-11.04,21.374,21.374,0,0,1,11.412-18.97c1.241-.72,2.481-1.2,3.473-1.68l101.717-35.78a47.459,47.459,0,0,0,3.473,6.01l-82.862,67.23a36.2,36.2,0,0,1-3.225,2.16A22.756,22.756,0,0,1,819.385,2330.61Zm50.859,30.73a22.641,22.641,0,0,1-17.367,7.93,23.429,23.429,0,0,1-14.637-5.05,21.321,21.321,0,0,1-8.187-16.8,21.808,21.808,0,0,1,5.21-14.17,14,14,0,0,1,2.729-2.64l82.862-67.23a49.082,49.082,0,0,0,5.458,4.56l-54.084,90.76A7.99,7.99,0,0,1,870.244,2361.34Zm50.362,15.13a19.412,19.412,0,0,1-.993,3.6,22.915,22.915,0,0,1-21.335,14.41,21.8,21.8,0,0,1-7.691-1.44,22.236,22.236,0,0,1-14.885-20.65,19.992,19.992,0,0,1,1.488-7.45,23.777,23.777,0,0,1,1.737-3.6l54.083-90.76c2.233.96,4.466,1.68,6.7,2.4Zm6.2,4.8v0Zm22.824,22.09a22.719,22.719,0,0,1-22.576-18.73h1.489l-1.737-3.84c0-.96.248-2.16.248-3.12l18.855-103.01c1.24,0,2.481.24,3.721.24a19.406,19.406,0,0,0,3.722-.24l18.854,103.01a18.715,18.715,0,0,1,.249,3.84C972.208,2393.52,962.037,2403.36,949.632,2403.36Zm59.048-10.08a21.794,21.794,0,0,1-7.69,1.44,22.918,22.918,0,0,1-21.339-14.41,19.484,19.484,0,0,1-.992-3.6L959.8,2273.7a54.494,54.494,0,0,0,6.7-2.4l54.088,90.76a16.2,16.2,0,0,1,1.73,3.6,26.719,26.719,0,0,1,1.49,7.45C1023.81,2381.51,1018.11,2389.91,1008.68,2393.28Zm52.1-29.06a23.441,23.441,0,0,1-14.64,5.05,22.654,22.654,0,0,1-17.37-7.93,25.146,25.146,0,0,1-2.23-3.12l-54.083-90.52a49.261,49.261,0,0,0,5.458-4.56l82.865,67.23a14.23,14.23,0,0,1,2.73,2.64,21.824,21.824,0,0,1,5.21,14.17A21.156,21.156,0,0,1,1060.78,2364.22Zm41.68-55.7a22.442,22.442,0,0,1-2.98,11.04,23.157,23.157,0,0,1-19.6,11.05,24.364,24.364,0,0,1-11.41-2.88,36.182,36.182,0,0,1-3.23-2.16l-82.86-67.23a48.713,48.713,0,0,0,3.722-6.01l101.718,35.78a25.419,25.419,0,0,1,3.72,1.68A21.226,21.226,0,0,1,1102.46,2308.52Zm17.61-43.7a22.836,22.836,0,0,1-22.33,18.25,22.056,22.056,0,0,1-3.97-.24,21.213,21.213,0,0,1-3.72-.96l-101.716-35.78a31.445,31.445,0,0,0,1.241-6.96H1097.74a22.033,22.033,0,0,1,3.97.24c10.92,1.92,18.86,11.04,18.86,21.61C1120.32,2262.18,1120.32,2263.62,1120.07,2264.82Z" transform="translate(128 -2023)" fill="#b58d6f"/>
  <path id="Tracé_100" data-name="Tracé 100" d="M916.636,2235.77c0,17.77,14.886,32.17,33.244,32.17s33.244-14.4,33.244-32.17-14.885-32.18-33.244-32.42C931.77,2203.59,916.884,2218,916.636,2235.77Z" transform="translate(128 -2023)" fill="#fff2e6"/>
  <path id="Tracé_101" data-name="Tracé 101" d="M886.07,2254.11a19.989,19.989,0,0,1,.248,3.84c0,10.57-7.691,19.69-18.855,21.61a22.045,22.045,0,0,1-3.969.24H734.487l121.068-42.74a21.223,21.223,0,0,1,3.721-.96,22.056,22.056,0,0,1,3.97-.24C874.41,2235.86,884.085,2243.31,886.07,2254.11Z" transform="translate(128 -2023)" fill="#bc383d"/>
  <path id="Tracé_102" data-name="Tracé 102" d="M865.479,2199.37a21.739,21.739,0,0,1,2.977,11.04,21.364,21.364,0,0,1-11.412,18.97,25.423,25.423,0,0,1-3.722,1.68L732.5,2273.8l98.74-80.2a36.45,36.45,0,0,1,3.225-2.16,23.662,23.662,0,0,1,11.413-2.88A22.393,22.393,0,0,1,865.479,2199.37Z" transform="translate(128 -2023)" fill="#bc383d"/>
  <path id="Tracé_103" data-name="Tracé 103" d="M812.139,2149.67a23.482,23.482,0,0,1,14.638,5.04,21.326,21.326,0,0,1,8.187,16.81,21.8,21.8,0,0,1-5.21,14.16,14.028,14.028,0,0,1-2.729,2.64l-98.988,80.44,64.5-108.05a35.3,35.3,0,0,1,2.233-3.12A22.631,22.631,0,0,1,812.139,2149.67Z" transform="translate(128 -2023)" fill="#bc383d"/>
  <path id="Tracé_104" data-name="Tracé 104" d="M766.987,2124.45a21.593,21.593,0,0,1,7.691,1.45,21.982,21.982,0,0,1,14.885,20.64,19.913,19.913,0,0,1-1.488,7.45,23.99,23.99,0,0,1-1.737,3.6l-64.5,108.05,22.328-122.94a19.477,19.477,0,0,1,.992-3.6A23.95,23.95,0,0,1,766.987,2124.45Z" transform="translate(128 -2023)" fill="#bc383d"/>
  <path id="Tracé_105" data-name="Tracé 105" d="M715.632,2115.57a22.527,22.527,0,0,1,22.825,21.85,19.99,19.99,0,0,1-.248,3.84L715.88,2264.2l-22.328-122.94a18.785,18.785,0,0,1-.248-3.84C692.808,2125.42,702.98,2115.57,715.632,2115.57Z" transform="translate(128 -2023)" fill="#bc383d"/>
  <path id="Tracé_106" data-name="Tracé 106" d="M656.339,2125.66a21.594,21.594,0,0,1,7.691-1.45c9.179,0,18.11,5.53,21.335,14.41a19.4,19.4,0,0,1,.993,3.6l22.328,122.94-64.5-108.05a21.606,21.606,0,0,1-1.737-3.36,19.915,19.915,0,0,1-1.489-7.45A23.443,23.443,0,0,1,656.339,2125.66Z" transform="translate(128 -2023)" fill="#bc383d"/>
  <path id="Tracé_107" data-name="Tracé 107" d="M604.24,2154.71a23.48,23.48,0,0,1,14.637-5.04,22.631,22.631,0,0,1,17.367,7.92,12.2,12.2,0,0,1,2.232,3.12l64.5,108.05-98.74-80.2a14,14,0,0,1-2.729-2.64,21.8,21.8,0,0,1-5.21-14.16A22.324,22.324,0,0,1,604.24,2154.71Z" transform="translate(128 -2023)" fill="#bc383d"/>
  <path id="Tracé_108" data-name="Tracé 108" d="M565.786,2199.37a23.151,23.151,0,0,1,19.6-11.05,25.129,25.129,0,0,1,11.412,2.88,36.146,36.146,0,0,1,3.225,2.16l98.74,80.2-121.068-42.5a15.354,15.354,0,0,1-3.473-1.68,22.142,22.142,0,0,1-11.412-18.97A18.178,18.178,0,0,1,565.786,2199.37Z" transform="translate(128 -2023)" fill="#bc383d"/>
  <path id="Tracé_109" data-name="Tracé 109" d="M544.7,2257.95a19.907,19.907,0,0,1,.249-3.84,22.637,22.637,0,0,1,22.328-18.25,22.045,22.045,0,0,1,3.969.24,16.759,16.759,0,0,1,3.721.96l121.068,42.74H567.027a23.463,23.463,0,0,1-3.97-.24A22.286,22.286,0,0,1,544.7,2257.95Z" transform="translate(128 -2023)" fill="#bc383d"/>
  <path id="Tracé_110" data-name="Tracé 110" d="M545.2,2312.22a19.99,19.99,0,0,1-.248-3.84c0-10.57,7.69-19.69,18.854-21.61a22.056,22.056,0,0,1,3.97-.24H696.778l-121.565,42.49a21.2,21.2,0,0,1-3.721.96,22.045,22.045,0,0,1-3.969.24C556.607,2330.46,546.931,2323.02,545.2,2312.22Z" transform="translate(128 -2023)" fill="#bc383d"/>
  <path id="Tracé_111" data-name="Tracé 111" d="M565.786,2366.96a21.73,21.73,0,0,1-2.977-11.04,21.363,21.363,0,0,1,11.412-18.97c1.241-.72,2.481-1.2,3.473-1.68l121.068-42.74-98.74,80.19a36.2,36.2,0,0,1-3.225,2.16,23.551,23.551,0,0,1-11.412,2.89A22.13,22.13,0,0,1,565.786,2366.96Z" transform="translate(128 -2023)" fill="#bc383d"/>
  <path id="Tracé_112" data-name="Tracé 112" d="M618.877,2416.66a23.479,23.479,0,0,1-14.637-5.04,21.326,21.326,0,0,1-8.187-16.81,21.8,21.8,0,0,1,5.21-14.16,14,14,0,0,1,2.729-2.64l98.74-80.2-64.5,108.05a34.905,34.905,0,0,1-2.233,3.12A22.317,22.317,0,0,1,618.877,2416.66Z" transform="translate(128 -2023)" fill="#bc383d"/>
  <path id="Tracé_113" data-name="Tracé 113" d="M664.278,2441.87a21.8,21.8,0,0,1-7.691-1.44,22.216,22.216,0,0,1-14.885-20.65,19.9,19.9,0,0,1,1.488-7.44,23.768,23.768,0,0,1,1.737-3.6l64.5-108.05L687.1,2423.63a19.474,19.474,0,0,1-.992,3.6A23.942,23.942,0,0,1,664.278,2441.87Z" transform="translate(128 -2023)" fill="#bc383d"/>
  <path id="Tracé_114" data-name="Tracé 114" d="M715.632,2450.76a22.728,22.728,0,0,1-22.576-18.73h1.489l-1.737-3.84c0-.96.248-2.16.248-3.12l22.328-122.94,22.328,122.94a18.779,18.779,0,0,1,.248,3.84C738.208,2440.91,728.037,2450.76,715.632,2450.76Z" transform="translate(128 -2023)" fill="#bc383d"/>
  <path id="Tracé_115" data-name="Tracé 115" d="M774.678,2440.67a21.8,21.8,0,0,1-7.691,1.44,22.907,22.907,0,0,1-21.336-14.4,19.482,19.482,0,0,1-.992-3.6l-22.328-122.94,64.5,108.05a16.3,16.3,0,0,1,1.737,3.6,26.435,26.435,0,0,1,1.488,7.44A22.653,22.653,0,0,1,774.678,2440.67Z" transform="translate(128 -2023)" fill="#bc383d"/>
  <path id="Tracé_116" data-name="Tracé 116" d="M826.777,2411.62a23.482,23.482,0,0,1-14.638,5.04,22.63,22.63,0,0,1-17.366-7.92,24.351,24.351,0,0,1-2.233-3.12l-64.5-108.05,98.74,80.2a14.025,14.025,0,0,1,2.729,2.64,21.8,21.8,0,0,1,5.209,14.16A21.11,21.11,0,0,1,826.777,2411.62Z" transform="translate(128 -2023)" fill="#bc383d"/>
  <path id="Tracé_117" data-name="Tracé 117" d="M865.479,2366.96a23.176,23.176,0,0,1-19.6,11.05,24.275,24.275,0,0,1-11.413-2.89,36.557,36.557,0,0,1-3.225-2.16l-98.74-80.43,121.068,42.74a25.444,25.444,0,0,1,3.722,1.68,22.142,22.142,0,0,1,11.412,18.97A25.751,25.751,0,0,1,865.479,2366.96Z" transform="translate(128 -2023)" fill="#bc383d"/>
  <path id="Tracé_118" data-name="Tracé 118" d="M886.07,2312.22a22.83,22.83,0,0,1-22.328,18.24,22.045,22.045,0,0,1-3.969-.24,21.232,21.232,0,0,1-3.722-.96l-121.316-42.73H863.742a22.045,22.045,0,0,1,3.969.24c10.916,1.92,18.855,11.04,18.855,21.61C886.318,2309.58,886.318,2311.02,886.07,2312.22Z" transform="translate(128 -2023)" fill="#bc383d"/>
  <path id="Tracé_119" data-name="Tracé 119" d="M877.387,2283.16a28.384,28.384,0,0,0,15.878-25.21,34.549,34.549,0,0,0-.5-5.04,28.817,28.817,0,0,0-25.3-23.29,28.245,28.245,0,0,0,7.691-19.21,26.656,26.656,0,0,0-3.969-14.16,29.98,29.98,0,0,0-32-13.45,28.067,28.067,0,0,0,2.233-10.8,27.738,27.738,0,0,0-10.42-21.85,29.179,29.179,0,0,0-18.855-6.73,29.51,29.51,0,0,0-15.877,4.57v-1.21a28.729,28.729,0,0,0-19.351-26.89,29.172,29.172,0,0,0-10.172-1.68,29.6,29.6,0,0,0-23.321,11.05c-3.473-11.77-14.637-20.17-27.786-20.17a29.317,29.317,0,0,0-28.034,19.93,29.6,29.6,0,0,0-23.32-11.05,31.167,31.167,0,0,0-10.172,1.68,28.429,28.429,0,0,0-19.351,26.65v1.2a31.151,31.151,0,0,0-15.878-4.56,29.181,29.181,0,0,0-18.855,6.73,27.74,27.74,0,0,0-10.419,21.85,27.2,27.2,0,0,0,2.232,10.8,27.9,27.9,0,0,0-6.45-.72,29.632,29.632,0,0,0-25.553,14.17,27.262,27.262,0,0,0-3.97,14.16,28.244,28.244,0,0,0,7.691,19.21,29.345,29.345,0,0,0-25.3,23.29c0,2.16-.248,3.84-.248,5.52a28.112,28.112,0,0,0,15.878,25.21A28.409,28.409,0,0,0,538,2308.38a34.684,34.684,0,0,0,.5,5.04c2.233,12.48,12.653,21.61,25.305,23.29a28.248,28.248,0,0,0-7.69,19.21,26.657,26.657,0,0,0,3.969,14.16,29.98,29.98,0,0,0,32,13.45,28.065,28.065,0,0,0-2.233,10.8,27.738,27.738,0,0,0,10.42,21.85,29.232,29.232,0,0,0,18.854,6.73A29.6,29.6,0,0,0,635,2418.34v1.2a28.741,28.741,0,0,0,19.351,26.9,29.168,29.168,0,0,0,10.172,1.68,29.634,29.634,0,0,0,23.32-11.05,29.682,29.682,0,0,0,56.069,0,29.634,29.634,0,0,0,23.32,11.05,31.172,31.172,0,0,0,10.172-1.68,28.741,28.741,0,0,0,19.351-26.9v-1.2a30.478,30.478,0,0,0,15.877,4.57,29.233,29.233,0,0,0,18.855-6.73,27.738,27.738,0,0,0,10.42-21.85,27.188,27.188,0,0,0-2.233-10.8,29.98,29.98,0,0,0,32-13.45,27.262,27.262,0,0,0,3.969-14.16,28.244,28.244,0,0,0-7.691-19.21,29.631,29.631,0,0,0,25.306-23.29,34.684,34.684,0,0,0,.5-5.04A30.352,30.352,0,0,0,877.387,2283.16Zm8.683-29.05a19.989,19.989,0,0,1,.248,3.84c0,10.57-7.691,19.69-18.855,21.61a22.045,22.045,0,0,1-3.969.24H755.327a68.292,68.292,0,0,0-1.241-6.96L855.8,2237.06a21.247,21.247,0,0,1,3.721-.96,22.056,22.056,0,0,1,3.97-.24C874.41,2235.86,884.085,2243.31,886.07,2254.11Zm-40.191-65.79a22.331,22.331,0,0,1,19.6,11.05,21.739,21.739,0,0,1,2.977,11.04,21.364,21.364,0,0,1-11.412,18.97,25.423,25.423,0,0,1-3.722,1.68L751.6,2266.84a30.73,30.73,0,0,0-3.721-6.01l82.862-67.23a36.308,36.308,0,0,1,3.225-2.16A24.544,24.544,0,0,1,845.879,2188.32Zm-51.106-30.73a22.631,22.631,0,0,1,17.366-7.92,23.482,23.482,0,0,1,14.638,5.04,21.326,21.326,0,0,1,8.187,16.81,21.8,21.8,0,0,1-5.21,14.16,14.028,14.028,0,0,1-2.729,2.64l-83.11,67.47a49.288,49.288,0,0,0-5.458-4.56l54.083-90.52A35.1,35.1,0,0,1,794.773,2157.59Zm-50.114-15.13a19.482,19.482,0,0,1,.992-3.6c3.225-8.88,12.157-14.41,21.336-14.41a21.593,21.593,0,0,1,7.691,1.45,21.982,21.982,0,0,1,14.885,20.64,19.913,19.913,0,0,1-1.488,7.45,23.99,23.99,0,0,1-1.737,3.6l-53.587,90.52c-2.233-.96-4.466-1.68-6.7-2.4Zm-29.027-26.89a22.527,22.527,0,0,1,22.825,21.85,19.913,19.913,0,0,1-.249,3.84l-19.1,103.25c-1.241,0-2.481-.24-3.722-.24a19.4,19.4,0,0,0-3.721.24L692.808,2141.5a18.785,18.785,0,0,1-.248-3.84A22.788,22.788,0,0,1,715.632,2115.57Zm-59.293,10.09a21.594,21.594,0,0,1,7.691-1.45c9.179,0,18.11,5.53,21.335,14.41a19.4,19.4,0,0,1,.993,3.6l18.855,103.01a54.568,54.568,0,0,0-6.7,2.4l-54.083-90.28a21.6,21.6,0,0,1-1.737-3.36,19.916,19.916,0,0,1-1.489-7.45A22.874,22.874,0,0,1,656.339,2125.66Zm-52.1,29.05a23.48,23.48,0,0,1,14.637-5.04,22.631,22.631,0,0,1,17.367,7.92,12.2,12.2,0,0,1,2.232,3.12l54.084,90.52a49.2,49.2,0,0,0-5.458,4.56l-82.862-67.23a14,14,0,0,1-2.729-2.64,21.8,21.8,0,0,1-5.21-14.16A22.324,22.324,0,0,1,604.24,2154.71Zm-41.679,55.7a22.384,22.384,0,0,1,2.977-11.04,23.151,23.151,0,0,1,19.6-11.05,25.132,25.132,0,0,1,11.412,2.88,36.164,36.164,0,0,1,3.225,2.16l82.862,67.23a29.591,29.591,0,0,0-3.473,6.01l-101.469-35.54a15.354,15.354,0,0,1-3.473-1.68A21.888,21.888,0,0,1,562.561,2210.41ZM544.7,2257.95a19.907,19.907,0,0,1,.249-3.84,22.637,22.637,0,0,1,22.328-18.25,22.045,22.045,0,0,1,3.969.24,16.759,16.759,0,0,1,3.721.96l101.717,35.78a58.211,58.211,0,0,0-1.24,6.96H567.275a23.463,23.463,0,0,1-3.97-.24A22.275,22.275,0,0,1,544.7,2257.95Zm.5,54.27a19.99,19.99,0,0,1-.248-3.84c0-10.57,7.69-19.69,18.854-21.61a22.056,22.056,0,0,1,3.97-.24H675.938a68.282,68.282,0,0,0,1.24,6.96l-101.965,35.53a21.2,21.2,0,0,1-3.721.96,22.045,22.045,0,0,1-3.969.24C556.607,2330.46,546.931,2323.02,545.2,2312.22Zm40.19,65.79a22.351,22.351,0,0,1-19.6-11.05,21.73,21.73,0,0,1-2.977-11.04,21.363,21.363,0,0,1,11.412-18.97c1.241-.72,2.481-1.2,3.473-1.68l101.717-35.78a48.024,48.024,0,0,0,3.473,6l-82.862,67.23a36.2,36.2,0,0,1-3.225,2.16A22.664,22.664,0,0,1,585.385,2378.01Zm50.859,30.73a22.631,22.631,0,0,1-17.367,7.92,23.479,23.479,0,0,1-14.637-5.04,21.326,21.326,0,0,1-8.187-16.81,21.8,21.8,0,0,1,5.21-14.16,14,14,0,0,1,2.729-2.64l82.862-67.23a49.225,49.225,0,0,0,5.458,4.56l-54.084,90.76A7.987,7.987,0,0,1,636.244,2408.74Zm50.362,15.13a19.41,19.41,0,0,1-.993,3.6,22.906,22.906,0,0,1-21.335,14.4,21.8,21.8,0,0,1-7.691-1.44,22.216,22.216,0,0,1-14.885-20.65,19.9,19.9,0,0,1,1.488-7.44,23.768,23.768,0,0,1,1.737-3.6l54.083-90.76c2.233.96,4.466,1.68,6.7,2.4Zm6.2,4.8v0Zm22.824,22.09a22.728,22.728,0,0,1-22.576-18.73h1.489l-1.737-3.84c0-.96.248-2.16.248-3.12l18.855-103.01c1.24,0,2.481.24,3.721.24a19.406,19.406,0,0,0,3.722-.24l18.854,103.01a18.711,18.711,0,0,1,.249,3.84C738.209,2440.91,728.037,2450.76,715.632,2450.76Zm59.046-10.09a21.8,21.8,0,0,1-7.691,1.44,22.907,22.907,0,0,1-21.336-14.4,19.482,19.482,0,0,1-.992-3.6L725.8,2321.1a54.535,54.535,0,0,0,6.7-2.4l54.084,90.76a16.354,16.354,0,0,1,1.737,3.6,26.433,26.433,0,0,1,1.488,7.44C789.811,2428.91,784.1,2437.31,774.678,2440.67Zm52.1-29.05a23.482,23.482,0,0,1-14.638,5.04,22.63,22.63,0,0,1-17.366-7.92,24.351,24.351,0,0,1-2.233-3.12l-54.083-90.52a49.314,49.314,0,0,0,5.458-4.56l82.862,67.23a14.025,14.025,0,0,1,2.729,2.64,21.8,21.8,0,0,1,5.209,14.16A21.11,21.11,0,0,1,826.777,2411.62Zm41.679-55.7a22.4,22.4,0,0,1-2.977,11.04,23.176,23.176,0,0,1-19.6,11.05,24.274,24.274,0,0,1-11.412-2.89,36.557,36.557,0,0,1-3.225-2.16l-82.862-67.23a49.328,49.328,0,0,0,3.722-6l101.716,35.78a25.441,25.441,0,0,1,3.722,1.68A21.219,21.219,0,0,1,868.456,2355.92Zm17.614-43.7a22.83,22.83,0,0,1-22.328,18.24,22.045,22.045,0,0,1-3.969-.24,21.232,21.232,0,0,1-3.722-.96l-101.717-35.77a31.443,31.443,0,0,0,1.241-6.96H863.742a22.045,22.045,0,0,1,3.969.24c10.916,1.92,18.855,11.04,18.855,21.61C886.318,2309.58,886.318,2311.02,886.07,2312.22Z" transform="translate(128 -2023)" fill="#b58d6f"/>
  <path id="Tracé_120" data-name="Tracé 120" d="M682.636,2283.16c0,17.77,14.886,32.18,33.244,32.18s33.244-14.41,33.244-32.18-14.885-32.17-33.244-32.41C697.77,2250.99,682.884,2265.4,682.636,2283.16Z" transform="translate(128 -2023)" fill="#bc383d"/>
  <path id="Tracé_121" data-name="Tracé 121" d="M1403.07,2213.49a19.832,19.832,0,0,1,.25,3.84c0,10.56-7.69,19.69-18.86,21.61a22.056,22.056,0,0,1-3.97.24h-129l121.06-42.74a21.545,21.545,0,0,1,3.73-.96,22.056,22.056,0,0,1,3.97-.24C1391.41,2195.24,1401.09,2202.68,1403.07,2213.49Z" transform="translate(128 -2023)" fill="#1a1f2c"/>
  <path id="Tracé_122" data-name="Tracé 122" d="M1382.48,2158.74a21.792,21.792,0,0,1,2.98,11.05,21.353,21.353,0,0,1-11.42,18.96,24.478,24.478,0,0,1-3.72,1.69l-120.82,42.73,98.74-80.19a36.182,36.182,0,0,1,3.23-2.16,23.637,23.637,0,0,1,11.41-2.88A22.41,22.41,0,0,1,1382.48,2158.74Z" transform="translate(128 -2023)" fill="#1a1f2c"/>
  <path id="Tracé_123" data-name="Tracé 123" d="M1329.14,2109.04a23.491,23.491,0,0,1,14.64,5.04,21.356,21.356,0,0,1,8.18,16.81,21.81,21.81,0,0,1-5.21,14.17,13.674,13.674,0,0,1-2.73,2.64l-98.98,80.43,64.5-108.05a35.072,35.072,0,0,1,2.23-3.12A22.644,22.644,0,0,1,1329.14,2109.04Z" transform="translate(128 -2023)" fill="#1a1f2c"/>
  <path id="Tracé_124" data-name="Tracé 124" d="M1283.99,2083.83a22.89,22.89,0,0,1,22.57,22.09,19.75,19.75,0,0,1-1.49,7.44,23.63,23.63,0,0,1-1.73,3.6l-64.51,108.05,22.33-122.93a19.356,19.356,0,0,1,1-3.6A23.922,23.922,0,0,1,1283.99,2083.83Z" transform="translate(128 -2023)" fill="#1a1f2c"/>
  <path id="Tracé_125" data-name="Tracé 125" d="M1232.63,2074.94a22.535,22.535,0,0,1,22.83,21.85,19.934,19.934,0,0,1-.25,3.85l-22.33,122.93-22.33-122.93a18.686,18.686,0,0,1-.25-3.85C1209.81,2084.79,1219.98,2074.94,1232.63,2074.94Z" transform="translate(128 -2023)" fill="#1a1f2c"/>
  <path id="Tracé_126" data-name="Tracé 126" d="M1173.34,2085.03a21.8,21.8,0,0,1,7.69-1.44c9.18,0,18.11,5.52,21.34,14.4a20.448,20.448,0,0,1,.99,3.61l22.33,122.93-64.51-108.05a21.439,21.439,0,0,1-1.73-3.36,19.75,19.75,0,0,1-1.49-7.44A23.43,23.43,0,0,1,1173.34,2085.03Z" transform="translate(128 -2023)" fill="#1a1f2c"/>
  <path id="Tracé_127" data-name="Tracé 127" d="M1121.24,2114.08a23.491,23.491,0,0,1,14.64-5.04,22.609,22.609,0,0,1,17.36,7.92,12.145,12.145,0,0,1,2.24,3.12l64.5,108.05-98.74-80.19a14.23,14.23,0,0,1-2.73-2.64,21.863,21.863,0,0,1-5.21-14.17A22.34,22.34,0,0,1,1121.24,2114.08Z" transform="translate(128 -2023)" fill="#1a1f2c"/>
  <path id="Tracé_128" data-name="Tracé 128" d="M1082.79,2158.74a23.145,23.145,0,0,1,19.6-11.04,25.122,25.122,0,0,1,11.41,2.88,35.951,35.951,0,0,1,3.22,2.16l98.74,80.19-121.07-42.49a14.912,14.912,0,0,1-3.47-1.69,22.145,22.145,0,0,1-11.41-18.96A18.133,18.133,0,0,1,1082.79,2158.74Z" transform="translate(128 -2023)" fill="#1a1f2c"/>
  <path id="Tracé_129" data-name="Tracé 129" d="M1061.7,2217.33a19.832,19.832,0,0,1,.25-3.84,22.621,22.621,0,0,1,22.32-18.25,22,22,0,0,1,3.97.24,16.956,16.956,0,0,1,3.73.96l121.06,42.74h-129a23.474,23.474,0,0,1-3.97-.24A22.293,22.293,0,0,1,1061.7,2217.33Z" transform="translate(128 -2023)" fill="#1a1f2c"/>
  <path id="Tracé_130" data-name="Tracé 130" d="M1062.19,2271.59a20.648,20.648,0,0,1-.24-3.84c0-10.57,7.69-19.69,18.85-21.61a22.056,22.056,0,0,1,3.97-.24h129.01l-121.57,42.5a21.214,21.214,0,0,1-3.72.96,22.056,22.056,0,0,1-3.97.24C1073.61,2289.84,1063.93,2282.4,1062.19,2271.59Z" transform="translate(128 -2023)" fill="#1a1f2c"/>
  <path id="Tracé_131" data-name="Tracé 131" d="M1082.79,2326.33a21.685,21.685,0,0,1-2.98-11.04,21.378,21.378,0,0,1,11.41-18.97c1.24-.72,2.48-1.2,3.47-1.68l121.07-42.74-98.74,80.2a35.951,35.951,0,0,1-3.22,2.16,23.7,23.7,0,0,1-11.41,2.88A22.1,22.1,0,0,1,1082.79,2326.33Z" transform="translate(128 -2023)" fill="#1a1f2c"/>
  <path id="Tracé_132" data-name="Tracé 132" d="M1135.88,2376.04a23.441,23.441,0,0,1-14.64-5.05,21.318,21.318,0,0,1-8.19-16.8,21.843,21.843,0,0,1,5.21-14.17,14.238,14.238,0,0,1,2.73-2.64l98.74-80.2-64.5,108.05a37.317,37.317,0,0,1-2.23,3.12A22.3,22.3,0,0,1,1135.88,2376.04Z" transform="translate(128 -2023)" fill="#1a1f2c"/>
  <path id="Tracé_133" data-name="Tracé 133" d="M1181.28,2401.25a21.8,21.8,0,0,1-7.69-1.44,22.229,22.229,0,0,1-14.89-20.65,20.035,20.035,0,0,1,1.49-7.45,23.708,23.708,0,0,1,1.74-3.6l64.5-108.04L1204.1,2383a19.325,19.325,0,0,1-.99,3.6A23.932,23.932,0,0,1,1181.28,2401.25Z" transform="translate(128 -2023)" fill="#1a1f2c"/>
  <path id="Tracé_134" data-name="Tracé 134" d="M1232.63,2410.13a22.709,22.709,0,0,1-22.57-18.73h1.48l-1.73-3.84c0-.96.25-2.16.25-3.12l22.32-122.93,22.33,122.93a18.638,18.638,0,0,1,.25,3.84C1255.21,2400.29,1245.04,2410.13,1232.63,2410.13Z" transform="translate(128 -2023)" fill="#1a1f2c"/>
  <path id="Tracé_135" data-name="Tracé 135" d="M1291.68,2400.05a21.8,21.8,0,0,1-7.69,1.44,22.9,22.9,0,0,1-21.34-14.41,19.325,19.325,0,0,1-.99-3.6l-22.33-122.93,64.5,108.04a16.093,16.093,0,0,1,1.74,3.61,26.577,26.577,0,0,1,1.49,7.44A22.661,22.661,0,0,1,1291.68,2400.05Z" transform="translate(128 -2023)" fill="#1a1f2c"/>
  <path id="Tracé_136" data-name="Tracé 136" d="M1343.78,2370.99a23.441,23.441,0,0,1-14.64,5.05,22.622,22.622,0,0,1-17.37-7.93,25.146,25.146,0,0,1-2.23-3.12l-64.5-108.05,98.74,80.2a14.238,14.238,0,0,1,2.73,2.64,21.824,21.824,0,0,1,5.21,14.17A21.156,21.156,0,0,1,1343.78,2370.99Z" transform="translate(128 -2023)" fill="#1a1f2c"/>
  <path id="Tracé_137" data-name="Tracé 137" d="M1382.48,2326.33a23.157,23.157,0,0,1-19.6,11.05,24.364,24.364,0,0,1-11.41-2.88,36.182,36.182,0,0,1-3.23-2.16l-98.74-80.44,121.07,42.74a25.446,25.446,0,0,1,3.72,1.68,22.14,22.14,0,0,1,11.41,18.97A25.69,25.69,0,0,1,1382.48,2326.33Z" transform="translate(128 -2023)" fill="#1a1f2c"/>
  <path id="Tracé_138" data-name="Tracé 138" d="M1403.07,2271.59a22.826,22.826,0,0,1-22.33,18.25,22.056,22.056,0,0,1-3.97-.24,21.192,21.192,0,0,1-3.72-.96l-121.31-42.74h129a22.056,22.056,0,0,1,3.97.24c10.92,1.92,18.86,11.04,18.86,21.61C1403.32,2268.95,1403.32,2270.39,1403.07,2271.59Z" transform="translate(128 -2023)" fill="#1a1f2c"/>
  <path id="Tracé_139" data-name="Tracé 139" d="M1394.39,2242.54a28.4,28.4,0,0,0,15.87-25.21,34.394,34.394,0,0,0-.49-5.04,28.824,28.824,0,0,0-25.31-23.3,28.2,28.2,0,0,0,7.69-19.2,26.657,26.657,0,0,0-3.97-14.17,29.974,29.974,0,0,0-32-13.45,28.042,28.042,0,0,0,2.23-10.8,27.743,27.743,0,0,0-10.42-21.85,29.192,29.192,0,0,0-18.85-6.72,29.586,29.586,0,0,0-15.88,4.56v-1.2a28.715,28.715,0,0,0-19.35-26.89,29.15,29.15,0,0,0-10.17-1.68,29.626,29.626,0,0,0-23.32,11.04c-3.47-11.76-14.64-20.17-27.79-20.17a29.321,29.321,0,0,0-28.03,19.93,29.626,29.626,0,0,0-23.32-11.04,31.122,31.122,0,0,0-10.17,1.68,28.415,28.415,0,0,0-19.35,26.65v1.2a31.17,31.17,0,0,0-15.88-4.56,29.237,29.237,0,0,0-18.86,6.72,27.773,27.773,0,0,0-10.42,21.85,27.179,27.179,0,0,0,2.24,10.8,27.959,27.959,0,0,0-6.45-.72,29.659,29.659,0,0,0-25.56,14.17,27.262,27.262,0,0,0-3.97,14.17,28.247,28.247,0,0,0,7.69,19.2,29.354,29.354,0,0,0-25.3,23.29c0,2.17-.25,3.85-.25,5.53a28.118,28.118,0,0,0,15.88,25.21,28.377,28.377,0,0,0-15.88,25.21,34.417,34.417,0,0,0,.5,5.04c2.23,12.49,12.65,21.61,25.3,23.29a28.271,28.271,0,0,0-7.69,19.21,26.707,26.707,0,0,0,3.97,14.17,29.982,29.982,0,0,0,32,13.44,28.279,28.279,0,0,0-2.23,10.81,27.757,27.757,0,0,0,10.42,21.85,29.237,29.237,0,0,0,18.86,6.72,29.577,29.577,0,0,0,15.87-4.56v1.2a28.739,28.739,0,0,0,19.35,26.89,29.205,29.205,0,0,0,10.18,1.68,29.626,29.626,0,0,0,23.32-11.04,29.681,29.681,0,0,0,56.06,0,29.641,29.641,0,0,0,23.32,11.04,31.222,31.222,0,0,0,10.18-1.68,28.739,28.739,0,0,0,19.35-26.89v-1.2a30.458,30.458,0,0,0,15.88,4.56,29.23,29.23,0,0,0,18.85-6.72,27.758,27.758,0,0,0,10.42-21.85,27.217,27.217,0,0,0-2.23-10.81,29.982,29.982,0,0,0,32-13.44,27.312,27.312,0,0,0,3.97-14.17,28.271,28.271,0,0,0-7.69-19.21,29.617,29.617,0,0,0,25.3-23.29,34.417,34.417,0,0,0,.5-5.04A30.341,30.341,0,0,0,1394.39,2242.54Zm8.68-29.05a19.832,19.832,0,0,1,.25,3.84c0,10.56-7.69,19.69-18.86,21.61a22.056,22.056,0,0,1-3.97.24H1272.33a70.76,70.76,0,0,0-1.24-6.97l101.71-35.77a21.213,21.213,0,0,1,3.72-.96,22.056,22.056,0,0,1,3.97-.24C1391.41,2195.24,1401.09,2202.68,1403.07,2213.49Zm-40.19-65.79a22.344,22.344,0,0,1,19.6,11.04,21.792,21.792,0,0,1,2.98,11.05,21.353,21.353,0,0,1-11.42,18.96,24.478,24.478,0,0,1-3.72,1.69l-101.71,35.77a30.75,30.75,0,0,0-3.73-6l82.87-67.23a35.951,35.951,0,0,1,3.22-2.16A24.546,24.546,0,0,1,1362.88,2147.7Zm-51.11-30.74a22.644,22.644,0,0,1,17.37-7.92,23.491,23.491,0,0,1,14.64,5.04,21.356,21.356,0,0,1,8.18,16.81,21.81,21.81,0,0,1-5.21,14.17,13.674,13.674,0,0,1-2.73,2.64l-83.11,67.47a50.12,50.12,0,0,0-5.45-4.57l54.08-90.52A35.072,35.072,0,0,1,1311.77,2116.96Zm-50.11-15.12a19.314,19.314,0,0,1,.99-3.6c3.23-8.89,12.16-14.41,21.34-14.41a22.89,22.89,0,0,1,22.57,22.09,19.75,19.75,0,0,1-1.49,7.44,23.63,23.63,0,0,1-1.73,3.6l-53.59,90.52c-2.23-.96-4.47-1.68-6.7-2.4Zm-29.03-26.9a22.535,22.535,0,0,1,22.83,21.85,19.882,19.882,0,0,1-.25,3.85l-19.1,103.24c-1.24,0-2.49-.24-3.73-.24a19.385,19.385,0,0,0-3.72.24l-18.85-103a18.686,18.686,0,0,1-.25-3.85A22.789,22.789,0,0,1,1232.63,2074.94Zm-59.29,10.09a21.8,21.8,0,0,1,7.69-1.44c9.18,0,18.11,5.52,21.34,14.41a20.116,20.116,0,0,1,.99,3.6l18.85,103a55.063,55.063,0,0,0-6.7,2.4l-54.08-90.28a22.412,22.412,0,0,1-1.74-3.36,19.931,19.931,0,0,1-1.48-7.44A22.86,22.86,0,0,1,1173.34,2085.03Zm-52.1,29.05a23.491,23.491,0,0,1,14.64-5.04,22.609,22.609,0,0,1,17.36,7.92,12.145,12.145,0,0,1,2.24,3.12l54.08,90.52a51.2,51.2,0,0,0-5.46,4.57l-82.86-67.23a14.23,14.23,0,0,1-2.73-2.64,21.863,21.863,0,0,1-5.21-14.17A22.34,22.34,0,0,1,1121.24,2114.08Zm-41.68,55.71a22.345,22.345,0,0,1,2.98-11.05,23.17,23.17,0,0,1,19.6-11.04,25.122,25.122,0,0,1,11.41,2.88,35.951,35.951,0,0,1,3.22,2.16l82.87,67.23a29.567,29.567,0,0,0-3.48,6l-101.47-35.53a14.912,14.912,0,0,1-3.47-1.69A21.891,21.891,0,0,1,1079.56,2169.79Zm-17.86,47.54a19.832,19.832,0,0,1,.25-3.84,22.621,22.621,0,0,1,22.32-18.25,22,22,0,0,1,3.97.24,16.956,16.956,0,0,1,3.73.96l101.71,35.77a60.035,60.035,0,0,0-1.24,6.97H1084.27a23.3,23.3,0,0,1-3.96-.24A22.282,22.282,0,0,1,1061.7,2217.33Zm.49,54.26a20.648,20.648,0,0,1-.24-3.84c0-10.57,7.69-19.69,18.85-21.61a22.056,22.056,0,0,1,3.97-.24h108.17a67.737,67.737,0,0,0,1.24,6.96l-101.97,35.54a21.214,21.214,0,0,1-3.72.96,22.056,22.056,0,0,1-3.97.24C1073.61,2289.84,1063.93,2282.4,1062.19,2271.59Zm40.2,65.79a22.332,22.332,0,0,1-19.6-11.04,21.747,21.747,0,0,1-2.98-11.05,21.378,21.378,0,0,1,11.41-18.97c1.24-.72,2.48-1.2,3.47-1.68l101.72-35.77a47.656,47.656,0,0,0,3.47,6l-82.86,67.23a35.951,35.951,0,0,1-3.22,2.16A22.749,22.749,0,0,1,1102.39,2337.38Zm50.85,30.73a22.587,22.587,0,0,1-17.36,7.93,23.441,23.441,0,0,1-14.64-5.05,21.318,21.318,0,0,1-8.19-16.8,21.843,21.843,0,0,1,5.21-14.17,14.238,14.238,0,0,1,2.73-2.64l82.86-67.23a49.926,49.926,0,0,0,5.46,4.56l-54.08,90.76A7.938,7.938,0,0,1,1153.24,2368.11Zm50.37,15.13a19.366,19.366,0,0,1-1,3.6,22.89,22.89,0,0,1-21.33,14.41,21.8,21.8,0,0,1-7.69-1.44,22.229,22.229,0,0,1-14.89-20.65,20.035,20.035,0,0,1,1.49-7.45,23.708,23.708,0,0,1,1.74-3.6l54.08-90.76c2.23.96,4.47,1.68,6.7,2.4Zm6.2,4.8v0Zm22.82,22.09a22.709,22.709,0,0,1-22.57-18.73h1.48l-1.73-3.84c0-.96.25-2.16.25-3.12l18.85-103c1.24,0,2.48.24,3.72.24a19.385,19.385,0,0,0,3.72-.24l18.86,103a18.638,18.638,0,0,1,.25,3.84C1255.21,2400.29,1245.04,2410.13,1232.63,2410.13Zm59.05-10.08a21.8,21.8,0,0,1-7.69,1.44,22.9,22.9,0,0,1-21.34-14.41,19.325,19.325,0,0,1-.99-3.6l-18.86-103.01a53.877,53.877,0,0,0,6.7-2.4l54.09,90.76a16.071,16.071,0,0,1,1.73,3.61,26.577,26.577,0,0,1,1.49,7.44C1306.81,2388.28,1301.11,2396.69,1291.68,2400.05Zm52.1-29.06a23.441,23.441,0,0,1-14.64,5.05,22.622,22.622,0,0,1-17.37-7.93,25.146,25.146,0,0,1-2.23-3.12l-54.08-90.52a48.9,48.9,0,0,0,5.45-4.56l82.87,67.23a14.238,14.238,0,0,1,2.73,2.64,21.824,21.824,0,0,1,5.21,14.17A21.156,21.156,0,0,1,1343.78,2370.99Zm41.68-55.7a22.508,22.508,0,0,1-2.98,11.05,23.17,23.17,0,0,1-19.6,11.04,24.364,24.364,0,0,1-11.41-2.88,36.182,36.182,0,0,1-3.23-2.16l-82.86-67.23a49.094,49.094,0,0,0,3.72-6l101.72,35.77a25.446,25.446,0,0,1,3.72,1.68A21.226,21.226,0,0,1,1385.46,2315.29Zm17.61-43.7a22.826,22.826,0,0,1-22.33,18.25,22.056,22.056,0,0,1-3.97-.24,21.192,21.192,0,0,1-3.72-.96l-101.72-35.78a30.71,30.71,0,0,0,1.24-6.96h108.17a22.056,22.056,0,0,1,3.97.24c10.92,1.92,18.86,11.04,18.86,21.61C1403.32,2268.95,1403.32,2270.39,1403.07,2271.59Z" transform="translate(128 -2023)" fill="#b58d6f"/>
  <path id="Tracé_140" data-name="Tracé 140" d="M1199.64,2242.54c0,17.77,14.88,32.17,33.24,32.17s33.24-14.4,33.24-32.17-14.88-32.18-33.24-32.42C1214.77,2210.36,1199.88,2224.77,1199.64,2242.54Z" transform="translate(128 -2023)" fill="#1a1f2c"/>
  <path id="Tracé_141" data-name="Tracé 141" d="M701.07,2191.24a19.99,19.99,0,0,1,.248,3.84c0,10.56-7.691,19.69-18.855,21.61a22.045,22.045,0,0,1-3.969.24H549.487l121.068-42.74a21.223,21.223,0,0,1,3.721-.96,22.056,22.056,0,0,1,3.97-.24C689.41,2172.99,699.085,2180.43,701.07,2191.24Z" transform="translate(128 -2023)" fill="#1a1f2c"/>
  <path id="Tracé_142" data-name="Tracé 142" d="M680.479,2136.49a21.8,21.8,0,0,1,2.977,11.05,21.376,21.376,0,0,1-11.412,18.97,25.447,25.447,0,0,1-3.722,1.68L547.5,2210.93l98.74-80.2a36.5,36.5,0,0,1,3.225-2.16,23.66,23.66,0,0,1,11.413-2.88A22.406,22.406,0,0,1,680.479,2136.49Z" transform="translate(128 -2023)" fill="#1a1f2c"/>
  <path id="Tracé_143" data-name="Tracé 143" d="M627.139,2086.79a23.481,23.481,0,0,1,14.638,5.04,21.354,21.354,0,0,1,8.187,16.81,21.828,21.828,0,0,1-5.21,14.17,14.026,14.026,0,0,1-2.729,2.64l-98.988,80.43,64.5-108.04a35.273,35.273,0,0,1,2.233-3.12A22.607,22.607,0,0,1,627.139,2086.79Z" transform="translate(128 -2023)" fill="#1a1f2c"/>
  <path id="Tracé_144" data-name="Tracé 144" d="M581.987,2061.58a22.9,22.9,0,0,1,22.576,22.09,19.9,19.9,0,0,1-1.488,7.44,24.072,24.072,0,0,1-1.737,3.61l-64.5,108.04,22.328-122.93a19.474,19.474,0,0,1,.992-3.6A23.935,23.935,0,0,1,581.987,2061.58Z" transform="translate(128 -2023)" fill="#1a1f2c"/>
  <path id="Tracé_145" data-name="Tracé 145" d="M530.632,2052.7a22.52,22.52,0,0,1,22.825,21.85,19.989,19.989,0,0,1-.248,3.84L530.88,2201.32l-22.328-122.93a18.781,18.781,0,0,1-.248-3.84C507.808,2062.54,517.98,2052.7,530.632,2052.7Z" transform="translate(128 -2023)" fill="#1a1f2c"/>
  <path id="Tracé_146" data-name="Tracé 146" d="M471.339,2062.78a21.8,21.8,0,0,1,7.691-1.44c9.179,0,18.11,5.52,21.335,14.41a19.4,19.4,0,0,1,.993,3.6l22.328,122.93-64.5-108.04a21.673,21.673,0,0,1-1.737-3.37,19.9,19.9,0,0,1-1.489-7.44A23.455,23.455,0,0,1,471.339,2062.78Z" transform="translate(128 -2023)" fill="#1a1f2c"/>
  <path id="Tracé_147" data-name="Tracé 147" d="M419.24,2091.83a23.478,23.478,0,0,1,14.637-5.04,22.607,22.607,0,0,1,17.367,7.93,12.194,12.194,0,0,1,2.232,3.12l64.5,108.04-98.74-80.19a14,14,0,0,1-2.729-2.64,21.828,21.828,0,0,1-5.21-14.17A22.354,22.354,0,0,1,419.24,2091.83Z" transform="translate(128 -2023)" fill="#1a1f2c"/>
  <path id="Tracé_148" data-name="Tracé 148" d="M380.786,2136.49a23.165,23.165,0,0,1,19.6-11.04,25.126,25.126,0,0,1,11.412,2.88,36.213,36.213,0,0,1,3.225,2.16l98.74,80.2-121.068-42.5a15.364,15.364,0,0,1-3.473-1.68,22.155,22.155,0,0,1-11.412-18.97A18.227,18.227,0,0,1,380.786,2136.49Z" transform="translate(128 -2023)" fill="#1a1f2c"/>
  <path id="Tracé_149" data-name="Tracé 149" d="M359.7,2195.08a19.911,19.911,0,0,1,.249-3.84,22.628,22.628,0,0,1,22.328-18.25,22.045,22.045,0,0,1,3.969.24,16.745,16.745,0,0,1,3.721.96l121.068,42.74H382.027a23.463,23.463,0,0,1-3.97-.24A22.294,22.294,0,0,1,359.7,2195.08Z" transform="translate(128 -2023)" fill="#1a1f2c"/>
  <path id="Tracé_150" data-name="Tracé 150" d="M360.2,2249.34a19.991,19.991,0,0,1-.248-3.84c0-10.56,7.69-19.69,18.854-21.61a22.056,22.056,0,0,1,3.97-.24H511.778l-121.564,42.5a21.234,21.234,0,0,1-3.722.96,22.045,22.045,0,0,1-3.969.24C371.607,2267.59,361.931,2260.15,360.2,2249.34Z" transform="translate(128 -2023)" fill="#1a1f2c"/>
  <path id="Tracé_151" data-name="Tracé 151" d="M380.786,2304.09a21.767,21.767,0,0,1-2.977-11.05,21.385,21.385,0,0,1,11.412-18.97c1.241-.72,2.481-1.2,3.473-1.68l121.068-42.74-98.74,80.2a36.213,36.213,0,0,1-3.225,2.16,23.656,23.656,0,0,1-11.412,2.88A22.121,22.121,0,0,1,380.786,2304.09Z" transform="translate(128 -2023)" fill="#1a1f2c"/>
  <path id="Tracé_152" data-name="Tracé 152" d="M433.877,2353.79a23.478,23.478,0,0,1-14.637-5.04,21.354,21.354,0,0,1-8.187-16.81,21.846,21.846,0,0,1,5.21-14.17,14,14,0,0,1,2.729-2.64l98.74-80.19-64.5,108.04a35.162,35.162,0,0,1-2.233,3.13A22.318,22.318,0,0,1,433.877,2353.79Z" transform="translate(128 -2023)" fill="#1a1f2c"/>
  <path id="Tracé_153" data-name="Tracé 153" d="M479.278,2379a21.8,21.8,0,0,1-7.691-1.44,22.226,22.226,0,0,1-14.885-20.65,19.9,19.9,0,0,1,1.488-7.44,23.78,23.78,0,0,1,1.737-3.6l64.5-108.05L502.1,2360.75a19.487,19.487,0,0,1-.992,3.6A23.936,23.936,0,0,1,479.278,2379Z" transform="translate(128 -2023)" fill="#1a1f2c"/>
  <path id="Tracé_154" data-name="Tracé 154" d="M530.632,2387.88a22.72,22.72,0,0,1-22.576-18.72h1.489l-1.737-3.85c0-.96.248-2.16.248-3.12l22.328-122.93,22.328,122.93a18.782,18.782,0,0,1,.248,3.84C553.208,2378.04,543.037,2387.88,530.632,2387.88Z" transform="translate(128 -2023)" fill="#1a1f2c"/>
  <path id="Tracé_155" data-name="Tracé 155" d="M589.678,2377.8a21.8,21.8,0,0,1-7.691,1.44,22.9,22.9,0,0,1-21.336-14.41,19.489,19.489,0,0,1-.992-3.6L537.331,2238.3l64.5,108.05a16.306,16.306,0,0,1,1.737,3.6,26.437,26.437,0,0,1,1.488,7.44A22.664,22.664,0,0,1,589.678,2377.8Z" transform="translate(128 -2023)" fill="#1a1f2c"/>
  <path id="Tracé_156" data-name="Tracé 156" d="M641.777,2348.75a23.481,23.481,0,0,1-14.638,5.04,22.631,22.631,0,0,1-17.366-7.92,24.447,24.447,0,0,1-2.233-3.13l-64.5-108.04,98.74,80.19a14.033,14.033,0,0,1,2.729,2.64,21.845,21.845,0,0,1,5.209,14.17A21.136,21.136,0,0,1,641.777,2348.75Z" transform="translate(128 -2023)" fill="#1a1f2c"/>
  <path id="Tracé_157" data-name="Tracé 157" d="M680.479,2304.09a23.166,23.166,0,0,1-19.6,11.04,24.381,24.381,0,0,1-11.413-2.88,36.5,36.5,0,0,1-3.225-2.16l-98.74-80.44,121.068,42.74a25.471,25.471,0,0,1,3.722,1.68,22.167,22.167,0,0,1,11.412,18.97A25.8,25.8,0,0,1,680.479,2304.09Z" transform="translate(128 -2023)" fill="#1a1f2c"/>
  <path id="Tracé_158" data-name="Tracé 158" d="M701.07,2249.34a22.83,22.83,0,0,1-22.328,18.25,22.045,22.045,0,0,1-3.969-.24,21.212,21.212,0,0,1-3.722-.96l-121.316-42.74H678.742a22.045,22.045,0,0,1,3.969.24c10.916,1.92,18.855,11.05,18.855,21.61C701.318,2246.7,701.318,2248.14,701.07,2249.34Z" transform="translate(128 -2023)" fill="#1a1f2c"/>
  <path id="Tracé_159" data-name="Tracé 159" d="M692.387,2220.29a28.4,28.4,0,0,0,15.878-25.21,34.542,34.542,0,0,0-.5-5.04,28.806,28.806,0,0,0-25.3-23.29,28.263,28.263,0,0,0,7.691-19.21,26.689,26.689,0,0,0-3.969-14.17,29.989,29.989,0,0,0-32-13.44,28.114,28.114,0,0,0,2.233-10.81,27.767,27.767,0,0,0-10.42-21.85,29.222,29.222,0,0,0-18.855-6.72,29.583,29.583,0,0,0-15.877,4.56v-1.2a28.729,28.729,0,0,0-19.351-26.89,29.172,29.172,0,0,0-10.172-1.68,29.625,29.625,0,0,0-23.321,11.04c-3.473-11.76-14.637-20.17-27.786-20.17a29.33,29.33,0,0,0-28.034,19.93,29.625,29.625,0,0,0-23.32-11.04,31.168,31.168,0,0,0-10.172,1.68,28.428,28.428,0,0,0-19.351,26.65v1.2a31.151,31.151,0,0,0-15.878-4.56,29.224,29.224,0,0,0-18.855,6.72,27.754,27.754,0,0,0-10.419,21.85,27.252,27.252,0,0,0,2.232,10.81,27.9,27.9,0,0,0-6.45-.72,29.645,29.645,0,0,0-25.553,14.16,27.3,27.3,0,0,0-3.97,14.17,28.281,28.281,0,0,0,7.691,19.21,29.333,29.333,0,0,0-25.305,23.29c0,2.16-.248,3.84-.248,5.52a28.124,28.124,0,0,0,15.878,25.21A28.394,28.394,0,0,0,353,2245.5a34.683,34.683,0,0,0,.5,5.04c2.233,12.49,12.653,21.61,25.3,23.29a28.285,28.285,0,0,0-7.69,19.21,26.69,26.69,0,0,0,3.969,14.17,29.913,29.913,0,0,0,32,13.44,28.152,28.152,0,0,0-2.233,10.81,27.752,27.752,0,0,0,10.42,21.85,29.222,29.222,0,0,0,18.854,6.72A29.589,29.589,0,0,0,450,2355.47v1.2a28.719,28.719,0,0,0,19.351,26.89,29.168,29.168,0,0,0,10.172,1.68,29.625,29.625,0,0,0,23.32-11.04,29.682,29.682,0,0,0,56.069,0,29.625,29.625,0,0,0,23.32,11.04,31.171,31.171,0,0,0,10.172-1.68,28.719,28.719,0,0,0,19.351-26.89v-1.2a30.466,30.466,0,0,0,15.877,4.56,29.222,29.222,0,0,0,18.855-6.72,27.752,27.752,0,0,0,10.42-21.85,27.273,27.273,0,0,0-2.233-10.81,29.913,29.913,0,0,0,32-13.44,27.3,27.3,0,0,0,3.969-14.17,28.281,28.281,0,0,0-7.691-19.21,29.62,29.62,0,0,0,25.306-23.29,34.687,34.687,0,0,0,.5-5.04A30.336,30.336,0,0,0,692.387,2220.29Zm8.683-29.05a19.99,19.99,0,0,1,.248,3.84c0,10.56-7.691,19.69-18.855,21.61a22.045,22.045,0,0,1-3.969.24H570.327a68.316,68.316,0,0,0-1.241-6.96L670.8,2174.19a21.247,21.247,0,0,1,3.721-.96,22.056,22.056,0,0,1,3.97-.24C689.41,2172.99,699.085,2180.43,701.07,2191.24Zm-40.191-65.79a22.343,22.343,0,0,1,19.6,11.04,21.8,21.8,0,0,1,2.977,11.05,21.376,21.376,0,0,1-11.412,18.97,25.447,25.447,0,0,1-3.722,1.68L566.6,2203.96a30.374,30.374,0,0,0-3.721-6l82.862-67.23a36.361,36.361,0,0,1,3.225-2.16A24.541,24.541,0,0,1,660.879,2125.45Zm-51.106-30.73a22.607,22.607,0,0,1,17.366-7.93,23.481,23.481,0,0,1,14.638,5.04,21.354,21.354,0,0,1,8.187,16.81,21.828,21.828,0,0,1-5.21,14.17,14.026,14.026,0,0,1-2.729,2.64l-83.11,67.47a49.286,49.286,0,0,0-5.458-4.56l54.083-90.52A35.073,35.073,0,0,1,609.773,2094.72Zm-50.114-15.13a19.479,19.479,0,0,1,.992-3.6c3.225-8.89,12.157-14.41,21.336-14.41a22.9,22.9,0,0,1,22.576,22.09,19.9,19.9,0,0,1-1.488,7.44,24.072,24.072,0,0,1-1.737,3.61l-53.587,90.52c-2.233-.96-4.466-1.69-6.7-2.41Zm-29.027-26.89a22.52,22.52,0,0,1,22.825,21.85,19.912,19.912,0,0,1-.249,3.84l-19.1,103.24c-1.241,0-2.481-.24-3.722-.24a19.4,19.4,0,0,0-3.721.24l-18.855-103a18.781,18.781,0,0,1-.248-3.84A22.782,22.782,0,0,1,530.632,2052.7Zm-59.293,10.08a21.8,21.8,0,0,1,7.691-1.44c9.179,0,18.11,5.52,21.335,14.41a19.4,19.4,0,0,1,.993,3.6l18.855,103a52.978,52.978,0,0,0-6.7,2.41l-54.083-90.28a21.678,21.678,0,0,1-1.737-3.37,19.9,19.9,0,0,1-1.489-7.44A22.887,22.887,0,0,1,471.339,2062.78Zm-52.1,29.05a23.478,23.478,0,0,1,14.637-5.04,22.607,22.607,0,0,1,17.367,7.93,12.194,12.194,0,0,1,2.232,3.12l54.084,90.52a49.2,49.2,0,0,0-5.458,4.56l-82.862-67.23a14,14,0,0,1-2.729-2.64,21.828,21.828,0,0,1-5.21-14.17A22.354,22.354,0,0,1,419.24,2091.83Zm-41.679,55.71a22.45,22.45,0,0,1,2.977-11.05,23.165,23.165,0,0,1,19.6-11.04,25.13,25.13,0,0,1,11.412,2.88,36.208,36.208,0,0,1,3.225,2.16l82.862,67.23a29.259,29.259,0,0,0-3.473,6l-101.469-35.53a15.364,15.364,0,0,1-3.473-1.68A21.9,21.9,0,0,1,377.561,2147.54ZM359.7,2195.08a19.911,19.911,0,0,1,.249-3.84,22.628,22.628,0,0,1,22.328-18.25,22.045,22.045,0,0,1,3.969.24,16.759,16.759,0,0,1,3.721.96l101.717,35.78a58.232,58.232,0,0,0-1.24,6.96H382.275a23.463,23.463,0,0,1-3.97-.24A22.283,22.283,0,0,1,359.7,2195.08Zm.5,54.26a19.991,19.991,0,0,1-.248-3.84c0-10.56,7.69-19.69,18.854-21.61a22.056,22.056,0,0,1,3.97-.24H490.938a68.968,68.968,0,0,0,1.24,6.97l-101.965,35.53a21.2,21.2,0,0,1-3.721.96,22.045,22.045,0,0,1-3.969.24C371.607,2267.59,361.931,2260.15,360.2,2249.34Zm40.19,65.79a22.341,22.341,0,0,1-19.6-11.04,21.767,21.767,0,0,1-2.977-11.05,21.385,21.385,0,0,1,11.412-18.97c1.241-.72,2.481-1.2,3.473-1.68l101.717-35.77a48.041,48.041,0,0,0,3.473,6l-82.862,67.23a36.213,36.213,0,0,1-3.225,2.16A22.753,22.753,0,0,1,400.385,2315.13Zm50.859,30.74a22.632,22.632,0,0,1-17.367,7.92,23.478,23.478,0,0,1-14.637-5.04,21.34,21.34,0,0,1-8.187-16.81,21.846,21.846,0,0,1,5.21-14.17,14,14,0,0,1,2.729-2.64l82.862-67.23a49.168,49.168,0,0,0,5.458,4.56l-54.084,90.76A8.008,8.008,0,0,1,451.244,2345.87Zm50.362,15.12a19.415,19.415,0,0,1-.993,3.6A22.9,22.9,0,0,1,479.278,2379a21.8,21.8,0,0,1-7.691-1.44,22.226,22.226,0,0,1-14.885-20.65,19.9,19.9,0,0,1,1.488-7.44,23.78,23.78,0,0,1,1.737-3.6l54.083-90.76c2.233.96,4.466,1.68,6.7,2.4Zm6.2,4.8v0Zm22.824,22.09a22.72,22.72,0,0,1-22.576-18.72h1.489l-1.737-3.85c0-.96.248-2.16.248-3.12l18.855-103c1.24,0,2.481.24,3.721.24a19.406,19.406,0,0,0,3.722-.24l18.854,103a18.714,18.714,0,0,1,.249,3.84C553.209,2378.04,543.037,2387.88,530.632,2387.88Zm59.046-10.08a21.8,21.8,0,0,1-7.691,1.44,22.9,22.9,0,0,1-21.336-14.41,19.489,19.489,0,0,1-.992-3.6l-18.855-103a54.494,54.494,0,0,0,6.7-2.4l54.084,90.76a16.352,16.352,0,0,1,1.737,3.6,26.435,26.435,0,0,1,1.488,7.44C604.811,2366.03,599.1,2374.44,589.678,2377.8Zm52.1-29.05a23.481,23.481,0,0,1-14.638,5.04,22.631,22.631,0,0,1-17.366-7.92,24.447,24.447,0,0,1-2.233-3.13l-54.083-90.52a49.261,49.261,0,0,0,5.458-4.56l82.862,67.23a14.033,14.033,0,0,1,2.729,2.64,21.845,21.845,0,0,1,5.209,14.17A21.136,21.136,0,0,1,641.777,2348.75Zm41.679-55.71a22.433,22.433,0,0,1-2.977,11.05,23.166,23.166,0,0,1-19.6,11.04,24.38,24.38,0,0,1-11.412-2.88,36.5,36.5,0,0,1-3.225-2.16l-82.862-67.23a49.347,49.347,0,0,0,3.722-6l101.716,35.77a25.469,25.469,0,0,1,3.722,1.68A21.242,21.242,0,0,1,683.456,2293.04Zm17.614-43.7a22.83,22.83,0,0,1-22.328,18.25,22.045,22.045,0,0,1-3.969-.24,21.212,21.212,0,0,1-3.722-.96l-101.717-35.77a31.639,31.639,0,0,0,1.241-6.97H678.742a22.045,22.045,0,0,1,3.969.24c10.916,1.92,18.855,11.05,18.855,21.61C701.318,2246.7,701.318,2248.14,701.07,2249.34Z" transform="translate(128 -2023)" fill="#b58d6f"/>
  <path id="Tracé_160" data-name="Tracé 160" d="M497.636,2220.29c0,17.77,14.886,32.18,33.244,32.18s33.244-14.41,33.244-32.18-14.885-32.17-33.244-32.41C512.77,2188.12,497.884,2202.52,497.636,2220.29Z" transform="translate(128 -2023)" fill="#1a1f2c"/>
</svg>
