<svg xmlns="http://www.w3.org/2000/svg" width="109.793" height="109.109" viewBox="0 0 109.793 109.109">
  <path id="Tracé_2420" data-name="Tracé 2420" d="M1635.759,2595.585A16.514,16.514,0,0,0,1615,2585a14.31,14.31,0,0,0-2.543,1.072,16.819,16.819,0,0,0,.266-2.545,16.471,16.471,0,1,0-32.942,0,19.708,19.708,0,0,0,.266,2.812,12.841,12.841,0,0,0-2.408-.936,16.486,16.486,0,0,0-10.178,31.363,26.621,26.621,0,0,0,2.679.669,23.7,23.7,0,0,0-1.744,1.877,16.4,16.4,0,1,0,26.514,19.3,23.6,23.6,0,0,0,1.478-2.41,11.313,11.313,0,0,0,1.337,2.143,16.4,16.4,0,1,0,26.513-19.3,14.172,14.172,0,0,0-1.875-2.148,21.212,21.212,0,0,0,2.543-.533A16.37,16.37,0,0,0,1635.759,2595.585Zm-29.6,13a10.182,10.182,0,0,1-.266,2.007l6.966,2.279a2.929,2.929,0,0,1,3.212-.936,2.964,2.964,0,1,1-1.875,5.624,2.85,2.85,0,0,1-2.01-2.676l-7.1-2.279a8.128,8.128,0,0,1-2.407,3.214l4.282,6.032a3.261,3.261,0,0,1,3.217,1.072,2.974,2.974,0,1,1-4.82,3.487,2.807,2.807,0,0,1,0-3.351l-4.287-6.032a9.464,9.464,0,0,1-3.885,1.208v7.37a3.071,3.071,0,0,1,2.01,2.813,2.945,2.945,0,1,1-5.891,0,2.9,2.9,0,0,1,2.006-2.812v-7.37a10.148,10.148,0,0,1-3.88-1.208l-4.287,6.032a3.048,3.048,0,0,1,0,3.351,2.974,2.974,0,1,1-4.82-3.487,2.792,2.792,0,0,1,3.212-1.072l4.287-6.032a11.288,11.288,0,0,1-2.413-3.214l-7.1,2.279a2.846,2.846,0,0,1-2.005,2.676,2.964,2.964,0,1,1-1.875-5.624,2.866,2.866,0,0,1,3.212.936l6.966-2.279a7.579,7.579,0,0,1,0-4.02l-6.966-2.279a2.935,2.935,0,0,1-3.212.94,2.967,2.967,0,0,1,1.875-5.629,2.851,2.851,0,0,1,2.005,2.677l7.1,2.279a8.224,8.224,0,0,1,2.413-3.215l-4.287-6.032a3.255,3.255,0,0,1-3.212-1.071,2.974,2.974,0,1,1,4.82-3.487,2.816,2.816,0,0,1,0,3.351l4.287,6.032a9.471,9.471,0,0,1,3.88-1.208v-7.37a3.074,3.074,0,0,1-2.006-2.812,2.945,2.945,0,1,1,5.891,0,2.9,2.9,0,0,1-2.01,2.812v7.37a10.153,10.153,0,0,1,3.885,1.208l4.287-6.032a3.028,3.028,0,0,1,0-3.351,2.974,2.974,0,1,1,4.82,3.487,2.8,2.8,0,0,1-3.217,1.071l-4.282,6.032a11.253,11.253,0,0,1,2.407,3.215l7.1-2.279a2.855,2.855,0,0,1,2.01-2.677,2.967,2.967,0,0,1,1.875,5.629,2.868,2.868,0,0,1-3.212-.94l-6.966,2.279A10.185,10.185,0,0,1,1606.159,2608.59Z" transform="matrix(0.848, 0.53, -0.53, 0.848, 82.226, -3001.562)" fill="#fff"/>
</svg>
