<?xml version="1.0" encoding="utf-8"?>
<!-- Generator: Adobe Illustrator 24.0.0, SVG Export Plug-In . SVG Version: 6.00 Build 0)  -->
<svg version="1.1" id="Calque_1" xmlns="http://www.w3.org/2000/svg" xmlns:xlink="http://www.w3.org/1999/xlink" x="0px" y="0px"
	 viewBox="0 0 337.6 163.8" style="enable-background:new 0 0 337.6 163.8;" xml:space="preserve">
<style type="text/css">
	.st0{fill:none;}
	.st1{fill:#FFFFFF;}
</style>
<path class="st0" d="M294.7,41c-12.4-11.9-26.6-14.7-37.4-14.7c-3.6,0-6.9,0.3-9.5,0.7c-3.8,0.6-7.5,1.5-11,2.7
	C229,15.2,213.5,4.8,194.1,1.3c-4.7-0.9-9.5-1.3-14-1.3c-13.3,0-25.3,3.5-32.1,9.8c-3.6,3.3-5.8,6.8-7,10.1
	c-6.1-2.8-12.6-4.2-18.9-4.2c-8.3,0-16.4,2.4-23.2,7.2c-11.4,8-17.5,21.3-16.9,36.2c-3.4-1.3-7.5-2.2-12-2.2c-2.3,0-4.8,0.2-7.2,0.7
	c-9.1,1.8-21.7,7.9-30.6,26.5c-12.1,25.5-22.8,32-27.1,30c-1.3-0.6-2.8-0.4-3.8,0.5s-1.5,2.3-1.1,3.7c2.1,7.6,7.6,12.9,15,14.4
	c9,1.9,19-2.2,25.7-10.3c5.5-6.7,12-10.7,17.5-10.7h0.1c3.9,0,7.5,2.1,10.7,6.1c8.3,10.5,17.8,13.5,24.3,14.1
	c6.5,0.6,12.9-0.8,18-3.9c1.1,1.2,2.3,2.1,3.3,2.9c5.1,3.7,11.2,5.1,16.7,4.1c3.1,4.8,17.2,23.7,49.6,25c12.4,0.5,23-2.3,31.7-7
	c6.9,9.9,22.2,12.2,34.1,10c11.8-2.2,24.9-9.5,27.6-23.3c5.4-0.5,10.6-2,15.2-4.3c6.6-3.3,11.8-7.9,15.5-13.4
	c3.5,1.4,7.9,1,12.4-1.2c8.2-4,18.4-14.7,19.9-31.8C339.7,64.5,321.4,44.1,294.7,41z M94.2,124.9c-5.1-0.5-12.6-2.9-19.4-11.4
	c-4.6-5.8-10.1-8.8-16.2-8.8h-0.1c-11,0-19.8,9.3-23.1,13.3c-5,6.1-12.3,9.2-18.7,7.8c-3-0.6-5.4-2.1-7.2-4.4
	c9.2-2,19.6-14,29.1-34.2c7.6-16,18-21.1,25.5-22.6c8.8-1.8,16,0.8,19,3.1c2.8,12.7,10.6,20,19.5,22.9c-1.9,15.2,0.8,25.3,4.5,31.7
	C103.5,124.4,98.8,125.4,94.2,124.9z M181.3,152.9c-26.8-1.1-39.4-15.3-43-20.5c4.3-2.9,6.9-7.5,7.2-13.1
	c0.4-8.8-6.2-14.1-12.8-14.8c-6.4-0.6-11.5,2.9-12.3,8.5c-0.3,2,1,3.8,3,4.1c2,0.3,3.8-1.1,4.1-3c0.4-2.7,4.2-2.4,4.6-2.4
	c2.5,0.3,6.6,2.1,6.4,7.3c-0.2,3.8-2.1,6.7-5.3,8.2c-4.2,2-9.7,1.3-14.1-1.9c-1.6-1.2-2.9-2.6-4.1-4.3v0c-4.7-6.5-6.6-16.6-5.1-29
	c1.7,0.1,3.5,0.1,5.1-0.1c13.1-1.3,26.1-11.3,25.6-28c-0.2-7-3.6-12.8-9.3-15.8c-5.5-2.9-12.3-2.8-17.3,0.4c-4.4,2.8-6.8,7.5-6.6,13
	c0.1,2,1.7,3.5,3.7,3.4c2-0.1,3.5-1.7,3.4-3.7c-0.1-2.9,1-5.2,3.2-6.6c2.8-1.8,6.9-1.8,10.2-0.1c3.4,1.8,5.3,5.3,5.5,9.7
	c0.5,12.8-9.6,19.7-19.1,20.6c-9.6,0.9-21.8-3.9-24.5-20.7c-2.3-14.6,2.7-27.8,13.3-35.3c10.4-7.3,24.4-7.9,36.7-1.5
	c0.1,2.3,0.6,4.4,1.5,6.1c2.3,4.7,6.9,7.3,11.7,6.5c4.2-0.7,7.7-3.7,8.8-7.5c0.8-2.9,0.1-5.7-1.9-7.5c-1.5-1.3-3.8-1.3-5.1,0.2
	c-1.3,1.5-1.3,3.6,0.2,4.9c0,0.1,0,0.6-0.5,1.2c-0.3,0.4-1.1,1.4-2.7,1.6c-2.5,0.4-3.7-1.7-4.1-2.5c-1.7-3.6-0.8-9.7,5.2-15.2
	c7.5-6.9,23.9-9.6,40-6.7c17,3.1,30.5,11.9,37.3,24.1c-6.3,3-11.4,7-14.6,11.5c-5.9-2.3-12.5-3.5-18.9-3.5c-2.1,0-4.2,0.1-6.2,0.4
	c-10.4,1.3-24.3,7.2-32.3,19.8c-6,9.5-7.2,20.9-3.3,32.9c4.9,14.9,14.2,20.8,21.2,23c11.3,3.7,23.1,0.3,29.9-4.6
	c7.1-5.1,10.9-14.4,9.8-23.7c-1-8.5-5.9-15-13.3-18c-6.9-2.8-14.7-1.4-19.9,3.5c-3.9,3.7-5.4,8.5-3.9,12.7c0.6,1.9,2.7,2.9,4.5,2.2
	s2.9-2.7,2.2-4.5c-0.5-1.5,0.3-3.5,2.1-5.2c2.5-2.4,7-4.2,12.3-2c4.9,2,8.1,6.5,8.9,12.3c0.8,6.7-1.9,13.4-6.9,17
	c-5.2,3.7-14.7,6.5-23.5,3.6c-7.7-2.5-13.5-8.9-16.6-18.4c-3.3-10.1-2.4-19.1,2.5-26.9c5.5-8.6,16.1-15.1,27.2-16.5
	c15.6-2,35.1,5.6,36.8,18.4c0.2,1.5,1.3,2.6,2.7,3c14.3,3.4,21.5,12.1,21.4,25.9c-0.1,8.3-3.6,16-9.6,21c-4,3.4-8.1,4.6-10.1,4.3
	c-1.9-0.3-3.6,0.9-4,2.7C224.9,138.4,207.1,153.9,181.3,152.9z M245.5,156c-11.4,2.1-22.2-0.8-26.8-6.9c7.9-5.9,13.5-13.6,16-21.5
	c2-0.2,4-0.8,6.1-1.8c7.5,8.9,16.9,13.1,26.2,13.9C264.4,149.3,254.5,154.4,245.5,156z M286.4,129.1c-11.7,5.8-28.1,5.7-39.5-7.1
	c0.1-0.1,0.3-0.2,0.4-0.3c4.2-3.5,7.4-8.1,9.4-13.2c2.4,1.9,5.4,3.1,8.7,3.4c6.1,0.6,11.5-2.3,14.1-7.5c2.4-4.7,1.9-9.8-1.3-13.7
	c-2-2.5-4.8-4-7.3-4c-0.5,0-1.1,0.1-1.6,0.2c-1.9,0.5-3,2.5-2.5,4.4c0.5,1.8,2.3,2.9,4.2,2.6c0.4,0.1,1.5,0.8,2.3,2.2
	c0.8,1.6,0.8,3.3-0.1,5.1c-1.9,3.7-5.6,3.7-7.1,3.6c-3.3-0.3-6.2-2.3-7-4.8c0.2-1.6,0.4-3.1,0.4-4.7c0.1-6.8-1.4-12.7-4.2-17.6
	c3.6-5.5,12.1-8.5,21.4-7.3c10.2,1.3,22.4,7.8,26.3,22.3C307.8,111,297.1,123.8,286.4,129.1z M330.3,88.4
	c-1.2,13.2-8.8,22.6-15.9,26c-2.3,1.1-4.4,1.5-5.9,1.3c3-7.5,3.6-16.1,1.3-24.9C305,72.8,290,64.8,277.5,63.2
	c-1.7-0.2-3.4-0.3-5.1-0.3c-9.1,0-17.1,3.2-21.8,8.8c-4-4-9.3-7-15.8-8.9c-1.7-6.6-6.4-11.9-12.7-15.7c4.5-5.5,14.3-11.1,26.7-13
	c9.4-1.4,27.2-1.7,41.7,12.9c0.6,0.6,1.4,1,2.2,1C316.4,50.2,332.2,67.2,330.3,88.4z"/>
<path class="st1" d="M267,139.8c-2.7,9.5-12.6,14.6-21.6,16.3c-11.4,2.1-22.2-0.8-26.8-6.9c7.9-5.9,13.5-13.6,16-21.5
	c2-0.2,4-0.8,6.1-1.8C248.3,134.7,257.7,138.9,267,139.8z"/>
<path class="st1" d="M286.4,129.1c-11.7,5.8-28.1,5.7-39.5-7.1c0.1-0.1,0.3-0.2,0.4-0.3c4.2-3.5,7.4-8.1,9.4-13.2
	c2.4,1.9,5.4,3.1,8.7,3.4c6.1,0.6,11.5-2.3,14.1-7.5c2.4-4.7,1.9-9.8-1.3-13.7c-2-2.5-4.8-4-7.3-4c-0.5,0-1.1,0.1-1.6,0.2
	c-1.9,0.5-3,2.5-2.5,4.4c0.5,1.8,2.3,2.9,4.2,2.6c0.4,0.1,1.5,0.8,2.3,2.2c0.8,1.6,0.8,3.3-0.1,5.1c-1.9,3.7-5.6,3.7-7.1,3.6
	c-3.3-0.3-6.2-2.3-7-4.8c0.2-1.6,0.4-3.1,0.4-4.7c0.1-6.8-1.4-12.7-4.2-17.6c3.6-5.5,12.1-8.5,21.4-7.3c10.2,1.3,22.4,7.8,26.3,22.3
	C307.8,111,297.1,123.8,286.4,129.1z"/>
<path class="st1" d="M107.1,122.4c-3.7,2-8.3,3-13,2.6c-5.1-0.5-12.6-2.9-19.4-11.4c-4.6-5.8-10.1-8.8-16.2-8.8h-0.1
	c-11,0-19.8,9.3-23.1,13.3c-5,6.1-12.3,9.2-18.7,7.8c-3-0.6-5.4-2.1-7.2-4.4c9.2-2,19.6-14,29.1-34.2c7.6-16,18-21.1,25.5-22.6
	c8.8-1.8,16,0.8,19,3.1c2.8,12.7,10.6,20,19.5,22.9C100.7,105.9,103.4,115.9,107.1,122.4z"/>
<path class="st1" d="M330.3,88.4c-1.2,13.2-8.8,22.6-15.9,26c-2.3,1.1-4.4,1.5-5.9,1.3c3-7.5,3.6-16.1,1.3-24.9
	C305,72.8,290,64.8,277.5,63.2c-1.7-0.2-3.4-0.3-5.1-0.3c-9.1,0-17.1,3.2-21.8,8.8c-4-4-9.3-7-15.8-8.9c-1.7-6.6-6.4-11.9-12.7-15.7
	c4.5-5.5,14.3-11.1,26.7-13c9.4-1.4,27.2-1.7,41.7,12.9c0.6,0.6,1.4,1,2.2,1C316.4,50.2,332.2,67.2,330.3,88.4z"/>
<path class="st1" d="M252.3,95.1c-0.1,8.3-3.6,16-9.6,21c-4,3.4-8.1,4.6-10.1,4.3c-1.9-0.3-3.6,0.9-4,2.7
	c-3.6,15.2-21.5,30.7-47.3,29.7c-26.8-1.1-39.4-15.3-43-20.5c4.3-2.9,6.9-7.5,7.2-13.1c0.4-8.8-6.2-14.1-12.8-14.8
	c-6.4-0.6-11.5,2.9-12.3,8.5c-0.3,2,1,3.8,3,4.1c2,0.3,3.8-1.1,4.1-3c0.4-2.7,4.2-2.4,4.6-2.4c2.5,0.3,6.6,2.1,6.4,7.3
	c-0.2,3.8-2.1,6.7-5.3,8.2c-4.2,2-9.7,1.3-14.1-1.9c-1.6-1.2-2.9-2.6-4.1-4.3v0c-4.7-6.5-6.6-16.6-5.1-29c1.7,0.1,3.5,0.1,5.1-0.1
	c13.1-1.3,26.1-11.3,25.6-28c-0.2-7-3.6-12.8-9.3-15.8c-5.5-2.9-12.3-2.8-17.3,0.4c-4.4,2.8-6.8,7.5-6.6,13c0.1,2,1.7,3.5,3.7,3.4
	c2-0.1,3.5-1.7,3.4-3.7c-0.1-2.9,1-5.2,3.2-6.6c2.8-1.8,6.9-1.8,10.2-0.1c3.4,1.8,5.3,5.3,5.5,9.7c0.5,12.8-9.6,19.7-19.1,20.6
	c-9.6,0.9-21.8-3.9-24.5-20.7c-2.3-14.6,2.7-27.8,13.3-35.3c10.4-7.3,24.4-7.9,36.7-1.5c0.1,2.3,0.6,4.4,1.5,6.1
	c2.3,4.7,6.9,7.3,11.7,6.5c4.2-0.7,7.7-3.7,8.8-7.5c0.8-2.9,0.1-5.7-1.9-7.5c-1.5-1.3-3.8-1.3-5.1,0.2c-1.3,1.5-1.3,3.6,0.2,4.9
	c0,0.1,0,0.6-0.5,1.2c-0.3,0.4-1.1,1.4-2.7,1.6c-2.5,0.4-3.7-1.7-4.1-2.5c-1.7-3.6-0.8-9.7,5.2-15.2c7.5-6.9,23.9-9.6,40-6.7
	c17,3.1,30.5,11.9,37.3,24.1c-6.3,3-11.4,7-14.6,11.5c-5.9-2.3-12.5-3.5-18.9-3.5c-2.1,0-4.2,0.1-6.2,0.4
	c-10.4,1.3-24.3,7.2-32.3,19.8c-6,9.5-7.2,20.9-3.3,32.9c4.9,14.9,14.2,20.8,21.2,23c11.3,3.7,23.1,0.3,29.9-4.6
	c7.1-5.1,10.9-14.4,9.8-23.7c-1-8.5-5.9-15-13.3-18c-6.9-2.8-14.7-1.4-19.9,3.5c-3.9,3.7-5.4,8.5-3.9,12.7c0.6,1.9,2.7,2.9,4.5,2.2
	s2.9-2.7,2.2-4.5c-0.5-1.5,0.3-3.5,2.1-5.2c2.5-2.4,7-4.2,12.3-2c4.9,2,8.1,6.5,8.9,12.3c0.8,6.7-1.9,13.4-6.9,17
	c-5.2,3.7-14.7,6.5-23.5,3.6c-7.7-2.5-13.5-8.9-16.6-18.4c-3.3-10.1-2.4-19.1,2.5-26.9c5.5-8.6,16.1-15.1,27.2-16.5
	c15.6-2,35.1,5.6,36.8,18.4c0.2,1.5,1.3,2.6,2.7,3C245.3,72.7,252.5,81.4,252.3,95.1z"/>
</svg>
