<?xml version="1.0" encoding="utf-8"?>
<!-- Generator: Adobe Illustrator 24.0.0, SVG Export Plug-In . SVG Version: 6.00 Build 0)  -->
<svg version="1.1" id="Calque_1" xmlns="http://www.w3.org/2000/svg" xmlns:xlink="http://www.w3.org/1999/xlink" x="0px" y="0px"
	 viewBox="0 0 321 149.6" style="enable-background:new 0 0 321 149.6;" xml:space="preserve">
<style type="text/css">
	.st0{fill:#AD3B2A;}
</style>
<g>
	<path class="st0" d="M231.3,118.7c-2.1,1-4.1,1.6-6.1,1.8c-2.6,8-8.1,15.6-16,21.5c4.6,6.1,15.4,9,26.8,6.9
		c9-1.7,18.9-6.8,21.6-16.3C248.2,131.8,238.9,127.6,231.3,118.7z"/>
	<path class="st0" d="M267.2,63.2c-9.4-1.2-17.8,1.8-21.4,7.3c2.9,5,4.3,10.8,4.3,17.6c0,1.6-0.2,3.2-0.4,4.7c0.8,2.5,3.7,4.5,7,4.8
		c1.5,0.1,5.2,0.1,7.1-3.6c0.9-1.8,0.9-3.5,0.1-5.1c-0.7-1.4-1.8-2.1-2.3-2.2c-1.8,0.4-3.7-0.7-4.2-2.6c-0.5-1.9,0.6-3.9,2.5-4.4
		c0.5-0.1,1.1-0.2,1.6-0.2c2.5,0,5.2,1.4,7.3,4c3.2,3.9,3.7,9,1.3,13.7c-2.6,5.2-8,8.1-14.1,7.5c-3.3-0.3-6.3-1.5-8.7-3.4
		c-2.1,5.1-5.2,9.6-9.4,13.2c-0.1,0.1-0.3,0.2-0.4,0.3c11.4,12.8,27.9,12.9,39.5,7.1c10.6-5.3,21.3-18,16.4-36.5
		C289.6,71,277.3,64.4,267.2,63.2z"/>
	<path class="st0" d="M93.2,83.5c-8.9-2.9-16.7-10.2-19.5-22.9c-3-2.3-10.2-4.8-19-3.1c-7.5,1.5-17.9,6.6-25.5,22.6
		c-9.5,20.1-20,32.2-29.1,34.2c1.8,2.3,4.2,3.8,7.2,4.4c6.4,1.3,13.7-1.7,18.7-7.8c3.3-4,12.1-13.3,23.1-13.3h0.1
		c6.2,0,11.6,3,16.2,8.8c6.8,8.6,14.3,10.9,19.4,11.4c4.6,0.5,9.3-0.5,13-2.6C93.9,108.7,91.3,98.7,93.2,83.5z"/>
	<path class="st0" d="M283.3,40.9c-0.8-0.1-1.6-0.4-2.2-1c-14.5-14.5-32.3-14.3-41.7-12.9c-12.4,1.9-22.1,7.6-26.7,13
		c6.3,3.8,11,9.1,12.7,15.7c6.5,1.9,11.8,4.9,15.8,8.9c4.7-5.6,12.7-8.8,21.8-8.8c1.6,0,3.3,0.1,5.1,0.3
		c12.5,1.6,27.5,9.6,32.3,27.5c2.3,8.8,1.8,17.4-1.3,24.9c1.5,0.3,3.6-0.1,5.9-1.3c7.1-3.4,14.7-12.8,15.9-26
		C322.8,60,307,43.1,283.3,40.9z"/>
	<path class="st0" d="M219.1,116c0.4-1.8,2.2-3,4-2.7c2.1,0.3,6.1-0.9,10.1-4.3c6-5.1,9.5-12.8,9.6-21c0.2-13.8-7-22.5-21.4-25.9
		c-1.4-0.4-2.5-1.5-2.7-3c-1.7-12.8-21.2-20.4-36.8-18.4c-11,1.4-21.7,7.9-27.2,16.5c-4.9,7.8-5.8,16.8-2.5,26.9
		c3.1,9.5,8.8,15.9,16.6,18.4c8.8,2.9,18.4,0.2,23.5-3.6c5-3.6,7.7-10.3,6.9-17c-0.7-5.8-3.9-10.3-8.9-12.3c-5.2-2.1-9.8-0.3-12.3,2
		c-1.8,1.7-2.6,3.7-2.1,5.2c0.7,1.9-0.3,3.9-2.2,4.5s-3.9-0.4-4.5-2.2c-1.4-4.2,0.1-9.1,3.9-12.7c5.2-4.9,13-6.3,19.9-3.5
		c7.4,3,12.2,9.6,13.3,18c1.1,9.3-2.7,18.6-9.8,23.7c-6.8,4.9-18.7,8.3-29.9,4.6c-7-2.3-16.3-8.1-21.2-23c-3.9-12-2.8-23.4,3.3-32.9
		c8-12.6,21.9-18.5,32.3-19.8c2-0.3,4.1-0.4,6.2-0.4c6.5,0,13,1.2,18.9,3.5c3.2-4.4,8.3-8.4,14.6-11.5C213.8,13,200.4,4.2,183.4,1.2
		c-16.1-2.9-32.5-0.2-40,6.7c-6,5.5-7,11.6-5.2,15.2c0.4,0.9,1.7,2.9,4.1,2.5c1.5-0.2,2.4-1.2,2.7-1.6c0.4-0.6,0.5-1.1,0.5-1.2
		c-1.5-1.3-1.5-3.5-0.2-4.9c1.3-1.5,3.6-1.5,5.1-0.2c2,1.8,2.8,4.6,1.9,7.5c-1.1,3.8-4.7,6.8-8.8,7.5c-4.8,0.8-9.4-1.8-11.7-6.5
		c-0.8-1.7-1.4-3.8-1.5-6.1c-12.3-6.3-26.3-5.8-36.7,1.5c-10.7,7.5-15.7,20.7-13.3,35.3c2.7,16.8,14.9,21.6,24.5,20.7
		c9.5-0.9,19.5-7.8,19.1-20.6c-0.2-4.5-2.1-7.9-5.5-9.7c-3.3-1.7-7.3-1.7-10.2,0.1c-2.2,1.4-3.3,3.7-3.2,6.6c0.1,2-1.5,3.6-3.4,3.7
		c-2,0.1-3.6-1.5-3.7-3.4c-0.2-5.5,2.2-10.2,6.6-13c5-3.2,11.8-3.3,17.3-0.4c5.7,3,9.1,8.8,9.3,15.8c0.6,16.7-12.4,26.7-25.6,28
		c-1.7,0.2-3.4,0.2-5.1,0.1c-1.5,12.4,0.4,22.5,5.1,29v0c1.2,1.6,2.5,3.1,4.1,4.3c4.4,3.2,9.9,4,14.1,1.9c3.2-1.5,5.1-4.5,5.3-8.2
		c0.2-5.3-3.9-7.1-6.4-7.3c-0.4,0-4.2-0.3-4.6,2.4c-0.3,2-2.1,3.3-4.1,3c-2-0.3-3.3-2.1-3-4.1c0.8-5.6,5.9-9,12.3-8.5
		c6.7,0.7,13.3,5.9,12.8,14.8c-0.3,5.5-2.8,10.2-7.2,13.1c3.7,5.2,16.2,19.5,43,20.5C197.6,146.8,215.5,131.2,219.1,116z"/>
</g>
</svg>
