<?xml version="1.0" encoding="utf-8"?>
<!-- Generator: Adobe Illustrator 24.0.1, SVG Export Plug-In . SVG Version: 6.00 Build 0)  -->
<svg version="1.1" id="Calque_1" xmlns="http://www.w3.org/2000/svg" xmlns:xlink="http://www.w3.org/1999/xlink" x="0px" y="0px"
	 viewBox="0 0 1178.7 1178.7" style="enable-background:new 0 0 1178.7 1178.7;" xml:space="preserve">
<style type="text/css">
	.st0{fill:#BC383D;}
	.st1{fill:#BB9475;}
	.st2{fill:#FFFFFF;}
	.st3{fill:none;}
	.st4{fill:#0B0D0F;}
	.st5{fill:#231F20;}
	.st6{fill:url(#Path_2395_1_);}
	.st7{fill:#1A1F2C;}
	.st8{fill:url(#Path_2397_1_);}
	.st9{fill:url(#Path_2399_1_);}
	.st10{fill:url(#Path_2401_1_);}
	.st11{fill:url(#Path_2403_1_);}
	.st12{fill:url(#Path_2405_1_);}
	.st13{fill:url(#Path_2407_1_);}
	.st14{fill:url(#Path_2409_1_);}
	.st15{fill:#FFE65F;}
	.st16{fill:url(#Path_2412_1_);}
	.st17{fill:url(#Path_2413_1_);}
</style>
<g>
	<g id="Mask_Group_11" transform="translate(0 -2631)">
		<g id="Component_4_1" transform="translate(966 2867.5)">
			<g id="Group_25">
				<g id="Group_1439" transform="translate(0 0)">
					<g id="umbrella" transform="translate(0 0)">
						<g id="Group_1427" transform="translate(0 0)">
							<g id="Group_1425">
								<g id="Group_1424">
									<g id="Group_1399">
										<circle id="Ellipse_835" class="st0" cx="-376.7" cy="352.9" r="544.2"/>
										<path id="Path_2369" class="st1" d="M-376.7,902.9c-303.3,0-550.1-246.8-550.1-550S-680-197.2-376.7-197.2
											S173.4,49.6,173.4,352.9S-73.4,902.9-376.7,902.9z M-376.7-185.4c-296.8,0-538.2,241.5-538.2,538.3
											s241.5,538.2,538.2,538.2c296.8,0,538.3-241.4,538.3-538.2S-79.9-185.4-376.7-185.4L-376.7-185.4z"/>
									</g>
									<path id="Path_2370" class="st2" d="M-376.7,352.9"/>
									<g id="Group_1400" transform="translate(754.546 180.19)">
										<line id="Line_1" class="st3" x1="-1131.3" y1="172.7" x2="-1131.3" y2="-416.7"/>
										<path id="Path_2371" class="st4" d="M-1146.3,172.7l15-589.4l15,589.4H-1146.3z"/>
									</g>
									<g id="Group_1401" transform="translate(616.997 200.262)">
										<line id="Line_2" class="st3" x1="-993.7" y1="152.6" x2="-1146.3" y2="-416.7"/>
										<path id="Path_2372" class="st4" d="M-1008.1,156.4l-138.1-573.1l166.9,565.4L-1008.1,156.4z"/>
									</g>
									<g id="Group_1402" transform="translate(474.842 259.178)">
										<line id="Line_3" class="st3" x1="-851.6" y1="93.7" x2="-1146.3" y2="-416.7"/>
										<path id="Path_2373" class="st4" d="M-864.6,101.2l-281.7-517.8l307.7,502.9L-864.6,101.2z"/>
									</g>
									<g id="Group_1403" transform="translate(352.877 352.807)">
										<line id="Line_4" class="st3" x1="-729.6" y1="0.1" x2="-1146.3" y2="-416.7"/>
										<path id="Path_2374" class="st4" d="M-740.2,10.6l-406-427.3L-719-10.5L-740.2,10.6z"/>
									</g>
									<g id="Group_1404" transform="translate(259.131 474.89)">
										<line id="Line_5" class="st3" x1="-635.8" y1="-122" x2="-1146.3" y2="-416.7"/>
										<path id="Path_2375" class="st4" d="M-643.3-109.1l-503-307.6L-628.4-135L-643.3-109.1z"/>
									</g>
									<g id="Group_1405" transform="translate(200.332 617.044)">
										<line id="Line_6" class="st3" x1="-577.1" y1="-264.1" x2="-1146.3" y2="-416.7"/>
										<path id="Path_2376" class="st4" d="M-580.9-249.7l-565.3-167l573.1,138L-580.9-249.7z"/>
									</g>
									<g id="Group_1406" transform="translate(180.261 754.594)">
										<line id="Line_7" class="st3" x1="-557" y1="-401.7" x2="-1146.3" y2="-401.7"/>
										<path id="Path_2377" class="st4" d="M-557-386.8l-589.3-14.9l589.3-15V-386.8z"/>
									</g>
									<g id="Group_1407" transform="translate(200.332 755.066)">
										<line id="Line_8" class="st3" x1="-577.1" y1="-402.2" x2="-1146.3" y2="-249.7"/>
										<path id="Path_2378" class="st4" d="M-573.2-387.8l-573.1,138l565.3-166.9L-573.2-387.8z"/>
									</g>
									<g id="Group_1408" transform="translate(259.131 756.601)">
										<line id="Line_9" class="st3" x1="-635.8" y1="-403.7" x2="-1146.3" y2="-109.1"/>
										<path id="Path_2379" class="st4" d="M-628.4-390.8l-517.8,281.7l503-307.6L-628.4-390.8z"/>
									</g>
									<g id="Group_1409" transform="translate(352.877 758.963)">
										<line id="Line_10" class="st3" x1="-729.6" y1="-406.1" x2="-1146.3" y2="10.6"/>
										<path id="Path_2380" class="st4" d="M-719-395.6l-427.3,406.2l406-427.3L-719-395.6z"/>
									</g>
									<g id="Group_1410" transform="translate(474.842 762.032)">
										<line id="Line_11" class="st3" x1="-851.6" y1="-409.1" x2="-1146.3" y2="101.2"/>
										<path id="Path_2381" class="st4" d="M-838.6-401.7l-307.7,502.9l281.7-517.8L-838.6-401.7z"/>
									</g>
									<g id="Group_1411" transform="translate(616.997 765.693)">
										<line id="Line_12" class="st3" x1="-993.7" y1="-412.8" x2="-1146.3" y2="156.4"/>
										<path id="Path_2382" class="st4" d="M-979.3-409l-166.9,565.4l138.1-573.1L-979.3-409z"/>
									</g>
									<g id="Group_1412" transform="translate(754.546 769.589)">
										<line id="Line_13" class="st3" x1="-1131.3" y1="-416.7" x2="-1131.3" y2="172.6"/>
										<path id="Path_2383" class="st5" d="M-1116.3-416.7l-15,589.3l-15-589.3H-1116.3z"/>
									</g>
									<g id="Group_1413" transform="translate(755.137 765.693)">
										<line id="Line_14" class="st3" x1="-1131.9" y1="-412.8" x2="-979.3" y2="156.4"/>
										<path id="Path_2384" class="st4" d="M-1117.5-416.7l138.1,573.1L-1146.3-409L-1117.5-416.7z"/>
									</g>
									<g id="Group_1414" transform="translate(756.554 762.032)">
										<line id="Line_15" class="st3" x1="-1133.3" y1="-409.1" x2="-838.6" y2="101.2"/>
										<path id="Path_2385" class="st4" d="M-1120.3-416.7l281.7,517.8l-307.7-502.9L-1120.3-416.7z"/>
									</g>
									<g id="Group_1415" transform="translate(758.915 758.963)">
										<line id="Line_16" class="st3" x1="-1135.6" y1="-406.1" x2="-718.9" y2="10.6"/>
										<path id="Path_2386" class="st4" d="M-1125-416.7l406.2,427.3l-427.4-406.2L-1125-416.7z"/>
									</g>
									<g id="Group_1416" transform="translate(762.103 756.601)">
										<line id="Line_17" class="st3" x1="-1138.8" y1="-403.7" x2="-628.4" y2="-109.1"/>
										<path id="Path_2387" class="st4" d="M-1131.4-416.7l503,307.6l-517.8-281.7L-1131.4-416.7z"/>
									</g>
									<g id="Group_1417" transform="translate(765.645 755.066)">
										<line id="Line_18" class="st3" x1="-1142.4" y1="-402.2" x2="-573.2" y2="-249.7"/>
										<path id="Path_2388" class="st4" d="M-1138.5-416.7l565.3,166.9l-573.1-138L-1138.5-416.7z"/>
									</g>
									<g id="Group_1418" transform="translate(769.541 754.594)">
										<line id="Line_19" class="st3" x1="-1146.3" y1="-401.7" x2="-556.9" y2="-401.7"/>
										<path id="Path_2389" class="st4" d="M-1146.3-416.7l589.4,15l-589.4,14.9V-416.7z"/>
									</g>
									<g id="Group_1419" transform="translate(765.645 617.044)">
										<line id="Line_20" class="st3" x1="-1142.4" y1="-264.1" x2="-573.2" y2="-416.7"/>
										<path id="Path_2390" class="st4" d="M-1146.3-278.7l573.1-138l-565.3,167L-1146.3-278.7z"/>
									</g>
									<g id="Group_1420" transform="translate(762.103 474.89)">
										<line id="Line_21" class="st3" x1="-1138.8" y1="-122" x2="-628.4" y2="-416.7"/>
										<path id="Path_2391" class="st4" d="M-1146.3-135l517.8-281.7l-503,307.6L-1146.3-135z"/>
									</g>
									<g id="Group_1421" transform="translate(758.915 352.807)">
										<line id="Line_22" class="st3" x1="-1135.6" y1="0.1" x2="-718.9" y2="-416.7"/>
										<path id="Path_2392" class="st4" d="M-1146.3-10.5l427.4-406.2L-1125,10.6L-1146.3-10.5z"/>
									</g>
									<g id="Group_1422" transform="translate(756.554 259.178)">
										<line id="Line_23" class="st3" x1="-1133.3" y1="93.7" x2="-838.6" y2="-416.7"/>
										<path id="Path_2393" class="st4" d="M-1146.3,86.2l307.7-502.9l-281.7,517.8L-1146.3,86.2z"/>
									</g>
									<g id="Group_1423" transform="translate(755.137 200.262)">
										<line id="Line_24" class="st3" x1="-1131.9" y1="152.6" x2="-979.3" y2="-416.7"/>
										<path id="Path_2394" class="st4" d="M-1146.3,148.7l166.9-565.4l-138.1,573.1L-1146.3,148.7z"/>
									</g>
								</g>
							</g>
							<g id="Group_1426" transform="translate(689.727 690.955)">
								
									<linearGradient id="Path_2395_1_" gradientUnits="userSpaceOnUse" x1="-2011.921" y1="204.304" x2="-2010.921" y2="204.304" gradientTransform="matrix(159.628 0 0 -159.628 320012.6563 32275.7559)">
									<stop  offset="0" style="stop-color:#C3922E"/>
									<stop  offset="1" style="stop-color:#FBCC34"/>
								</linearGradient>
								<path id="Path_2395" class="st6" d="M-1066.4-257.1c-44.1,0-79.8-35.7-79.8-79.8s35.7-79.8,79.8-79.8s79.8,35.7,79.8,79.8
									C-986.7-292.8-1022.4-257.1-1066.4-257.1z M-1066.4-401.9c-35.9,0-65.1,29.1-65.1,65.1s29.1,65.1,65.1,65.1
									s65.1-29.1,65.1-65.1l0,0C-1001.4-372.8-1030.5-401.9-1066.4-401.9L-1066.4-401.9z"/>
							</g>
						</g>
						<rect id="Rectangle_30" x="-395.8" y="130.7" class="st3" width="108.6" height="237.3"/>
						<rect id="Rectangle_31" x="-395.8" y="218.1" class="st3" width="206.6" height="239.7"/>
						<rect id="Rectangle_32" x="-420.6" y="329" class="st3" width="246.8" height="101.5"/>
						<rect id="Rectangle_33" x="-437.2" y="340.9" class="st3" width="247.9" height="186.5"/>
						<rect id="Rectangle_34" x="-427.7" y="313.7" class="st3" width="122.8" height="240.9"/>
						<rect id="Rectangle_35" x="-523.4" y="281.8" class="st3" width="172.4" height="252.7"/>
						<rect id="Rectangle_36" x="-570.6" y="278.3" class="st3" width="238.5" height="95.6"/>
						<rect id="Rectangle_37" x="-518.6" y="174.4" class="st3" width="227.9" height="219.6"/>
						<g id="Group_1438" transform="translate(574.256 574.303)">
							<g id="Group_1436">
								<g id="Group_1428" transform="translate(167.185)">
									<path id="Path_2396" class="st7" d="M-1118.2-221.4l40.4-61.4l-40.4-128l-26.6,128L-1118.2-221.4z"/>
									
										<linearGradient id="Path_2397_1_" gradientUnits="userSpaceOnUse" x1="-2069.9717" y1="320.386" x2="-2068.9717" y2="320.386" gradientTransform="matrix(70.251 0 0 -198.355 144271.3906 63232.6563)">
										<stop  offset="0" style="stop-color:#C3922E"/>
										<stop  offset="1" style="stop-color:#FBCC34"/>
									</linearGradient>
									<path id="Path_2397" class="st8" d="M-1118.4-218.3l-27.9-64.2l27.9-134.1l42.4,134.1L-1118.4-218.3z M-1143.2-282.9
										l25.3,58.3l38.5-58.4l-38.5-122L-1143.2-282.9z"/>
								</g>
								<g id="Group_1429" transform="translate(57.145 57.499)">
									<path id="Path_2398" class="st7" d="M-1008.1-278.9l-14.8-72l-119.1-62l71.8,109.5L-1008.1-278.9z"/>
									
										<linearGradient id="Path_2399_1_" gradientUnits="userSpaceOnUse" x1="-1954.2883" y1="263.8628" x2="-1953.2874" y2="263.8628" gradientTransform="matrix(140.147 0 0 -140.147 272741.1875 36632.957)">
										<stop  offset="0" style="stop-color:#C3922E"/>
										<stop  offset="1" style="stop-color:#FBCC34"/>
									</linearGradient>
									<path id="Path_2399" class="st9" d="M-1006.1-276.5l-65.1-25.7l-0.2-0.4l-74.9-114.1l124.8,64.9L-1006.1-276.5z
										 M-1069.3-304.8l59.2,23.4l-14.1-68.6l-113.5-59L-1069.3-304.8z"/>
								</g>
								<g id="Group_1430" transform="translate(0 153.135)">
									<path id="Path_2400" class="st7" d="M-951-374.5l-61.3-40.5l-128.1,40.5l128.1,26.6L-951-374.5z"/>
									
										<linearGradient id="Path_2401_1_" gradientUnits="userSpaceOnUse" x1="-1895.48" y1="171.5353" x2="-1894.479" y2="171.5353" gradientTransform="matrix(198.237 0 0 -70.251 374608.0625 11668.9678)">
										<stop  offset="0" style="stop-color:#C3922E"/>
										<stop  offset="1" style="stop-color:#FBCC34"/>
									</linearGradient>
									<path id="Path_2401" class="st10" d="M-1012.1-346.4l-0.5-0.1l-133.7-27.7l134.1-42.4l64.1,42.3L-1012.1-346.4z
										 M-1134.5-374.9l122.1,25.4l58.3-25.3l-58.4-38.5L-1134.5-374.9z"/>
								</g>
								<g id="Group_1431" transform="translate(57.499 193.16)">
									<path id="Path_2402" class="st7" d="M-1008.5-414.6l-71.9,14.8l-62,119.1l109.3-71.8L-1008.5-414.6z"/>
									
										<linearGradient id="Path_2403_1_" gradientUnits="userSpaceOnUse" x1="-1954.6365" y1="128.199" x2="-1953.6365" y2="128.199" gradientTransform="matrix(140.268 0 0 -140.265 273026.6875 17635.2793)">
										<stop  offset="0" style="stop-color:#C3922E"/>
										<stop  offset="1" style="stop-color:#FBCC34"/>
									</linearGradient>
									<path id="Path_2403" class="st11" d="M-1146.3-276.4l64.9-124.8l0.7-0.1l74.6-15.3l-25.7,65.1l-0.4,0.2L-1146.3-276.4z
										 M-1079.4-398.5l-59,113.5l104.3-68.4l23.4-59.2L-1079.4-398.5z"/>
								</g>
								<g id="Group_1432" transform="translate(153.253 192.216)">
									<path id="Path_2404" class="st7" d="M-1104.2-413.6l-40.4,61.3l40.4,128l26.6-128L-1104.2-413.6z"/>
									
										<linearGradient id="Path_2405_1_" gradientUnits="userSpaceOnUse" x1="-2056.0588" y1="128.1714" x2="-2055.0588" y2="128.1714" gradientTransform="matrix(70.133 0 0 -198.236 143051.2969 25090.6191)">
										<stop  offset="0" style="stop-color:#C3922E"/>
										<stop  offset="1" style="stop-color:#FBCC34"/>
									</linearGradient>
									<path id="Path_2405" class="st12" d="M-1103.9-218.5l-42.4-134.1l42.3-64.1l27.9,64.2L-1103.9-218.5z M-1143.1-352.1
										l38.6,122l25.4-122.1l-25.4-58.3L-1143.1-352.1z"/>
								</g>
								<g id="Group_1433" transform="translate(193.278 192.806)">
									<path id="Path_2406" class="st7" d="M-1144.3-414.2l14.8,71.9l119.1,62l-71.8-109.5L-1144.3-414.2z"/>
									
										<linearGradient id="Path_2407_1_" gradientUnits="userSpaceOnUse" x1="-2090.4155" y1="128.553" x2="-2089.4155" y2="128.553" gradientTransform="matrix(140.267 0 0 -140.266 292070 17685.0566)">
										<stop  offset="0" style="stop-color:#C3922E"/>
										<stop  offset="1" style="stop-color:#FBCC34"/>
									</linearGradient>
									<path id="Path_2407" class="st13" d="M-1006-276.4l-124.8-64.9l-15.5-75.3l65.1,25.7l0.2,0.4L-1006-276.4z M-1128.2-343.4
										l113.5,59l-68.4-104.1l-59.2-23.4L-1128.2-343.4z"/>
								</g>
								<g id="Group_1434" transform="translate(192.216 167.185)">
									<path id="Path_2408" class="st7" d="M-1143.2-388.6l61.3,40.4l128.1-40.5l-128.1-26.6L-1143.2-388.6z"/>
									
										<linearGradient id="Path_2409_1_" gradientUnits="userSpaceOnUse" x1="-2087.6936" y1="157.4966" x2="-2086.6936" y2="157.4966" gradientTransform="matrix(198.355 0 0 -70.132 412958.1563 10663.9287)">
										<stop  offset="0" style="stop-color:#C3922E"/>
										<stop  offset="1" style="stop-color:#FBCC34"/>
									</linearGradient>
									<path id="Path_2409" class="st14" d="M-1082.2-346.6l-64.1-42.3l64.2-27.9l0.5,0.1l133.7,27.7L-1082.2-346.6z
										 M-1140.1-388.4l58.4,38.5l122-38.5l-122.1-25.4L-1140.1-388.4z"/>
								</g>
								<g id="Group_1435" transform="translate(192.924 57.027)">
									<path id="Path_2410" class="st7" d="M-1143.9-278.4l71.9-14.8l62-119.2l-109.3,71.8L-1143.9-278.4z"/>
									<path id="Path_2411" class="st15" d="M-1146.3-276.5l25.7-65.1l114.5-75.1l-64.9,124.8l-0.7,0.1L-1146.3-276.5z
										 M-1118.2-339.6l-23.4,59.2l68.6-14l59-113.5L-1118.2-339.6z"/>
								</g>
							</g>
							<g id="Group_1437" transform="translate(161.754 161.754)">
								
									<linearGradient id="Path_2412_1_" gradientUnits="userSpaceOnUse" x1="-2065.646" y1="163.5642" x2="-2064.646" y2="163.5642" gradientTransform="matrix(64 0 0 -64.0001 131056.6172 10084.9619)">
									<stop  offset="0" style="stop-color:#C3922E"/>
									<stop  offset="1" style="stop-color:#FBCC34"/>
								</linearGradient>
								<path id="Path_2412" class="st16" d="M-1080.7-383.2c0,17.7-14.3,32-32,32s-32-14.3-32-32s14.3-32,32-32
									c17.6,0,32,14.3,32,31.9C-1080.7-383.2-1080.7-383.2-1080.7-383.2z"/>
								
									<linearGradient id="Path_2413_1_" gradientUnits="userSpaceOnUse" x1="-2065.0999" y1="163.244" x2="-2064.1018" y2="163.244" gradientTransform="matrix(66.944 0 0 -66.944 137099.8281 10544.9854)">
									<stop  offset="0" style="stop-color:#C3922E"/>
									<stop  offset="1" style="stop-color:#FBCC34"/>
								</linearGradient>
								<path id="Path_2413" class="st17" d="M-1112.7-349.7c-18.5,0-33.4-15-33.4-33.5c0-18.5,15-33.4,33.5-33.4
									c18.5,0,33.4,15,33.4,33.5C-1079.3-364.7-1094.3-349.8-1112.7-349.7z M-1112.7-413.7c-16.9,0-30.5,13.6-30.6,30.5
									s13.6,30.5,30.5,30.6c16.9,0,30.5-13.6,30.6-30.5C-1082.2-400-1095.8-413.7-1112.7-413.7
									C-1112.7-413.7-1112.7-413.7-1112.7-413.7z"/>
							</g>
						</g>
					</g>
				</g>
			</g>
		</g>
	</g>
</g>
</svg>
