<svg xmlns="http://www.w3.org/2000/svg" xmlns:xlink="http://www.w3.org/1999/xlink" width="171.003" height="171.299" viewBox="0 0 171.003 171.299">
  <defs>
    <filter id="Tracé_1180" x="0" y="0" width="171.003" height="171.299" filterUnits="userSpaceOnUse">
      <feOffset dy="3" input="SourceAlpha"/>
      <feGaussianBlur stdDeviation="2.5" result="blur"/>
      <feFlood flood-opacity="0.502"/>
      <feComposite operator="in" in2="blur"/>
      <feComposite in="SourceGraphic"/>
    </filter>
  </defs>
  <g transform="matrix(1, 0, 0, 1, 0, 0)" filter="url(#Tracé_1180)">
    <path id="Tracé_1180-2" data-name="Tracé 1180" d="M1667.118,2606.818a23.013,23.013,0,0,0-28.927-14.75,19.924,19.924,0,0,0-3.544,1.493,23.447,23.447,0,0,0,.371-3.547,22.952,22.952,0,1,0-45.9,0,27.474,27.474,0,0,0,.371,3.919,17.862,17.862,0,0,0-3.355-1.3,22.974,22.974,0,0,0-14.183,43.7,37.107,37.107,0,0,0,3.733.932,33,33,0,0,0-2.43,2.615,22.849,22.849,0,1,0,36.947,26.893,32.851,32.851,0,0,0,2.059-3.358,15.757,15.757,0,0,0,1.863,2.986,22.849,22.849,0,1,0,36.947-26.893,19.773,19.773,0,0,0-2.612-2.994,29.5,29.5,0,0,0,3.544-.743A22.811,22.811,0,0,0,1667.118,2606.818Zm-41.247,18.122a14.2,14.2,0,0,1-.371,2.8l9.708,3.176a4.082,4.082,0,0,1,4.475-1.3,4.131,4.131,0,1,1-2.612,7.838,3.972,3.972,0,0,1-2.8-3.73l-9.89-3.176a11.33,11.33,0,0,1-3.355,4.479l5.967,8.406a4.544,4.544,0,0,1,4.483,1.493,4.145,4.145,0,1,1-6.717,4.858,3.912,3.912,0,0,1,0-4.669l-5.975-8.406a13.189,13.189,0,0,1-5.414,1.683v10.271a4.279,4.279,0,0,1,2.8,3.919,4.1,4.1,0,1,1-8.209,0,4.04,4.04,0,0,1,2.795-3.919v-10.271a14.143,14.143,0,0,1-5.407-1.683l-5.974,8.406a4.247,4.247,0,0,1,0,4.669,4.145,4.145,0,1,1-6.717-4.858,3.891,3.891,0,0,1,4.475-1.493l5.975-8.406a15.736,15.736,0,0,1-3.362-4.479l-9.89,3.176a3.966,3.966,0,0,1-2.795,3.73,4.131,4.131,0,1,1-2.613-7.838,3.994,3.994,0,0,1,4.476,1.3l9.708-3.176a10.561,10.561,0,0,1,0-5.6l-9.708-3.176a4.089,4.089,0,0,1-4.476,1.311,4.134,4.134,0,0,1,2.613-7.845,3.972,3.972,0,0,1,2.795,3.73l9.89,3.176a11.462,11.462,0,0,1,3.362-4.479l-5.975-8.406a4.536,4.536,0,0,1-4.475-1.493,4.145,4.145,0,1,1,6.717-4.858,3.923,3.923,0,0,1,0,4.669l5.974,8.406a13.19,13.19,0,0,1,5.407-1.683v-10.271a4.283,4.283,0,0,1-2.795-3.919,4.1,4.1,0,1,1,8.209,0,4.037,4.037,0,0,1-2.8,3.919v10.271a14.138,14.138,0,0,1,5.414,1.683l5.975-8.406a4.22,4.22,0,0,1,0-4.669,4.145,4.145,0,1,1,6.717,4.858,3.9,3.9,0,0,1-4.483,1.493l-5.967,8.406a15.683,15.683,0,0,1,3.355,4.479l9.89-3.176a3.979,3.979,0,0,1,2.8-3.73,4.134,4.134,0,0,1,2.612,7.845,4,4,0,0,1-4.475-1.311l-9.708,3.176A14.2,14.2,0,0,1,1625.871,2624.94Z" transform="translate(-2950.74 -420.58) rotate(-49)" fill="#ad3a2b"/>
  </g>
</svg>
