<?xml version="1.0" encoding="utf-8"?>
<!-- Generator: Adobe Illustrator 24.0.0, SVG Export Plug-In . SVG Version: 6.00 Build 0)  -->
<svg version="1.1" id="Calque_1" xmlns="http://www.w3.org/2000/svg" xmlns:xlink="http://www.w3.org/1999/xlink" x="0px" y="0px"
	 viewBox="0 0 1920 1927.2" style="enable-background:new 0 0 1920 1927.2;" xml:space="preserve">
<style type="text/css">
	.st0{fill:#5F5B59;}
	.st1{fill:#FFFFFF;}
</style>
<g id="Groupe_36" transform="translate(0 -479.772)">
	<path id="Tracé_577" class="st0" d="M1920,784.6V2407H0V784.6c0,0,207.1-58.9,371.9-152.8c70-39.9,132.3-86.1,167.7-136.7h164.9
		c0,0,36.7,56.6,166.5,119.8C1034.8,694.6,1346.7,784.6,1920,784.6z"/>
	<g id="Groupe_34" transform="translate(369.894 494.772)">
		<g transform="matrix(1, 0, 0, 1, -369.89, -15)">
			<path id="Tracé_579-2" class="st1" d="M898.8,147.5l-2.3,1.8l-97.8-15l-55.2,35.4l-55-28.3l-61.8,36.9l-45.3-28.9l-74.8,28.9
				l-56.7-36.8l-78.5,13.5l-1.6-1.9c69.4-41.8,132.7-89.2,169.6-138h166C705.5,15,768.9,83,898.8,147.5z"/>
		</g>
	</g>
</g>
</svg>
