<?xml version="1.0" encoding="utf-8"?>
<!-- Generator: Adobe Illustrator 24.0.0, SVG Export Plug-In . SVG Version: 6.00 Build 0)  -->
<svg version="1.1" id="Calque_1" xmlns="http://www.w3.org/2000/svg" xmlns:xlink="http://www.w3.org/1999/xlink" x="0px" y="0px"
	 viewBox="0 0 382.6 408.7" style="enable-background:new 0 0 382.6 408.7;" xml:space="preserve">
<style type="text/css">
	.st0{fill:#561A14;}
	.st1{fill:#AD3B2A;}
</style>
<g>
	<path class="st0" d="M38.2,315.6v81H345v-81H38.2z M99.2,366.9H67.5v-13.1h31.7V366.9z M99.2,343.3H67.5v-13.1h31.7V343.3z
		 M142.7,366.9h-31.7v-13.1h31.7V366.9z M142.7,343.3h-31.7v-13.1h31.7V343.3z M186.1,366.9h-31.7v-13.1h31.7V366.9z M186.1,343.3
		h-31.7v-13.1h31.7V343.3z M229.6,366.9h-31.7v-13.1h31.7V366.9z M229.6,343.3h-31.7v-13.1h31.7V343.3z M273,366.9h-31.7v-13.1H273
		V366.9z M273,343.3h-31.7v-13.1H273V343.3z M316.4,366.9h-31.7v-13.1h31.7V366.9z M316.4,343.3h-31.7v-13.1h31.7V343.3z"/>
	<path class="st0" d="M92,216.1v90.2h198.6v-90.2H92z M143.9,261.2h-32v-12.3h32V261.2z M143.9,237.7h-32v-12.3h32V237.7z
		 M186.9,261.2h-32v-12.3h32V261.2z M186.9,237.7h-32v-12.3h32V237.7z M230,261.2h-32v-12.3h32V261.2z M230,237.7h-32v-12.3h32
		V237.7z M273,261.2h-32v-12.3h32V261.2z M273,237.7h-32v-12.3h32V237.7z"/>
	<rect x="143.8" y="83" class="st0" width="92" height="30.1"/>
	<path class="st1" d="M217.5,57l8.8,1.2c0,0-27.8-13.7-33.5-42.5C189.7,0,189.7,0,189.7,0s0,0-3.1,15.6
		c-5.7,28.8-33.5,42.5-33.5,42.5L162,57c-11.3,17.9-45.4,26.9-45.4,26.9c9.3,4,22.9,5.8,22.9,5.8h50.3h50.3c0,0,13.6-1.7,22.9-5.8
		C262.9,83.9,228.8,74.9,217.5,57z"/>
	<polygon class="st0" points="235.7,120.3 235.7,151.6 213.8,151.6 213.8,120.3 200.7,120.3 200.7,151.6 178.8,151.6 178.8,120.3 
		165.7,120.3 165.7,151.6 143.8,151.6 143.8,120.3 134.2,120.3 134.2,192.1 245.3,192.1 245.3,120.3 	"/>
	<polygon class="st1" points="189.7,101.5 94.6,101.5 127.8,123.2 189.7,123.2 251.6,123.2 284.9,101.5 	"/>
	<polygon class="st1" points="288.7,207.4 263.5,177 189.7,177 116,177 90.8,207.4 57.3,207.4 90,230 189.7,230 289.5,230 
		322.2,207.4 	"/>
	<polygon class="st1" points="256.5,155.9 241.7,155.9 236.7,155.9 221.9,155.9 216.9,155.9 202.1,155.9 197.1,155.9 182.4,155.9 
		177.3,155.9 162.6,155.9 157.6,155.9 142.8,155.9 137.8,155.9 123,155.9 118,155.9 118,163.6 118,181.6 123,181.6 123,163.6 
		137.8,163.6 137.8,181.6 142.8,181.6 142.8,163.6 157.6,163.6 157.6,181.6 162.6,181.6 162.6,163.6 177.3,163.6 177.3,181.6 
		182.4,181.6 182.4,163.6 197.1,163.6 197.1,181.6 202.1,181.6 202.1,163.6 216.9,163.6 216.9,181.6 221.9,181.6 221.9,163.6 
		236.7,163.6 236.7,181.6 241.7,181.6 241.7,163.6 256.5,163.6 256.5,181.6 261.5,181.6 261.5,163.6 261.5,155.9 	"/>
	<polygon class="st1" points="307.6,261.2 281.5,261.2 272.6,261.2 246.6,261.2 237.7,261.2 211.6,261.2 202.8,261.2 176.7,261.2 
		167.9,261.2 141.8,261.2 132.9,261.2 106.8,261.2 98,261.2 71.9,261.2 63.1,261.2 63.1,268.9 63.1,286.9 71.9,286.9 71.9,268.9 
		98,268.9 98,286.9 106.8,286.9 106.8,268.9 132.9,268.9 132.9,286.9 141.8,286.9 141.8,268.9 167.9,268.9 167.9,286.9 176.7,286.9 
		176.7,268.9 202.8,268.9 202.8,286.9 211.6,286.9 211.6,268.9 237.7,268.9 237.7,286.9 246.6,286.9 246.6,268.9 272.6,268.9 
		272.6,286.9 281.5,286.9 281.5,268.9 307.6,268.9 307.6,286.9 316.4,286.9 316.4,268.9 316.4,261.2 	"/>
	<polygon class="st1" points="343.2,312.1 319.5,282.6 191.3,282.6 63.1,282.6 39.3,312.1 0,312.1 37,334.1 191.3,334.1 
		345.6,334.1 382.6,312.1 	"/>
	<rect x="19.1" y="389" class="st0" width="344.4" height="19.7"/>
</g>
</svg>
